<?xml version="1.0" encoding="us-ascii" standalone="no"?><svg xmlns="http://www.w3.org/2000/svg" xmlns:xlink="http://www.w3.org/1999/xlink" contentStyleType="text/css" height="1080px" preserveAspectRatio="none" style="width:788px;height:1080px;background:#FFFFFF;" version="1.1" viewBox="0 0 788 1080" width="788px" zoomAndPan="magnify"><defs/><g><rect fill="#FFFFFF" height="1068.8228" style="stroke:#181818;stroke-width:0.5;" width="60" x="17.5" y="6"/><text fill="#000000" font-family="sans-serif" font-size="13" font-weight="bold" lengthAdjust="spacing" textLength="50" x="20.5" y="20.0283">Device2</text><rect fill="#FFFFFF" height="1068.8228" style="stroke:#181818;stroke-width:0.5;" width="366.5" x="229" y="6"/><text fill="#000000" font-family="sans-serif" font-size="13" font-weight="bold" lengthAdjust="spacing" textLength="50" x="385.25" y="20.0283">Device1</text><rect fill="none" height="426.3003" style="stroke:#000000;stroke-width:1.5;" width="772" x="10" y="549.9014"/><rect fill="none" height="254.0288" style="stroke:#000000;stroke-width:1.5;" width="496" x="20" y="715.1729"/><line style="stroke:#181818;stroke-width:0.5;stroke-dasharray:5.0,5.0;" x1="47" x2="47" y1="105.9121" y2="993.2017"/><line style="stroke:#181818;stroke-width:0.5;stroke-dasharray:5.0,5.0;" x1="271" x2="271" y1="105.9121" y2="993.2017"/><line style="stroke:#181818;stroke-width:0.5;stroke-dasharray:5.0,5.0;" x1="417.5" x2="417.5" y1="105.9121" y2="993.2017"/><line style="stroke:#181818;stroke-width:0.5;stroke-dasharray:5.0,5.0;" x1="571.5" x2="571.5" y1="105.9121" y2="993.2017"/><text fill="#000000" font-family="sans-serif" font-size="14" lengthAdjust="spacing" textLength="29" x="30" y="102.3984">CDS</text><ellipse cx="47.5" cy="35.791" fill="#FFA500" rx="8" ry="8" style="stroke:#181818;stroke-width:0.5;"/><path d="M47.5,43.791 L47.5,70.791 M34.5,51.791 L60.5,51.791 M47.5,70.791 L34.5,85.791 M47.5,70.791 L60.5,85.791 " fill="none" style="stroke:#181818;stroke-width:0.5;"/><text fill="#000000" font-family="sans-serif" font-size="14" lengthAdjust="spacing" textLength="29" x="30" y="1007.3091">CDS</text><ellipse cx="47.5" cy="1019.3228" fill="#FFA500" rx="8" ry="8" style="stroke:#181818;stroke-width:0.5;"/><path d="M47.5,1027.3228 L47.5,1054.3228 M34.5,1035.3228 L60.5,1035.3228 M47.5,1054.3228 L34.5,1069.3228 M47.5,1054.3228 L60.5,1069.3228 " fill="none" style="stroke:#181818;stroke-width:0.5;"/><text fill="#000000" font-family="sans-serif" font-size="14" lengthAdjust="spacing" textLength="70" x="233" y="102.3984">uDiscovery</text><ellipse cx="271" cy="71.291" fill="#FFA500" rx="12" ry="12" style="stroke:#181818;stroke-width:0.5;"/><line style="stroke:#181818;stroke-width:0.5;" x1="259" x2="283" y1="85.291" y2="85.291"/><text fill="#000000" font-family="sans-serif" font-size="14" lengthAdjust="spacing" textLength="70" x="233" y="1007.3091">uDiscovery</text><ellipse cx="271" cy="1026.8228" fill="#FFA500" rx="12" ry="12" style="stroke:#181818;stroke-width:0.5;"/><line style="stroke:#181818;stroke-width:0.5;" x1="259" x2="283" y1="1040.8228" y2="1040.8228"/><text fill="#000000" font-family="sans-serif" font-size="14" lengthAdjust="spacing" textLength="37" x="396.5" y="102.3984">uOTA</text><ellipse cx="418" cy="71.291" fill="#0000FF" rx="12" ry="12" style="stroke:#181818;stroke-width:0.5;"/><line style="stroke:#181818;stroke-width:0.5;" x1="406" x2="430" y1="85.291" y2="85.291"/><text fill="#000000" font-family="sans-serif" font-size="14" lengthAdjust="spacing" textLength="37" x="396.5" y="1007.3091">uOTA</text><ellipse cx="418" cy="1026.8228" fill="#0000FF" rx="12" ry="12" style="stroke:#181818;stroke-width:0.5;"/><line style="stroke:#181818;stroke-width:0.5;" x1="406" x2="430" y1="1040.8228" y2="1040.8228"/><text fill="#000000" font-family="sans-serif" font-size="14" lengthAdjust="spacing" textLength="33" x="552.5" y="102.3984">uApp</text><ellipse cx="572" cy="35.791" fill="#FF0000" rx="8" ry="8" style="stroke:#181818;stroke-width:0.5;"/><path d="M572,43.791 L572,70.791 M559,51.791 L585,51.791 M572,70.791 L559,85.791 M572,70.791 L585,85.791 " fill="none" style="stroke:#181818;stroke-width:0.5;"/><text fill="#000000" font-family="sans-serif" font-size="14" lengthAdjust="spacing" textLength="33" x="552.5" y="1007.3091">uApp</text><ellipse cx="572" cy="1019.3228" fill="#FF0000" rx="8" ry="8" style="stroke:#181818;stroke-width:0.5;"/><path d="M572,1027.3228 L572,1054.3228 M559,1035.3228 L585,1035.3228 M572,1054.3228 L559,1069.3228 M572,1054.3228 L585,1069.3228 " fill="none" style="stroke:#181818;stroke-width:0.5;"/><line style="stroke:#181818;stroke-width:1.0;" x1="418" x2="460" y1="139.2031" y2="139.2031"/><line style="stroke:#181818;stroke-width:1.0;" x1="460" x2="460" y1="139.2031" y2="152.2031"/><line style="stroke:#181818;stroke-width:1.0;" x1="419" x2="460" y1="152.2031" y2="152.2031"/><polygon fill="#181818" points="429,148.2031,419,152.2031,429,156.2031,425,152.2031" style="stroke:#181818;stroke-width:1.0;"/><text fill="#000000" font-family="sans-serif" font-size="13" font-weight="bold" lengthAdjust="spacing" textLength="7" x="425" y="133.9404">1</text><text fill="#000000" font-family="sans-serif" font-size="13" lengthAdjust="spacing" textLength="129" x="436" y="133.9404">Installation of uService</text><polygon fill="#181818" points="282,278.853,272,282.853,282,286.853,278,282.853" style="stroke:#181818;stroke-width:1.0;"/><line style="stroke:#181818;stroke-width:1.0;" x1="276" x2="417" y1="282.853" y2="282.853"/><text fill="#000000" font-family="sans-serif" font-size="13" font-weight="bold" lengthAdjust="spacing" textLength="7" x="288" y="268.9448">2</text><text fill="#000000" font-family="sans-serif" font-size="13" lengthAdjust="spacing" textLength="57" x="299" y="260.2993">AddNode(</text><text fill="#000000" font-family="sans-serif" font-size="13" lengthAdjust="spacing" textLength="112" x="299" y="277.5903">AddNodesRequest)</text><path d="M423,165.2031 L423,367.2031 L743,367.2031 L743,175.2031 L733,165.2031 L423,165.2031 " fill="#FEFFDD" style="stroke:#181818;stroke-width:0.5;"/><path d="M733,165.2031 L733,175.2031 L743,175.2031 L733,165.2031 " fill="#FEFFDD" style="stroke:#181818;stroke-width:0.5;"/><text fill="#000000" font-family="sans-serif" font-size="12" font-weight="bold" lengthAdjust="spacing" textLength="108" x="429" y="183.1523">AddNodesRequest:</text><text fill="#000000" font-family="monospace" font-size="13" lengthAdjust="spacing" textLength="80" x="429" y="200.1924">parent_uri</text><text fill="#000000" font-family="sans-serif" font-size="13" lengthAdjust="spacing" textLength="89" x="513" y="200.8335">: "up://Device1"</text><text fill="#000000" font-family="monospace" font-size="13" lengthAdjust="spacing" textLength="40" x="429" y="218.1245">nodes</text><text fill="#000000" font-family="sans-serif" font-size="13" lengthAdjust="spacing" textLength="4" x="473" y="218.7656">[</text><text fill="#000000" font-family="sans-serif" font-size="13" lengthAdjust="spacing" textLength="4" x="461" y="236.0566">{</text><text fill="#000000" font-family="monospace" font-size="13" lengthAdjust="spacing" textLength="24" x="525" y="253.3477">uri</text><text fill="#000000" font-family="sans-serif" font-size="13" lengthAdjust="spacing" textLength="142" x="549" y="253.9888">: "up://Device1/uService"</text><text fill="#000000" font-family="sans-serif" font-size="13" font-style="italic" lengthAdjust="spacing" textLength="199" x="529" y="271.2798">Additional uService Node info here</text><text fill="#000000" font-family="monospace" font-size="13" lengthAdjust="spacing" textLength="80" x="525" y="288.5708">properties</text><text fill="#000000" font-family="sans-serif" font-size="13" lengthAdjust="spacing" textLength="4" x="605" y="289.2119">:</text><text fill="#000000" font-family="sans-serif" font-size="13" font-style="italic" lengthAdjust="spacing" textLength="113" x="613" y="289.2119">uService Properties</text><text fill="#000000" font-family="monospace" font-size="13" lengthAdjust="spacing" textLength="32" x="525" y="306.5029">type</text><text fill="#000000" font-family="sans-serif" font-size="13" lengthAdjust="spacing" textLength="4" x="557" y="307.144">:</text><text fill="#000000" font-family="monospace" font-size="13" lengthAdjust="spacing" textLength="48" x="565" y="306.5029">ENTITY</text><text fill="#000000" font-family="sans-serif" font-size="13" lengthAdjust="spacing" textLength="4" x="493" y="324.4351">}</text><text fill="#000000" font-family="sans-serif" font-size="13" lengthAdjust="spacing" textLength="4" x="429" y="341.7261">]</text><text fill="#000000" font-family="monospace" font-size="13" lengthAdjust="spacing" textLength="24" x="429" y="359.0171">ttl</text><text fill="#000000" font-family="sans-serif" font-size="13" lengthAdjust="spacing" textLength="19" x="453" y="359.6582">: -1</text><line style="stroke:#181818;stroke-width:1.0;" x1="271" x2="313" y1="419.6101" y2="419.6101"/><line style="stroke:#181818;stroke-width:1.0;" x1="313" x2="313" y1="419.6101" y2="432.6101"/><line style="stroke:#181818;stroke-width:1.0;" x1="272" x2="313" y1="432.6101" y2="432.6101"/><polygon fill="#181818" points="282,428.6101,272,432.6101,282,436.6101,278,432.6101" style="stroke:#181818;stroke-width:1.0;"/><text fill="#000000" font-family="sans-serif" font-size="13" font-weight="bold" lengthAdjust="spacing" textLength="7" x="278" y="414.3474">3</text><text fill="#000000" font-family="sans-serif" font-size="13" lengthAdjust="spacing" textLength="62" x="289" y="414.3474">Save Node</text><path d="M363,377.9209 L363,458.9209 L557,458.9209 L557,387.9209 L547,377.9209 L363,377.9209 " fill="#FEFFDD" style="stroke:#181818;stroke-width:0.5;"/><path d="M547,377.9209 L547,387.9209 L557,387.9209 L547,377.9209 " fill="#FEFFDD" style="stroke:#181818;stroke-width:0.5;"/><text fill="#000000" font-family="sans-serif" font-size="12" font-weight="bold" lengthAdjust="spacing" textLength="88" x="401" y="397.2002">Node Metadata:</text><text fill="#000000" font-family="sans-serif" font-size="13" lengthAdjust="spacing" textLength="26" x="369" y="414.8813">save</text><text fill="#000000" font-family="monospace" font-size="13" font-style="italic" lengthAdjust="spacing" textLength="24" x="399" y="414.2402">ttl</text><text fill="#000000" font-family="monospace" font-size="13" font-style="italic" lengthAdjust="spacing" textLength="96" x="369" y="432.1724">last_updated</text><text fill="#000000" font-family="sans-serif" font-size="13" lengthAdjust="spacing" textLength="8" x="465" y="432.8135">=</text><text fill="#000000" font-family="sans-serif" font-size="13" font-style="italic" lengthAdjust="spacing" textLength="69" x="473" y="432.8135">current time</text><text fill="#000000" font-family="monospace" font-size="13" font-style="italic" lengthAdjust="spacing" textLength="64" x="401" y="450.1045">inactive</text><text fill="#000000" font-family="sans-serif" font-size="13" lengthAdjust="spacing" textLength="8" x="465" y="450.7456">=</text><text fill="#000000" font-family="monospace" font-size="13" lengthAdjust="spacing" textLength="40" x="473" y="450.1045">false</text><polygon fill="#181818" points="406,494.6003,416,498.6003,406,502.6003,410,498.6003" style="stroke:#181818;stroke-width:1.0;"/><line style="stroke:#181818;stroke-width:1.0;stroke-dasharray:2.0,2.0;" x1="271" x2="412" y1="498.6003" y2="498.6003"/><text fill="#000000" font-family="sans-serif" font-size="13" font-weight="bold" lengthAdjust="spacing" textLength="7" x="278" y="493.3376">4</text><text fill="#000000" font-family="sans-serif" font-size="13" lengthAdjust="spacing" textLength="38" x="289" y="493.3376">Status</text><path d="M423,469.0083 L423,512.0083 L500,512.0083 L500,479.0083 L490,469.0083 L423,469.0083 " fill="#FEFFDD" style="stroke:#181818;stroke-width:0.5;"/><path d="M490,469.0083 L490,479.0083 L500,479.0083 L490,469.0083 " fill="#FEFFDD" style="stroke:#181818;stroke-width:0.5;"/><text fill="#000000" font-family="sans-serif" font-size="12" font-weight="bold" lengthAdjust="spacing" textLength="40" x="429" y="486.9575">Status:</text><text fill="#000000" font-family="monospace" font-size="13" lengthAdjust="spacing" textLength="32" x="429" y="503.9976">code</text><text fill="#000000" font-family="sans-serif" font-size="13" lengthAdjust="spacing" textLength="4" x="461" y="504.6387">:</text><text fill="#000000" font-family="monospace" font-size="13" lengthAdjust="spacing" textLength="16" x="469" y="503.9976">OK</text><path d="M10,549.9014 L83,549.9014 L83,559.1924 L73,569.1924 L10,569.1924 L10,549.9014 " fill="#EEEEEE" style="stroke:#000000;stroke-width:1.5;"/><rect fill="none" height="426.3003" style="stroke:#000000;stroke-width:1.5;" width="772" x="10" y="549.9014"/><text fill="#000000" font-family="sans-serif" font-size="13" font-weight="bold" lengthAdjust="spacing" textLength="28" x="25" y="564.9297">loop</text><text fill="#000000" font-family="sans-serif" font-size="11" font-weight="bold" lengthAdjust="spacing" textLength="67" x="98" y="563.7715">[Observers]</text><polygon fill="#0000FF" points="560,626.6826,570,630.6826,560,630.6826" style="stroke:#0000FF;stroke-width:1.0;"/><line style="stroke:#0000FF;stroke-width:1.0;stroke-dasharray:2.0,2.0;" x1="271" x2="571" y1="630.6826" y2="630.6826"/><text fill="#000000" font-family="sans-serif" font-size="13" font-weight="bold" lengthAdjust="spacing" textLength="7" x="278" y="625.4199">5</text><text fill="#0000FF" font-family="sans-serif" font-size="13" lengthAdjust="spacing" textLength="64" x="289" y="625.4199">Notification</text><path d="M577,574.1924 L577,671.1924 L767,671.1924 L767,584.1924 L757,574.1924 L577,574.1924 " fill="#FEFFDD" style="stroke:#181818;stroke-width:0.5;"/><path d="M757,574.1924 L757,584.1924 L767,584.1924 L757,574.1924 " fill="#FEFFDD" style="stroke:#181818;stroke-width:0.5;"/><text fill="#000000" font-family="sans-serif" font-size="12" font-weight="bold" lengthAdjust="spacing" textLength="67" x="583" y="592.1416">Notification:</text><text fill="#000000" font-family="sans-serif" font-size="13" lengthAdjust="spacing" textLength="4" x="583" y="609.8228">&#160;</text><text fill="#000000" font-family="monospace" font-size="13" lengthAdjust="spacing" textLength="24" x="615" y="609.1816">uri</text><text fill="#000000" font-family="sans-serif" font-size="13" lengthAdjust="spacing" textLength="81" x="643" y="609.8228">"up:/uService"</text><text fill="#000000" font-family="monospace" font-size="13" lengthAdjust="spacing" textLength="80" x="583" y="627.1138">parent_uri</text><text fill="#000000" font-family="sans-serif" font-size="13" lengthAdjust="spacing" textLength="89" x="663" y="627.7549">: "up://Device1"</text><text fill="#000000" font-family="monospace" font-size="13" lengthAdjust="spacing" textLength="72" x="583" y="645.0459">operation</text><text fill="#000000" font-family="sans-serif" font-size="13" lengthAdjust="spacing" textLength="4" x="655" y="645.687">:</text><text fill="#000000" font-family="monospace" font-size="13" lengthAdjust="spacing" textLength="24" x="663" y="645.0459">ADD</text><text fill="#000000" font-family="monospace" font-size="13" lengthAdjust="spacing" textLength="24" x="583" y="662.978">ttl</text><text fill="#000000" font-family="sans-serif" font-size="13" lengthAdjust="spacing" textLength="19" x="607" y="663.6191">: -1</text><polygon fill="#0000FF" points="58.5,696.1729,48.5,700.1729,58.5,700.1729" style="stroke:#0000FF;stroke-width:1.0;"/><line style="stroke:#0000FF;stroke-width:1.0;stroke-dasharray:2.0,2.0;" x1="47.5" x2="270" y1="700.1729" y2="700.1729"/><text fill="#000000" font-family="sans-serif" font-size="13" font-weight="bold" lengthAdjust="spacing" textLength="7" x="64.5" y="694.9102">6</text><text fill="#0000FF" font-family="sans-serif" font-size="13" lengthAdjust="spacing" textLength="64" x="75.5" y="694.9102">Notification</text><path d="M20,715.1729 L85,715.1729 L85,724.4639 L75,734.4639 L20,734.4639 L20,715.1729 " fill="#EEEEEE" style="stroke:#000000;stroke-width:1.5;"/><rect fill="none" height="254.0288" style="stroke:#000000;stroke-width:1.5;" width="496" x="20" y="715.1729"/><text fill="#000000" font-family="sans-serif" font-size="13" font-weight="bold" lengthAdjust="spacing" textLength="20" x="35" y="730.2012">opt</text><text fill="#000000" font-family="sans-serif" font-size="11" font-weight="bold" lengthAdjust="spacing" textLength="144" x="100" y="729.043">[Fetch Newly Added Node]</text><polygon fill="#181818" points="259,774.022,269,778.022,259,782.022,263,778.022" style="stroke:#181818;stroke-width:1.0;"/><line style="stroke:#181818;stroke-width:1.0;" x1="47.5" x2="265" y1="778.022" y2="778.022"/><text fill="#000000" font-family="sans-serif" font-size="13" font-weight="bold" lengthAdjust="spacing" textLength="7" x="54.5" y="772.7593">7</text><text fill="#000000" font-family="sans-serif" font-size="13" lengthAdjust="spacing" textLength="180" x="65.5" y="772.7593">FindNodes(FindNodesRequest)</text><path d="M276,739.4639 L276,800.4639 L463,800.4639 L463,749.4639 L453,739.4639 L276,739.4639 " fill="#FEFFDD" style="stroke:#181818;stroke-width:0.5;"/><path d="M453,739.4639 L453,749.4639 L463,749.4639 L453,739.4639 " fill="#FEFFDD" style="stroke:#181818;stroke-width:0.5;"/><text fill="#000000" font-family="sans-serif" font-size="12" font-weight="bold" lengthAdjust="spacing" textLength="109" x="282" y="757.4131">FindNodesRequest:</text><text fill="#000000" font-family="monospace" font-size="13" lengthAdjust="spacing" textLength="24" x="282" y="774.4531">uri</text><text fill="#000000" font-family="sans-serif" font-size="13" lengthAdjust="spacing" textLength="142" x="306" y="775.0942">: "up://Device1/uService"</text><text fill="#000000" font-family="monospace" font-size="13" lengthAdjust="spacing" textLength="40" x="282" y="792.3853">depth</text><text fill="#000000" font-family="sans-serif" font-size="13" lengthAdjust="spacing" textLength="19" x="322" y="793.0264">: -1</text><polygon fill="#181818" points="58.5,845.8472,48.5,849.8472,58.5,853.8472,54.5,849.8472" style="stroke:#181818;stroke-width:1.0;"/><line style="stroke:#181818;stroke-width:1.0;stroke-dasharray:2.0,2.0;" x1="52.5" x2="270" y1="849.8472" y2="849.8472"/><text fill="#000000" font-family="sans-serif" font-size="13" font-weight="bold" lengthAdjust="spacing" textLength="7" x="64.5" y="844.5845">8</text><text fill="#000000" font-family="sans-serif" font-size="13" lengthAdjust="spacing" textLength="120" x="75.5" y="844.5845">FindNodesResponse</text><path d="M276,811.2891 L276,872.2891 L501,872.2891 L501,821.2891 L491,811.2891 L276,811.2891 " fill="#FEFFDD" style="stroke:#181818;stroke-width:0.5;"/><path d="M491,811.2891 L491,821.2891 L501,821.2891 L491,811.2891 " fill="#FEFFDD" style="stroke:#181818;stroke-width:0.5;"/><text fill="#000000" font-family="sans-serif" font-size="12" font-weight="bold" lengthAdjust="spacing" textLength="119" x="282" y="829.2383">FindNodesResponse:</text><text fill="#000000" font-family="monospace" font-size="13" lengthAdjust="spacing" textLength="40" x="282" y="846.2783">nodes</text><text fill="#000000" font-family="sans-serif" font-size="13" lengthAdjust="spacing" textLength="12" x="322" y="846.9194">: {</text><text fill="#000000" font-family="sans-serif" font-size="13" font-style="italic" lengthAdjust="spacing" textLength="140" x="338" y="846.9194">added node for uService</text><text fill="#000000" font-family="sans-serif" font-size="13" lengthAdjust="spacing" textLength="4" x="482" y="846.9194">}</text><text fill="#000000" font-family="monospace" font-size="13" lengthAdjust="spacing" textLength="48" x="282" y="864.2104">status</text><text fill="#000000" font-family="sans-serif" font-size="13" lengthAdjust="spacing" textLength="12" x="330" y="864.8516">: {</text><text fill="#000000" font-family="monospace" font-size="13" lengthAdjust="spacing" textLength="32" x="342" y="864.2104">code</text><text fill="#000000" font-family="sans-serif" font-size="13" lengthAdjust="spacing" textLength="4" x="374" y="864.8516">:</text><text fill="#000000" font-family="monospace" font-size="13" lengthAdjust="spacing" textLength="16" x="382" y="864.2104">OK</text><text fill="#000000" font-family="sans-serif" font-size="13" lengthAdjust="spacing" textLength="4" x="398" y="864.8516">}</text><line style="stroke:#181818;stroke-width:1.0;" x1="47.5" x2="89.5" y1="924.8035" y2="924.8035"/><line style="stroke:#181818;stroke-width:1.0;" x1="89.5" x2="89.5" y1="924.8035" y2="937.8035"/><line style="stroke:#181818;stroke-width:1.0;" x1="48.5" x2="89.5" y1="937.8035" y2="937.8035"/><polygon fill="#181818" points="58.5,933.8035,48.5,937.8035,58.5,941.8035,54.5,937.8035" style="stroke:#181818;stroke-width:1.0;"/><text fill="#000000" font-family="sans-serif" font-size="13" font-weight="bold" lengthAdjust="spacing" textLength="7" x="54.5" y="919.5408">9</text><text fill="#000000" font-family="sans-serif" font-size="13" lengthAdjust="spacing" textLength="62" x="65.5" y="919.5408">Save Node</text><path d="M139,883.1143 L139,964.1143 L333,964.1143 L333,893.1143 L323,883.1143 L139,883.1143 " fill="#FEFFDD" style="stroke:#181818;stroke-width:0.5;"/><path d="M323,883.1143 L323,893.1143 L333,893.1143 L323,883.1143 " fill="#FEFFDD" style="stroke:#181818;stroke-width:0.5;"/><text fill="#000000" font-family="sans-serif" font-size="12" font-weight="bold" lengthAdjust="spacing" textLength="88" x="177" y="902.3936">Node Metadata:</text><text fill="#000000" font-family="sans-serif" font-size="13" lengthAdjust="spacing" textLength="26" x="145" y="920.0747">save</text><text fill="#000000" font-family="monospace" font-size="13" font-style="italic" lengthAdjust="spacing" textLength="24" x="175" y="919.4336">ttl</text><text fill="#000000" font-family="monospace" font-size="13" font-style="italic" lengthAdjust="spacing" textLength="96" x="145" y="937.3657">last_updated</text><text fill="#000000" font-family="sans-serif" font-size="13" lengthAdjust="spacing" textLength="8" x="241" y="938.0068">=</text><text fill="#000000" font-family="sans-serif" font-size="13" font-style="italic" lengthAdjust="spacing" textLength="69" x="249" y="938.0068">current time</text><text fill="#000000" font-family="monospace" font-size="13" font-style="italic" lengthAdjust="spacing" textLength="64" x="177" y="955.2979">inactive</text><text fill="#000000" font-family="sans-serif" font-size="13" lengthAdjust="spacing" textLength="8" x="241" y="955.939">=</text><text fill="#000000" font-family="monospace" font-size="13" lengthAdjust="spacing" textLength="40" x="249" y="955.2979">false</text><!--SRC=[ZLJHRjem57ssl-BAFAn3Obxx654a14Egfj6fT0zJgIQJc68fs9djqB6s_pxV90qEtIPuG4xkiU-vn-VatSRxmYMS5xdGljpc7rApvKx-BALEvI1Jui6ABQMYz4QNsvMqbAxCBvZAdKhb1VGUDyfBIaJgZON9T04zOuL-a5JgB00Zy7aBbjehluTogbngTjBkGJY8jhQ0wzinbhw5qYelspRbk2YWPsNssYG01gC0I-1AEo_oN7XbD9Wrb0jfiNa3cGR8EClc9fDdIzsit0sEw_nxgesNODN3nbCoTEgtJCulHlt-4IxfzuSSgoDA62k43NH_b5On1WcmiWXgDXCp16ZS6cftb2pz4oNXV-aPgpOSuVahNTR0E4Uw2gSHUJiC81jGUcrW8wtal3sqiAQGrYjic01lpuElRI52-tqXAmxiq_pswlOxOnH2wOMIUoJkVOxLmJdA3AWDdROgBiIkvX6B1h5g5SalqejCU15hvd0hvqq3v8CFkN11nIA0POPlBpbFIulQWbTR718gdDB116edAmnZQv6xiEvIRComyCANxb-tMbUxbva6phKYrv_ZGv-VdsbkJ07NAnSKbTPHWetkUX_3RpQx7omhLoOmN9l0E3MviPVesT7SUBLMQUN88STgw1HJwcfs0CVC04ZZcDemiK-w5dphm030kw_Eh6SRJwUiBXokcBIplXbiWlTzqboKcCB3JFfq0tFvcE_HlJAhVKB8v62VcT9rfixQLPj285rzOe6EqR58X9oGge39PE4thsD7SvF6EfCEmHlf2gCTrazXLOEFQJNVW0IUWl55fGc-WZL-pHfs8UilDTfLpgpWnvPyYHaV99rq8zcX2eIS54lobs2I4wD9o7_36QkCg-2IAbiOAVe7]--></g></svg>