<?xml version="1.0" encoding="us-ascii" standalone="no"?><svg xmlns="http://www.w3.org/2000/svg" xmlns:xlink="http://www.w3.org/1999/xlink" contentStyleType="text/css" height="671px" preserveAspectRatio="none" style="width:693px;height:671px;background:#FFFFFF;" version="1.1" viewBox="0 0 693 671" width="693px" zoomAndPan="magnify"><defs/><g><rect fill="#FFFFFF" height="659.998" style="stroke:#181818;stroke-width:0.5;" width="60" x="7.5" y="6"/><text fill="#000000" font-family="sans-serif" font-size="13" font-weight="bold" lengthAdjust="spacing" textLength="50" x="10.5" y="20.0283">Device2</text><rect fill="#FFFFFF" height="659.998" style="stroke:#181818;stroke-width:0.5;" width="368.5" x="103" y="6"/><text fill="#000000" font-family="sans-serif" font-size="13" font-weight="bold" lengthAdjust="spacing" textLength="50" x="260.25" y="20.0283">Device1</text><rect fill="none" height="194.2324" style="stroke:#000000;stroke-width:1.5;" width="677" x="10" y="373.1445"/><line style="stroke:#181818;stroke-width:0.5;stroke-dasharray:5.0,5.0;" x1="37" x2="37" y1="105.9121" y2="584.377"/><line style="stroke:#181818;stroke-width:0.5;stroke-dasharray:5.0,5.0;" x1="145" x2="145" y1="105.9121" y2="584.377"/><line style="stroke:#181818;stroke-width:0.5;stroke-dasharray:5.0,5.0;" x1="305.5" x2="305.5" y1="105.9121" y2="584.377"/><line style="stroke:#181818;stroke-width:0.5;stroke-dasharray:5.0,5.0;" x1="447.5" x2="447.5" y1="105.9121" y2="584.377"/><text fill="#000000" font-family="sans-serif" font-size="14" lengthAdjust="spacing" textLength="29" x="20" y="102.3984">CDS</text><ellipse cx="37.5" cy="35.791" fill="#FFA500" rx="8" ry="8" style="stroke:#181818;stroke-width:0.5;"/><path d="M37.5,43.791 L37.5,70.791 M24.5,51.791 L50.5,51.791 M37.5,70.791 L24.5,85.791 M37.5,70.791 L50.5,85.791 " fill="none" style="stroke:#181818;stroke-width:0.5;"/><text fill="#000000" font-family="sans-serif" font-size="14" lengthAdjust="spacing" textLength="29" x="20" y="598.4844">CDS</text><ellipse cx="37.5" cy="610.498" fill="#FFA500" rx="8" ry="8" style="stroke:#181818;stroke-width:0.5;"/><path d="M37.5,618.498 L37.5,645.498 M24.5,626.498 L50.5,626.498 M37.5,645.498 L24.5,660.498 M37.5,645.498 L50.5,660.498 " fill="none" style="stroke:#181818;stroke-width:0.5;"/><text fill="#000000" font-family="sans-serif" font-size="14" lengthAdjust="spacing" textLength="70" x="107" y="102.3984">uDiscovery</text><ellipse cx="145" cy="71.291" fill="#FFA500" rx="12" ry="12" style="stroke:#181818;stroke-width:0.5;"/><line style="stroke:#181818;stroke-width:0.5;" x1="133" x2="157" y1="85.291" y2="85.291"/><text fill="#000000" font-family="sans-serif" font-size="14" lengthAdjust="spacing" textLength="70" x="107" y="598.4844">uDiscovery</text><ellipse cx="145" cy="617.998" fill="#FFA500" rx="12" ry="12" style="stroke:#181818;stroke-width:0.5;"/><line style="stroke:#181818;stroke-width:0.5;" x1="133" x2="157" y1="631.998" y2="631.998"/><text fill="#000000" font-family="sans-serif" font-size="14" lengthAdjust="spacing" textLength="37" x="284.5" y="102.3984">uOTA</text><ellipse cx="306" cy="71.291" fill="#0000FF" rx="12" ry="12" style="stroke:#181818;stroke-width:0.5;"/><line style="stroke:#181818;stroke-width:0.5;" x1="294" x2="318" y1="85.291" y2="85.291"/><text fill="#000000" font-family="sans-serif" font-size="14" lengthAdjust="spacing" textLength="37" x="284.5" y="598.4844">uOTA</text><ellipse cx="306" cy="617.998" fill="#0000FF" rx="12" ry="12" style="stroke:#181818;stroke-width:0.5;"/><line style="stroke:#181818;stroke-width:0.5;" x1="294" x2="318" y1="631.998" y2="631.998"/><text fill="#000000" font-family="sans-serif" font-size="14" lengthAdjust="spacing" textLength="33" x="428.5" y="102.3984">uApp</text><ellipse cx="448" cy="35.791" fill="#FF0000" rx="8" ry="8" style="stroke:#181818;stroke-width:0.5;"/><path d="M448,43.791 L448,70.791 M435,51.791 L461,51.791 M448,70.791 L435,85.791 M448,70.791 L461,85.791 " fill="none" style="stroke:#181818;stroke-width:0.5;"/><text fill="#000000" font-family="sans-serif" font-size="14" lengthAdjust="spacing" textLength="33" x="428.5" y="598.4844">uApp</text><ellipse cx="448" cy="610.498" fill="#FF0000" rx="8" ry="8" style="stroke:#181818;stroke-width:0.5;"/><path d="M448,618.498 L448,645.498 M435,626.498 L461,626.498 M448,645.498 L435,660.498 M448,645.498 L461,660.498 " fill="none" style="stroke:#181818;stroke-width:0.5;"/><line style="stroke:#181818;stroke-width:1.0;" x1="306" x2="348" y1="139.2031" y2="139.2031"/><line style="stroke:#181818;stroke-width:1.0;" x1="348" x2="348" y1="139.2031" y2="152.2031"/><line style="stroke:#181818;stroke-width:1.0;" x1="307" x2="348" y1="152.2031" y2="152.2031"/><polygon fill="#181818" points="317,148.2031,307,152.2031,317,156.2031,313,152.2031" style="stroke:#181818;stroke-width:1.0;"/><text fill="#000000" font-family="sans-serif" font-size="13" font-weight="bold" lengthAdjust="spacing" textLength="7" x="313" y="133.9404">1</text><text fill="#000000" font-family="sans-serif" font-size="13" lengthAdjust="spacing" textLength="117" x="324" y="133.9404">Uninstall of uService</text><polygon fill="#181818" points="156,199.4407,146,203.4407,156,207.4407,152,203.4407" style="stroke:#181818;stroke-width:1.0;"/><line style="stroke:#181818;stroke-width:1.0;" x1="150" x2="305" y1="203.4407" y2="203.4407"/><text fill="#000000" font-family="sans-serif" font-size="13" font-weight="bold" lengthAdjust="spacing" textLength="7" x="162" y="189.5325">2</text><text fill="#000000" font-family="sans-serif" font-size="13" lengthAdjust="spacing" textLength="78" x="173" y="180.887">DeleteNodes(</text><text fill="#000000" font-family="sans-serif" font-size="13" lengthAdjust="spacing" textLength="126" x="173" y="198.178">DeleteNodesRequest)</text><path d="M311,165.2031 L311,208.2031 L514,208.2031 L514,175.2031 L504,165.2031 L311,165.2031 " fill="#FEFFDD" style="stroke:#181818;stroke-width:0.5;"/><path d="M504,165.2031 L504,175.2031 L514,175.2031 L504,165.2031 " fill="#FEFFDD" style="stroke:#181818;stroke-width:0.5;"/><text fill="#000000" font-family="sans-serif" font-size="12" font-weight="bold" lengthAdjust="spacing" textLength="122" x="317" y="183.1523">DeleteNodesRequest:</text><text fill="#000000" font-family="monospace" font-size="13" lengthAdjust="spacing" textLength="32" x="317" y="200.1924">uris</text><text fill="#000000" font-family="sans-serif" font-size="13" lengthAdjust="spacing" textLength="150" x="349" y="200.8335">: ["up://Device1/uService"]</text><line style="stroke:#181818;stroke-width:1.0;" x1="145" x2="187" y1="251.8193" y2="251.8193"/><line style="stroke:#181818;stroke-width:1.0;" x1="187" x2="187" y1="251.8193" y2="264.8193"/><line style="stroke:#181818;stroke-width:1.0;" x1="146" x2="187" y1="264.8193" y2="264.8193"/><polygon fill="#181818" points="156,260.8193,146,264.8193,156,268.8193,152,264.8193" style="stroke:#181818;stroke-width:1.0;"/><text fill="#000000" font-family="sans-serif" font-size="13" font-weight="bold" lengthAdjust="spacing" textLength="7" x="152" y="246.5566">3</text><text fill="#000000" font-family="sans-serif" font-size="13" lengthAdjust="spacing" textLength="71" x="163" y="246.5566">Delete Node</text><path d="M246,219.0962 L246,282.0962 L440,282.0962 L440,229.0962 L430,219.0962 L246,219.0962 " fill="#FEFFDD" style="stroke:#181818;stroke-width:0.5;"/><path d="M430,219.0962 L430,229.0962 L440,229.0962 L430,219.0962 " fill="#FEFFDD" style="stroke:#181818;stroke-width:0.5;"/><text fill="#000000" font-family="sans-serif" font-size="12" font-weight="bold" lengthAdjust="spacing" textLength="88" x="284" y="238.3755">Node Metadata:</text><text fill="#000000" font-family="monospace" font-size="13" font-style="italic" lengthAdjust="spacing" textLength="96" x="252" y="255.4155">last_updated</text><text fill="#000000" font-family="sans-serif" font-size="13" lengthAdjust="spacing" textLength="8" x="348" y="256.0566">=</text><text fill="#000000" font-family="sans-serif" font-size="13" font-style="italic" lengthAdjust="spacing" textLength="69" x="356" y="256.0566">current time</text><text fill="#000000" font-family="monospace" font-size="13" font-style="italic" lengthAdjust="spacing" textLength="64" x="284" y="273.3477">inactive</text><text fill="#000000" font-family="sans-serif" font-size="13" lengthAdjust="spacing" textLength="8" x="348" y="273.9888">=</text><text fill="#000000" font-family="monospace" font-size="13" lengthAdjust="spacing" textLength="32" x="356" y="273.3477">true</text><polygon fill="#181818" points="294,317.8435,304,321.8435,294,325.8435,298,321.8435" style="stroke:#181818;stroke-width:1.0;"/><line style="stroke:#181818;stroke-width:1.0;stroke-dasharray:2.0,2.0;" x1="145" x2="300" y1="321.8435" y2="321.8435"/><text fill="#000000" font-family="sans-serif" font-size="13" font-weight="bold" lengthAdjust="spacing" textLength="7" x="152" y="316.5808">4</text><text fill="#000000" font-family="sans-serif" font-size="13" lengthAdjust="spacing" textLength="38" x="163" y="316.5808">Status</text><path d="M311,292.2515 L311,335.2515 L388,335.2515 L388,302.2515 L378,292.2515 L311,292.2515 " fill="#FEFFDD" style="stroke:#181818;stroke-width:0.5;"/><path d="M378,292.2515 L378,302.2515 L388,302.2515 L378,292.2515 " fill="#FEFFDD" style="stroke:#181818;stroke-width:0.5;"/><text fill="#000000" font-family="sans-serif" font-size="12" font-weight="bold" lengthAdjust="spacing" textLength="40" x="317" y="310.2007">Status:</text><text fill="#000000" font-family="monospace" font-size="13" lengthAdjust="spacing" textLength="32" x="317" y="327.2407">code</text><text fill="#000000" font-family="sans-serif" font-size="13" lengthAdjust="spacing" textLength="4" x="349" y="327.8818">:</text><text fill="#000000" font-family="monospace" font-size="13" lengthAdjust="spacing" textLength="16" x="357" y="327.2407">OK</text><path d="M10,373.1445 L83,373.1445 L83,382.4355 L73,392.4355 L10,392.4355 L10,373.1445 " fill="#EEEEEE" style="stroke:#000000;stroke-width:1.5;"/><rect fill="none" height="194.2324" style="stroke:#000000;stroke-width:1.5;" width="677" x="10" y="373.1445"/><text fill="#000000" font-family="sans-serif" font-size="13" font-weight="bold" lengthAdjust="spacing" textLength="28" x="25" y="388.1729">loop</text><text fill="#000000" font-family="sans-serif" font-size="11" font-weight="bold" lengthAdjust="spacing" textLength="67" x="98" y="387.0146">[Observers]</text><polygon fill="#0000FF" points="436,431.9937,446,435.9937,436,435.9937" style="stroke:#0000FF;stroke-width:1.0;"/><line style="stroke:#0000FF;stroke-width:1.0;stroke-dasharray:2.0,2.0;" x1="145" x2="447" y1="435.9937" y2="435.9937"/><text fill="#000000" font-family="sans-serif" font-size="13" font-weight="bold" lengthAdjust="spacing" textLength="7" x="152" y="430.731">5</text><text fill="#0000FF" font-family="sans-serif" font-size="13" lengthAdjust="spacing" textLength="64" x="163" y="430.731">Notification</text><path d="M453,397.4355 L453,458.4355 L672,458.4355 L672,407.4355 L662,397.4355 L453,397.4355 " fill="#FEFFDD" style="stroke:#181818;stroke-width:0.5;"/><path d="M662,397.4355 L662,407.4355 L672,407.4355 L662,397.4355 " fill="#FEFFDD" style="stroke:#181818;stroke-width:0.5;"/><text fill="#000000" font-family="sans-serif" font-size="12" font-weight="bold" lengthAdjust="spacing" textLength="67" x="459" y="415.3848">Notification:</text><text fill="#000000" font-family="sans-serif" font-size="13" lengthAdjust="spacing" textLength="4" x="459" y="433.0659">&#160;</text><text fill="#000000" font-family="monospace" font-size="13" lengthAdjust="spacing" textLength="24" x="491" y="432.4248">uri</text><text fill="#000000" font-family="sans-serif" font-size="13" lengthAdjust="spacing" textLength="142" x="515" y="433.0659">: "up://Device1/uService"</text><text fill="#000000" font-family="monospace" font-size="13" lengthAdjust="spacing" textLength="72" x="459" y="450.3569">operation</text><text fill="#000000" font-family="sans-serif" font-size="13" lengthAdjust="spacing" textLength="4" x="531" y="450.998">:</text><text fill="#000000" font-family="monospace" font-size="13" lengthAdjust="spacing" textLength="48" x="539" y="450.3569">DELETE</text><polygon fill="#0000FF" points="48.5,483.5518,38.5,487.5518,48.5,487.5518" style="stroke:#0000FF;stroke-width:1.0;"/><line style="stroke:#0000FF;stroke-width:1.0;stroke-dasharray:2.0,2.0;" x1="37.5" x2="144" y1="487.5518" y2="487.5518"/><text fill="#000000" font-family="sans-serif" font-size="13" font-weight="bold" lengthAdjust="spacing" textLength="7" x="54.5" y="482.2891">6</text><text fill="#0000FF" font-family="sans-serif" font-size="13" lengthAdjust="spacing" textLength="64" x="65.5" y="482.2891">Notification</text><line style="stroke:#181818;stroke-width:1.0;" x1="37.5" x2="79.5" y1="532.6099" y2="532.6099"/><line style="stroke:#181818;stroke-width:1.0;" x1="79.5" x2="79.5" y1="532.6099" y2="545.6099"/><line style="stroke:#181818;stroke-width:1.0;" x1="38.5" x2="79.5" y1="545.6099" y2="545.6099"/><polygon fill="#181818" points="48.5,541.6099,38.5,545.6099,48.5,549.6099,44.5,545.6099" style="stroke:#181818;stroke-width:1.0;"/><text fill="#000000" font-family="sans-serif" font-size="13" font-weight="bold" lengthAdjust="spacing" textLength="7" x="44.5" y="527.3472">7</text><text fill="#000000" font-family="sans-serif" font-size="13" lengthAdjust="spacing" textLength="71" x="55.5" y="527.3472">Delete Node</text><path d="M138,500.5518 L138,561.5518 L332,561.5518 L332,510.5518 L322,500.5518 L138,500.5518 " fill="#FEFFDD" style="stroke:#181818;stroke-width:0.5;"/><path d="M322,500.5518 L322,510.5518 L332,510.5518 L322,500.5518 " fill="#FEFFDD" style="stroke:#181818;stroke-width:0.5;"/><text fill="#000000" font-family="sans-serif" font-size="12" font-weight="bold" lengthAdjust="spacing" textLength="88" x="144" y="518.501">Node Metadata:</text><text fill="#000000" font-family="monospace" font-size="13" font-style="italic" lengthAdjust="spacing" textLength="96" x="144" y="535.541">last_updated</text><text fill="#000000" font-family="sans-serif" font-size="13" lengthAdjust="spacing" textLength="8" x="240" y="536.1821">=</text><text fill="#000000" font-family="sans-serif" font-size="13" font-style="italic" lengthAdjust="spacing" textLength="69" x="248" y="536.1821">current time</text><text fill="#000000" font-family="monospace" font-size="13" font-style="italic" lengthAdjust="spacing" textLength="64" x="144" y="553.4731">inactive</text><text fill="#000000" font-family="sans-serif" font-size="13" lengthAdjust="spacing" textLength="8" x="208" y="554.1143">=</text><text fill="#000000" font-family="monospace" font-size="13" lengthAdjust="spacing" textLength="32" x="216" y="553.4731">true</text><!--SRC=[ZL5TRzem57sEVyMLUTY6HBtsCQ985Q4lsueqsgUscano0KkEdTdNR9tuyRE1KjClDK-9piazNvzMH9qlXUYqD1HQVLBRLdZy7T3KE6YKN3hPCYO3MHFQEJh6vlOlLBXMDPv1xyzA4R92rcGTZAiPzAoJPeaCJHE96VdqG4P3YXuWLChNTetk0QI7xDS3ONfzaQ2R2CrrECY4Yww3diFcKIGI1gD8A-76AED9QWrs0M66BYdlyIhY5MealB8D-izt9llwcI9x-iAC9GIdbYjYnT2hVrYUdetw_PVKijyVYaGOiOBpu9Jdl8HR7hfOvpwoUBJ0xvDNICTPzSmDfAkvBkJ22OGVIBAH97DD8JZNqjElq4K86yw5E1UY3ix5_e1KYqB4MucdJ6nEhN7BuPnSYA_7ZlO5paXIy6-ri4EFazVHO4hE-VHRVdIpsJ1jRGVJkOybeFEiI4AtlQ_nkRoy7znjbonXkB3HS6srTUTfvz6L9RLGjIHbpL0aD2hbbeuBUYBdpW1sisozlJvAFCIvxT1jVzw5g2RV9zUJ6AGu97bXUvp6-vZhyMxjyVEvtudpnjuV7BnuP_2dIEabZSF-0m00]--></g></svg>