<?xml version="1.0" encoding="us-ascii" standalone="no"?><svg xmlns="http://www.w3.org/2000/svg" xmlns:xlink="http://www.w3.org/1999/xlink" contentStyleType="text/css" height="1228px" preserveAspectRatio="none" style="width:992px;height:1228px;background:#FFFFFF;" version="1.1" viewBox="0 0 992 1228" width="992px" zoomAndPan="magnify"><defs/><g><rect fill="#FFFFFF" height="1216.7422" style="stroke:#181818;stroke-width:0.5;" width="601.5" x="36" y="6"/><text fill="#000000" font-family="sans-serif" font-size="13" font-weight="bold" lengthAdjust="spacing" textLength="58" x="305.25" y="18.0669">uDevice</text><rect fill="none" height="1012.5859" style="stroke:#000000;stroke-width:1.5;" width="975" x="10" y="141.8594"/><rect fill="none" height="725.5859" style="stroke:#000000;stroke-width:1.5;" width="955" x="20" y="392.7266"/><rect fill="none" height="384.0234" style="stroke:#000000;stroke-width:1.5;" width="935" x="30" y="661.0547"/><line style="stroke:#181818;stroke-width:0.5;stroke-dasharray:5.0,5.0;" x1="62" x2="62" y1="73.4297" y2="1171.4453"/><line style="stroke:#181818;stroke-width:0.5;stroke-dasharray:5.0,5.0;" x1="245" x2="245" y1="73.4297" y2="1171.4453"/><line style="stroke:#181818;stroke-width:0.5;stroke-dasharray:5.0,5.0;" x1="428" x2="428" y1="73.4297" y2="1171.4453"/><line style="stroke:#181818;stroke-width:0.5;stroke-dasharray:5.0,5.0;" x1="610.5" x2="610.5" y1="73.4297" y2="1171.4453"/><line style="stroke:#181818;stroke-width:0.5;stroke-dasharray:5.0,5.0;" x1="661.5" x2="661.5" y1="73.4297" y2="1171.4453"/><rect fill="#FF0000" height="30.2969" style="stroke:#181818;stroke-width:0.5;" width="40" x="44" y="38.1328"/><rect fill="#FF0000" height="30.2969" style="stroke:#181818;stroke-width:0.5;" width="40" x="40" y="42.1328"/><text fill="#000000" font-family="sans-serif" font-size="14" lengthAdjust="spacing" textLength="26" x="47" y="62.1279">uEs</text><rect fill="#FF0000" height="30.2969" style="stroke:#181818;stroke-width:0.5;" width="40" x="44" y="1170.4453"/><rect fill="#FF0000" height="30.2969" style="stroke:#181818;stroke-width:0.5;" width="40" x="40" y="1174.4453"/><text fill="#000000" font-family="sans-serif" font-size="14" lengthAdjust="spacing" textLength="26" x="47" y="1194.4404">uEs</text><text fill="#000000" font-family="sans-serif" font-size="14" lengthAdjust="spacing" textLength="36" x="224" y="70.1279">uLDS</text><ellipse cx="245" cy="41.1328" fill="#FFA500" rx="12" ry="12" style="stroke:#181818;stroke-width:0.5;"/><line style="stroke:#181818;stroke-width:0.5;" x1="233" x2="257" y1="55.1328" y2="55.1328"/><text fill="#000000" font-family="sans-serif" font-size="14" lengthAdjust="spacing" textLength="36" x="224" y="1183.4404">uLDS</text><ellipse cx="245" cy="1202.7422" fill="#FFA500" rx="12" ry="12" style="stroke:#181818;stroke-width:0.5;"/><line style="stroke:#181818;stroke-width:0.5;" x1="233" x2="257" y1="1216.7422" y2="1216.7422"/><text fill="#000000" font-family="sans-serif" font-size="14" lengthAdjust="spacing" textLength="40" x="405" y="70.1279">uDDS</text><ellipse cx="428" cy="41.1328" fill="#FFA500" rx="12" ry="12" style="stroke:#181818;stroke-width:0.5;"/><line style="stroke:#181818;stroke-width:0.5;" x1="416" x2="440" y1="55.1328" y2="55.1328"/><text fill="#000000" font-family="sans-serif" font-size="14" lengthAdjust="spacing" textLength="40" x="405" y="1183.4404">uDDS</text><ellipse cx="428" cy="1202.7422" fill="#FFA500" rx="12" ry="12" style="stroke:#181818;stroke-width:0.5;"/><line style="stroke:#181818;stroke-width:0.5;" x1="416" x2="440" y1="1216.7422" y2="1216.7422"/><text fill="#000000" font-family="sans-serif" font-size="14" lengthAdjust="spacing" textLength="39" x="588.5" y="70.1279">uCDS</text><ellipse cx="611" cy="41.1328" fill="#FFA500" rx="12" ry="12" style="stroke:#181818;stroke-width:0.5;"/><line style="stroke:#181818;stroke-width:0.5;" x1="599" x2="623" y1="55.1328" y2="55.1328"/><text fill="#000000" font-family="sans-serif" font-size="14" lengthAdjust="spacing" textLength="39" x="588.5" y="1183.4404">uCDS</text><ellipse cx="611" cy="1202.7422" fill="#FFA500" rx="12" ry="12" style="stroke:#181818;stroke-width:0.5;"/><line style="stroke:#181818;stroke-width:0.5;" x1="599" x2="623" y1="1216.7422" y2="1216.7422"/><text fill="#000000" font-family="sans-serif" font-size="14" lengthAdjust="spacing" textLength="30" x="643.5" y="70.1279">CDS</text><ellipse cx="661.5" cy="41.1328" fill="#FFA500" rx="12" ry="12" style="stroke:#181818;stroke-width:0.5;"/><line style="stroke:#181818;stroke-width:0.5;" x1="649.5" x2="673.5" y1="55.1328" y2="55.1328"/><text fill="#000000" font-family="sans-serif" font-size="14" lengthAdjust="spacing" textLength="30" x="643.5" y="1183.4404">CDS</text><ellipse cx="661.5" cy="1202.7422" fill="#FFA500" rx="12" ry="12" style="stroke:#181818;stroke-width:0.5;"/><line style="stroke:#181818;stroke-width:0.5;" x1="649.5" x2="673.5" y1="1216.7422" y2="1216.7422"/><polygon fill="#181818" points="233,111.7109,243,115.7109,233,119.7109,237,115.7109" style="stroke:#181818;stroke-width:1.0;"/><line style="stroke:#181818;stroke-width:1.0;" x1="62" x2="239" y1="115.7109" y2="115.7109"/><text fill="#000000" font-family="sans-serif" font-size="13" font-weight="bold" lengthAdjust="spacing" textLength="9" x="69" y="110.645">1</text><text fill="#000000" font-family="sans-serif" font-size="13" lengthAdjust="spacing" textLength="146" x="82" y="110.645">FinduE(FinduERequest)</text><path d="M250,88.4297 L250,129.4297 L394,129.4297 L394,98.4297 L384,88.4297 L250,88.4297 " fill="#FEFFDD" style="stroke:#181818;stroke-width:0.5;"/><path d="M384,88.4297 L384,98.4297 L394,98.4297 L384,88.4297 " fill="#FEFFDD" style="stroke:#181818;stroke-width:0.5;"/><text fill="#000000" font-family="sans-serif" font-size="14" font-weight="bold" lengthAdjust="spacing" textLength="123" x="256" y="106.4248">FinduERequest:</text><text fill="#000000" font-family="monospace" font-size="13" lengthAdjust="spacing" textLength="24" x="256" y="121.7935">uri</text><text fill="#000000" font-family="sans-serif" font-size="13" lengthAdjust="spacing" textLength="4" x="280" y="121.7935">:</text><text fill="#000000" font-family="monospace" font-size="13" font-style="italic" lengthAdjust="spacing" textLength="40" x="288" y="121.7935">topic</text><path d="M10,141.8594 L74,141.8594 L74,148.9922 L64,158.9922 L10,158.9922 L10,141.8594 " fill="#EEEEEE" style="stroke:#000000;stroke-width:1.5;"/><rect fill="none" height="1012.5859" style="stroke:#000000;stroke-width:1.5;" width="975" x="10" y="141.8594"/><text fill="#000000" font-family="sans-serif" font-size="13" font-weight="bold" lengthAdjust="spacing" textLength="19" x="25" y="154.9263">alt</text><text fill="#000000" font-family="sans-serif" font-size="11" font-weight="bold" lengthAdjust="spacing" textLength="99" x="89" y="154.0698">[Found Locally]</text><polygon fill="#181818" points="73,194.8398,63,198.8398,73,202.8398,69,198.8398" style="stroke:#181818;stroke-width:1.0;"/><line style="stroke:#181818;stroke-width:1.0;stroke-dasharray:2.0,2.0;" x1="67" x2="244" y1="198.8398" y2="198.8398"/><text fill="#000000" font-family="sans-serif" font-size="13" font-weight="bold" lengthAdjust="spacing" textLength="9" x="79" y="193.7739">2</text><text fill="#000000" font-family="sans-serif" font-size="13" lengthAdjust="spacing" textLength="104" x="92" y="193.7739">FinduEResponse</text><path d="M250,163.9922 L250,219.9922 L415,219.9922 L415,173.9922 L405,163.9922 L250,163.9922 " fill="#FEFFDD" style="stroke:#181818;stroke-width:0.5;"/><path d="M405,163.9922 L405,173.9922 L415,173.9922 L405,163.9922 " fill="#FEFFDD" style="stroke:#181818;stroke-width:0.5;"/><text fill="#000000" font-family="sans-serif" font-size="14" font-weight="bold" lengthAdjust="spacing" textLength="136" x="256" y="181.9873">FinduEResponse:</text><text fill="#000000" font-family="monospace" font-size="13" lengthAdjust="spacing" textLength="32" x="256" y="197.356">uris</text><text fill="#000000" font-family="sans-serif" font-size="13" lengthAdjust="spacing" textLength="16" x="288" y="197.356">: {</text><text fill="#000000" font-family="monospace" font-size="13" font-style="italic" lengthAdjust="spacing" textLength="40" x="304" y="197.356">topic</text><text fill="#000000" font-family="sans-serif" font-size="13" lengthAdjust="spacing" textLength="4" x="344" y="197.356">,</text><text fill="#000000" font-family="monospace" font-size="13" font-style="italic" lengthAdjust="spacing" textLength="40" x="352" y="197.356">topic</text><text fill="#000000" font-family="sans-serif" font-size="13" lengthAdjust="spacing" textLength="8" x="392" y="197.356">}</text><text fill="#000000" font-family="monospace" font-size="13" lengthAdjust="spacing" textLength="48" x="256" y="212.4888">result</text><text fill="#000000" font-family="sans-serif" font-size="13" lengthAdjust="spacing" textLength="16" x="304" y="212.4888">: {</text><text fill="#000000" font-family="monospace" font-size="13" lengthAdjust="spacing" textLength="32" x="320" y="212.4888">code</text><text fill="#000000" font-family="sans-serif" font-size="13" lengthAdjust="spacing" textLength="4" x="352" y="212.4888">:</text><text fill="#000000" font-family="monospace" font-size="13" lengthAdjust="spacing" textLength="16" x="360" y="212.4888">OK</text><text fill="#000000" font-family="sans-serif" font-size="13" lengthAdjust="spacing" textLength="8" x="376" y="212.4888">}</text><line style="stroke:#000000;stroke-width:1.0;stroke-dasharray:2.0,2.0;" x1="10" x2="985" y1="251.5547" y2="251.5547"/><text fill="#000000" font-family="sans-serif" font-size="11" font-weight="bold" lengthAdjust="spacing" textLength="258" x="15" y="261.7651">[Invalid Argument or Permission Denied]</text><polygon fill="#181818" points="73,293.6406,63,297.6406,73,301.6406,69,297.6406" style="stroke:#181818;stroke-width:1.0;"/><line style="stroke:#181818;stroke-width:1.0;stroke-dasharray:2.0,2.0;" x1="67" x2="244" y1="297.6406" y2="297.6406"/><text fill="#000000" font-family="sans-serif" font-size="13" font-weight="bold" lengthAdjust="spacing" textLength="9" x="79" y="292.5747">3</text><text fill="#000000" font-family="sans-serif" font-size="13" lengthAdjust="spacing" textLength="104" x="92" y="292.5747">FinduEResponse</text><path d="M250,270.3594 L250,311.3594 L683,311.3594 L683,280.3594 L673,270.3594 L250,270.3594 " fill="#FEFFDD" style="stroke:#181818;stroke-width:0.5;"/><path d="M673,270.3594 L673,280.3594 L683,280.3594 L673,270.3594 " fill="#FEFFDD" style="stroke:#181818;stroke-width:0.5;"/><text fill="#000000" font-family="sans-serif" font-size="14" font-weight="bold" lengthAdjust="spacing" textLength="136" x="256" y="288.3545">FinduEResponse:</text><text fill="#000000" font-family="monospace" font-size="13" lengthAdjust="spacing" textLength="48" x="256" y="303.7231">result</text><text fill="#000000" font-family="sans-serif" font-size="13" lengthAdjust="spacing" textLength="16" x="308" y="303.7231">: {</text><text fill="#000000" font-family="monospace" font-size="13" lengthAdjust="spacing" textLength="32" x="328" y="303.7231">code</text><text fill="#000000" font-family="sans-serif" font-size="13" lengthAdjust="spacing" textLength="4" x="360" y="303.7231">:</text><text fill="#000000" font-family="monospace" font-size="13" lengthAdjust="spacing" textLength="288" x="368" y="303.7231">INVALID_ARGUMENT&#160;|&#160;PERMISSION_DENIED</text><text fill="#000000" font-family="sans-serif" font-size="13" lengthAdjust="spacing" textLength="8" x="660" y="303.7231">}</text><line style="stroke:#000000;stroke-width:1.0;stroke-dasharray:2.0,2.0;" x1="10" x2="985" y1="342.7891" y2="342.7891"/><text fill="#000000" font-family="sans-serif" font-size="11" font-weight="bold" lengthAdjust="spacing" textLength="169" x="15" y="352.9995">[Remote Lookup Required]</text><polygon fill="#181818" points="416,373.7266,426,377.7266,416,381.7266,420,377.7266" style="stroke:#181818;stroke-width:1.0;"/><line style="stroke:#181818;stroke-width:1.0;" x1="245" x2="422" y1="377.7266" y2="377.7266"/><text fill="#000000" font-family="sans-serif" font-size="13" font-weight="bold" lengthAdjust="spacing" textLength="9" x="252" y="372.6606">4</text><text fill="#000000" font-family="sans-serif" font-size="13" lengthAdjust="spacing" textLength="146" x="265" y="372.6606">FinduE(FinduERequest)</text><path d="M20,392.7266 L84,392.7266 L84,399.8594 L74,409.8594 L20,409.8594 L20,392.7266 " fill="#EEEEEE" style="stroke:#000000;stroke-width:1.5;"/><rect fill="none" height="725.5859" style="stroke:#000000;stroke-width:1.5;" width="955" x="20" y="392.7266"/><text fill="#000000" font-family="sans-serif" font-size="13" font-weight="bold" lengthAdjust="spacing" textLength="19" x="35" y="405.7935">alt</text><text fill="#000000" font-family="sans-serif" font-size="11" font-weight="bold" lengthAdjust="spacing" textLength="62" x="99" y="404.937">[Success]</text><polygon fill="#181818" points="256,445.707,246,449.707,256,453.707,252,449.707" style="stroke:#181818;stroke-width:1.0;"/><line style="stroke:#181818;stroke-width:1.0;stroke-dasharray:2.0,2.0;" x1="250" x2="427" y1="449.707" y2="449.707"/><text fill="#000000" font-family="sans-serif" font-size="13" font-weight="bold" lengthAdjust="spacing" textLength="9" x="262" y="444.6411">5</text><text fill="#000000" font-family="sans-serif" font-size="13" lengthAdjust="spacing" textLength="104" x="275" y="444.6411">FinduEResponse</text><path d="M433,414.8594 L433,470.8594 L598,470.8594 L598,424.8594 L588,414.8594 L433,414.8594 " fill="#FEFFDD" style="stroke:#181818;stroke-width:0.5;"/><path d="M588,414.8594 L588,424.8594 L598,424.8594 L588,414.8594 " fill="#FEFFDD" style="stroke:#181818;stroke-width:0.5;"/><text fill="#000000" font-family="sans-serif" font-size="14" font-weight="bold" lengthAdjust="spacing" textLength="136" x="439" y="432.8545">FinduEResponse:</text><text fill="#000000" font-family="monospace" font-size="13" lengthAdjust="spacing" textLength="32" x="439" y="448.2231">uris</text><text fill="#000000" font-family="sans-serif" font-size="13" lengthAdjust="spacing" textLength="16" x="471" y="448.2231">: {</text><text fill="#000000" font-family="monospace" font-size="13" font-style="italic" lengthAdjust="spacing" textLength="40" x="487" y="448.2231">topic</text><text fill="#000000" font-family="sans-serif" font-size="13" lengthAdjust="spacing" textLength="4" x="527" y="448.2231">,</text><text fill="#000000" font-family="monospace" font-size="13" font-style="italic" lengthAdjust="spacing" textLength="40" x="535" y="448.2231">topic</text><text fill="#000000" font-family="sans-serif" font-size="13" lengthAdjust="spacing" textLength="8" x="575" y="448.2231">}</text><text fill="#000000" font-family="monospace" font-size="13" lengthAdjust="spacing" textLength="48" x="439" y="463.356">result</text><text fill="#000000" font-family="sans-serif" font-size="13" lengthAdjust="spacing" textLength="16" x="487" y="463.356">: {</text><text fill="#000000" font-family="monospace" font-size="13" lengthAdjust="spacing" textLength="32" x="503" y="463.356">code</text><text fill="#000000" font-family="sans-serif" font-size="13" lengthAdjust="spacing" textLength="4" x="535" y="463.356">:</text><text fill="#000000" font-family="monospace" font-size="13" lengthAdjust="spacing" textLength="16" x="543" y="463.356">OK</text><text fill="#000000" font-family="sans-serif" font-size="13" lengthAdjust="spacing" textLength="8" x="559" y="463.356">}</text><line style="stroke:#181818;stroke-width:1.0;" x1="245" x2="287" y1="497.5547" y2="497.5547"/><line style="stroke:#181818;stroke-width:1.0;" x1="287" x2="287" y1="497.5547" y2="510.5547"/><line style="stroke:#181818;stroke-width:1.0;" x1="246" x2="287" y1="510.5547" y2="510.5547"/><polygon fill="#181818" points="256,506.5547,246,510.5547,256,514.5547,252,510.5547" style="stroke:#181818;stroke-width:1.0;"/><text fill="#000000" font-family="sans-serif" font-size="13" font-weight="bold" lengthAdjust="spacing" textLength="9" x="252" y="492.4888">6</text><text fill="#000000" font-family="sans-serif" font-size="13" lengthAdjust="spacing" textLength="92" x="265" y="492.4888">Cache (per ttl)</text><polygon fill="#181818" points="73,554.4023,63,558.4023,73,562.4023,69,558.4023" style="stroke:#181818;stroke-width:1.0;"/><line style="stroke:#181818;stroke-width:1.0;stroke-dasharray:2.0,2.0;" x1="67" x2="244" y1="558.4023" y2="558.4023"/><text fill="#000000" font-family="sans-serif" font-size="13" font-weight="bold" lengthAdjust="spacing" textLength="9" x="79" y="553.3364">7</text><text fill="#000000" font-family="sans-serif" font-size="13" lengthAdjust="spacing" textLength="104" x="92" y="553.3364">FinduEResponse</text><path d="M250,523.5547 L250,579.5547 L415,579.5547 L415,533.5547 L405,523.5547 L250,523.5547 " fill="#FEFFDD" style="stroke:#181818;stroke-width:0.5;"/><path d="M405,523.5547 L405,533.5547 L415,533.5547 L405,523.5547 " fill="#FEFFDD" style="stroke:#181818;stroke-width:0.5;"/><text fill="#000000" font-family="sans-serif" font-size="14" font-weight="bold" lengthAdjust="spacing" textLength="136" x="256" y="541.5498">FinduEResponse:</text><text fill="#000000" font-family="monospace" font-size="13" lengthAdjust="spacing" textLength="32" x="256" y="556.9185">uris</text><text fill="#000000" font-family="sans-serif" font-size="13" lengthAdjust="spacing" textLength="16" x="288" y="556.9185">: {</text><text fill="#000000" font-family="monospace" font-size="13" font-style="italic" lengthAdjust="spacing" textLength="40" x="304" y="556.9185">topic</text><text fill="#000000" font-family="sans-serif" font-size="13" lengthAdjust="spacing" textLength="4" x="344" y="556.9185">,</text><text fill="#000000" font-family="monospace" font-size="13" font-style="italic" lengthAdjust="spacing" textLength="40" x="352" y="556.9185">topic</text><text fill="#000000" font-family="sans-serif" font-size="13" lengthAdjust="spacing" textLength="8" x="392" y="556.9185">}</text><text fill="#000000" font-family="monospace" font-size="13" lengthAdjust="spacing" textLength="48" x="256" y="572.0513">result</text><text fill="#000000" font-family="sans-serif" font-size="13" lengthAdjust="spacing" textLength="16" x="304" y="572.0513">: {</text><text fill="#000000" font-family="monospace" font-size="13" lengthAdjust="spacing" textLength="32" x="320" y="572.0513">code</text><text fill="#000000" font-family="sans-serif" font-size="13" lengthAdjust="spacing" textLength="4" x="352" y="572.0513">:</text><text fill="#000000" font-family="monospace" font-size="13" lengthAdjust="spacing" textLength="16" x="360" y="572.0513">OK</text><text fill="#000000" font-family="sans-serif" font-size="13" lengthAdjust="spacing" textLength="8" x="376" y="572.0513">}</text><line style="stroke:#000000;stroke-width:1.0;stroke-dasharray:2.0,2.0;" x1="20" x2="975" y1="611.1172" y2="611.1172"/><text fill="#000000" font-family="sans-serif" font-size="11" font-weight="bold" lengthAdjust="spacing" textLength="169" x="25" y="621.3276">[Remote Lookup Required]</text><polygon fill="#181818" points="599,642.0547,609,646.0547,599,650.0547,603,646.0547" style="stroke:#181818;stroke-width:1.0;"/><line style="stroke:#181818;stroke-width:1.0;" x1="428" x2="605" y1="646.0547" y2="646.0547"/><text fill="#000000" font-family="sans-serif" font-size="13" font-weight="bold" lengthAdjust="spacing" textLength="9" x="435" y="640.9888">8</text><text fill="#000000" font-family="sans-serif" font-size="13" lengthAdjust="spacing" textLength="146" x="448" y="640.9888">FinduE(FinduERequest)</text><path d="M30,661.0547 L94,661.0547 L94,668.1875 L84,678.1875 L30,678.1875 L30,661.0547 " fill="#EEEEEE" style="stroke:#000000;stroke-width:1.5;"/><rect fill="none" height="384.0234" style="stroke:#000000;stroke-width:1.5;" width="935" x="30" y="661.0547"/><text fill="#000000" font-family="sans-serif" font-size="13" font-weight="bold" lengthAdjust="spacing" textLength="19" x="45" y="674.1216">alt</text><text fill="#000000" font-family="sans-serif" font-size="11" font-weight="bold" lengthAdjust="spacing" textLength="62" x="109" y="673.2651">[Success]</text><polygon fill="#181818" points="439,714.0352,429,718.0352,439,722.0352,435,718.0352" style="stroke:#181818;stroke-width:1.0;"/><line style="stroke:#181818;stroke-width:1.0;stroke-dasharray:2.0,2.0;" x1="433" x2="610" y1="718.0352" y2="718.0352"/><text fill="#000000" font-family="sans-serif" font-size="13" font-weight="bold" lengthAdjust="spacing" textLength="9" x="445" y="712.9692">9</text><text fill="#000000" font-family="sans-serif" font-size="13" lengthAdjust="spacing" textLength="104" x="458" y="712.9692">FinduEResponse</text><path d="M616,683.1875 L616,739.1875 L781,739.1875 L781,693.1875 L771,683.1875 L616,683.1875 " fill="#FEFFDD" style="stroke:#181818;stroke-width:0.5;"/><path d="M771,683.1875 L771,693.1875 L781,693.1875 L771,683.1875 " fill="#FEFFDD" style="stroke:#181818;stroke-width:0.5;"/><text fill="#000000" font-family="sans-serif" font-size="14" font-weight="bold" lengthAdjust="spacing" textLength="136" x="622" y="701.1826">FinduEResponse:</text><text fill="#000000" font-family="monospace" font-size="13" lengthAdjust="spacing" textLength="32" x="622" y="716.5513">uris</text><text fill="#000000" font-family="sans-serif" font-size="13" lengthAdjust="spacing" textLength="16" x="654" y="716.5513">: {</text><text fill="#000000" font-family="monospace" font-size="13" font-style="italic" lengthAdjust="spacing" textLength="40" x="670" y="716.5513">topic</text><text fill="#000000" font-family="sans-serif" font-size="13" lengthAdjust="spacing" textLength="4" x="710" y="716.5513">,</text><text fill="#000000" font-family="monospace" font-size="13" font-style="italic" lengthAdjust="spacing" textLength="40" x="718" y="716.5513">topic</text><text fill="#000000" font-family="sans-serif" font-size="13" lengthAdjust="spacing" textLength="8" x="758" y="716.5513">}</text><text fill="#000000" font-family="monospace" font-size="13" lengthAdjust="spacing" textLength="48" x="622" y="731.6841">result</text><text fill="#000000" font-family="sans-serif" font-size="13" lengthAdjust="spacing" textLength="16" x="670" y="731.6841">: {</text><text fill="#000000" font-family="monospace" font-size="13" lengthAdjust="spacing" textLength="32" x="686" y="731.6841">code</text><text fill="#000000" font-family="sans-serif" font-size="13" lengthAdjust="spacing" textLength="4" x="718" y="731.6841">:</text><text fill="#000000" font-family="monospace" font-size="13" lengthAdjust="spacing" textLength="16" x="726" y="731.6841">OK</text><text fill="#000000" font-family="sans-serif" font-size="13" lengthAdjust="spacing" textLength="8" x="742" y="731.6841">}</text><line style="stroke:#181818;stroke-width:1.0;" x1="428" x2="470" y1="765.8828" y2="765.8828"/><line style="stroke:#181818;stroke-width:1.0;" x1="470" x2="470" y1="765.8828" y2="778.8828"/><line style="stroke:#181818;stroke-width:1.0;" x1="429" x2="470" y1="778.8828" y2="778.8828"/><polygon fill="#181818" points="439,774.8828,429,778.8828,439,782.8828,435,778.8828" style="stroke:#181818;stroke-width:1.0;"/><text fill="#000000" font-family="sans-serif" font-size="13" font-weight="bold" lengthAdjust="spacing" textLength="18" x="435" y="760.8169">10</text><text fill="#000000" font-family="sans-serif" font-size="13" lengthAdjust="spacing" textLength="92" x="457" y="760.8169">Cache (per ttl)</text><polygon fill="#181818" points="256,804.0156,246,808.0156,256,812.0156,252,808.0156" style="stroke:#181818;stroke-width:1.0;"/><line style="stroke:#181818;stroke-width:1.0;stroke-dasharray:2.0,2.0;" x1="250" x2="427" y1="808.0156" y2="808.0156"/><text fill="#000000" font-family="sans-serif" font-size="13" font-weight="bold" lengthAdjust="spacing" textLength="18" x="262" y="802.9497">11</text><text fill="#000000" font-family="sans-serif" font-size="13" lengthAdjust="spacing" textLength="104" x="284" y="802.9497">FinduEResponse</text><line style="stroke:#181818;stroke-width:1.0;" x1="245" x2="287" y1="837.1484" y2="837.1484"/><line style="stroke:#181818;stroke-width:1.0;" x1="287" x2="287" y1="837.1484" y2="850.1484"/><line style="stroke:#181818;stroke-width:1.0;" x1="246" x2="287" y1="850.1484" y2="850.1484"/><polygon fill="#181818" points="256,846.1484,246,850.1484,256,854.1484,252,850.1484" style="stroke:#181818;stroke-width:1.0;"/><text fill="#000000" font-family="sans-serif" font-size="13" font-weight="bold" lengthAdjust="spacing" textLength="18" x="252" y="832.0825">12</text><text fill="#000000" font-family="sans-serif" font-size="13" lengthAdjust="spacing" textLength="92" x="274" y="832.0825">Cache( per ttl)</text><polygon fill="#181818" points="73,893.9961,63,897.9961,73,901.9961,69,897.9961" style="stroke:#181818;stroke-width:1.0;"/><line style="stroke:#181818;stroke-width:1.0;stroke-dasharray:2.0,2.0;" x1="67" x2="244" y1="897.9961" y2="897.9961"/><text fill="#000000" font-family="sans-serif" font-size="13" font-weight="bold" lengthAdjust="spacing" textLength="18" x="79" y="892.9302">13</text><text fill="#000000" font-family="sans-serif" font-size="13" lengthAdjust="spacing" textLength="104" x="101" y="892.9302">FinduEResponse</text><path d="M250,863.1484 L250,919.1484 L415,919.1484 L415,873.1484 L405,863.1484 L250,863.1484 " fill="#FEFFDD" style="stroke:#181818;stroke-width:0.5;"/><path d="M405,863.1484 L405,873.1484 L415,873.1484 L405,863.1484 " fill="#FEFFDD" style="stroke:#181818;stroke-width:0.5;"/><text fill="#000000" font-family="sans-serif" font-size="14" font-weight="bold" lengthAdjust="spacing" textLength="136" x="256" y="881.1436">FinduEResponse:</text><text fill="#000000" font-family="monospace" font-size="13" lengthAdjust="spacing" textLength="32" x="256" y="896.5122">uris</text><text fill="#000000" font-family="sans-serif" font-size="13" lengthAdjust="spacing" textLength="16" x="288" y="896.5122">: {</text><text fill="#000000" font-family="monospace" font-size="13" font-style="italic" lengthAdjust="spacing" textLength="40" x="304" y="896.5122">topic</text><text fill="#000000" font-family="sans-serif" font-size="13" lengthAdjust="spacing" textLength="4" x="344" y="896.5122">,</text><text fill="#000000" font-family="monospace" font-size="13" font-style="italic" lengthAdjust="spacing" textLength="40" x="352" y="896.5122">topic</text><text fill="#000000" font-family="sans-serif" font-size="13" lengthAdjust="spacing" textLength="8" x="392" y="896.5122">}</text><text fill="#000000" font-family="monospace" font-size="13" lengthAdjust="spacing" textLength="48" x="256" y="911.645">result</text><text fill="#000000" font-family="sans-serif" font-size="13" lengthAdjust="spacing" textLength="16" x="304" y="911.645">: {</text><text fill="#000000" font-family="monospace" font-size="13" lengthAdjust="spacing" textLength="32" x="320" y="911.645">code</text><text fill="#000000" font-family="sans-serif" font-size="13" lengthAdjust="spacing" textLength="4" x="352" y="911.645">:</text><text fill="#000000" font-family="monospace" font-size="13" lengthAdjust="spacing" textLength="16" x="360" y="911.645">OK</text><text fill="#000000" font-family="sans-serif" font-size="13" lengthAdjust="spacing" textLength="8" x="376" y="911.645">}</text><line style="stroke:#000000;stroke-width:1.0;stroke-dasharray:2.0,2.0;" x1="30" x2="965" y1="950.7109" y2="950.7109"/><text fill="#000000" font-family="sans-serif" font-size="11" font-weight="bold" lengthAdjust="spacing" textLength="55" x="35" y="960.9214">[Failure]</text><polygon fill="#181818" points="256,992.7969,246,996.7969,256,1000.7969,252,996.7969" style="stroke:#181818;stroke-width:1.0;"/><line style="stroke:#181818;stroke-width:1.0;stroke-dasharray:2.0,2.0;" x1="250" x2="427" y1="996.7969" y2="996.7969"/><text fill="#000000" font-family="sans-serif" font-size="13" font-weight="bold" lengthAdjust="spacing" textLength="18" x="262" y="991.731">14</text><text fill="#000000" font-family="sans-serif" font-size="13" lengthAdjust="spacing" textLength="104" x="284" y="991.731">FinduEResponse</text><path d="M433,969.5156 L433,1010.5156 L950,1010.5156 L950,979.5156 L940,969.5156 L433,969.5156 " fill="#FEFFDD" style="stroke:#181818;stroke-width:0.5;"/><path d="M940,969.5156 L940,979.5156 L950,979.5156 L940,969.5156 " fill="#FEFFDD" style="stroke:#181818;stroke-width:0.5;"/><text fill="#000000" font-family="sans-serif" font-size="14" font-weight="bold" lengthAdjust="spacing" textLength="136" x="439" y="987.5107">FinduEResponse:</text><text fill="#000000" font-family="monospace" font-size="13" lengthAdjust="spacing" textLength="48" x="439" y="1002.8794">result</text><text fill="#000000" font-family="sans-serif" font-size="13" lengthAdjust="spacing" textLength="16" x="487" y="1002.8794">: {</text><text fill="#000000" font-family="monospace" font-size="13" lengthAdjust="spacing" textLength="32" x="503" y="1002.8794">code</text><text fill="#000000" font-family="sans-serif" font-size="13" lengthAdjust="spacing" textLength="4" x="535" y="1002.8794">:</text><text fill="#000000" font-family="monospace" font-size="13" lengthAdjust="spacing" textLength="384" x="543" y="1002.8794">INVALID_ARGUMENT&#160;|&#160;NOT_FOUND&#160;|&#160;PERMISSION_DENIED</text><text fill="#000000" font-family="sans-serif" font-size="13" lengthAdjust="spacing" textLength="8" x="927" y="1002.8794">}</text><polygon fill="#181818" points="73,1033.0781,63,1037.0781,73,1041.0781,69,1037.0781" style="stroke:#181818;stroke-width:1.0;"/><line style="stroke:#181818;stroke-width:1.0;stroke-dasharray:2.0,2.0;" x1="67" x2="244" y1="1037.0781" y2="1037.0781"/><text fill="#000000" font-family="sans-serif" font-size="13" font-weight="bold" lengthAdjust="spacing" textLength="18" x="79" y="1032.0122">15</text><text fill="#000000" font-family="sans-serif" font-size="13" lengthAdjust="spacing" textLength="104" x="101" y="1032.0122">FinduEResponse</text><line style="stroke:#000000;stroke-width:1.0;stroke-dasharray:2.0,2.0;" x1="20" x2="975" y1="1053.0781" y2="1053.0781"/><text fill="#000000" font-family="sans-serif" font-size="11" font-weight="bold" lengthAdjust="spacing" textLength="76" x="25" y="1063.2886">[Not Found]</text><polygon fill="#181818" points="73,1095.1641,63,1099.1641,73,1103.1641,69,1099.1641" style="stroke:#181818;stroke-width:1.0;"/><line style="stroke:#181818;stroke-width:1.0;stroke-dasharray:2.0,2.0;" x1="67" x2="244" y1="1099.1641" y2="1099.1641"/><text fill="#000000" font-family="sans-serif" font-size="13" font-weight="bold" lengthAdjust="spacing" textLength="18" x="79" y="1094.0981">16</text><text fill="#000000" font-family="sans-serif" font-size="13" lengthAdjust="spacing" textLength="104" x="101" y="1094.0981">FinduEResponse</text><path d="M250,1071.8828 L250,1112.8828 L455,1112.8828 L455,1081.8828 L445,1071.8828 L250,1071.8828 " fill="#FEFFDD" style="stroke:#181818;stroke-width:0.5;"/><path d="M445,1071.8828 L445,1081.8828 L455,1081.8828 L445,1071.8828 " fill="#FEFFDD" style="stroke:#181818;stroke-width:0.5;"/><text fill="#000000" font-family="sans-serif" font-size="14" font-weight="bold" lengthAdjust="spacing" textLength="136" x="256" y="1089.8779">FinduEResponse:</text><text fill="#000000" font-family="monospace" font-size="13" lengthAdjust="spacing" textLength="48" x="256" y="1105.2466">result</text><text fill="#000000" font-family="sans-serif" font-size="13" lengthAdjust="spacing" textLength="16" x="304" y="1105.2466">: {</text><text fill="#000000" font-family="monospace" font-size="13" lengthAdjust="spacing" textLength="32" x="320" y="1105.2466">code</text><text fill="#000000" font-family="sans-serif" font-size="13" lengthAdjust="spacing" textLength="4" x="352" y="1105.2466">:</text><text fill="#000000" font-family="monospace" font-size="13" lengthAdjust="spacing" textLength="72" x="360" y="1105.2466">NOT_FOUND</text><text fill="#000000" font-family="sans-serif" font-size="13" lengthAdjust="spacing" textLength="8" x="432" y="1105.2466">}</text><polygon fill="#181818" points="73,1142.4453,63,1146.4453,73,1150.4453,69,1146.4453" style="stroke:#181818;stroke-width:1.0;"/><line style="stroke:#181818;stroke-width:1.0;stroke-dasharray:2.0,2.0;" x1="67" x2="244" y1="1146.4453" y2="1146.4453"/><text fill="#000000" font-family="sans-serif" font-size="13" font-weight="bold" lengthAdjust="spacing" textLength="18" x="79" y="1141.3794">17</text><text fill="#000000" font-family="sans-serif" font-size="13" lengthAdjust="spacing" textLength="104" x="101" y="1141.3794">FinduEResponse</text><!--SRC=[rLPDRzj643s7ls907omP-aZTdDJ0W2fIBX6PCaGfQKx6YXn9Yv1SPdTfMgtxtpEx8cNPbjCSKi0z2ToTZ_VclHteTADreGRzVf6oN9TPsej5rbVujSGyncx2sLgop75EOIIAhUJhZOPMt8Rpj-U_mYNcA5aALq8BgU1oFeN9PEISKlI4nvWhJ40Bq1k4OS5Y-ed4IbTC8en5cITCSv53QnYDsq2VA47aICb2GYOeA1QvbdnPKdL8TmM1y21cc6lL0uWGRVLmEWz6FgnuQj8JhdPfrBxYUaCXN44bv1TOKIMM9Dmq9k0yfuFCmg0yYMic4vwlgN73LLH4KMruGTtcXaSqRg2eNTswAV7SYhAcSS2u7aG7Fb8TG_UyznPQ540vRdtfjd-poHdRGYuqb0eVQWFUnLXemagmiYBbZ8IXv9hPlWC1_5pN44lDA9nP7Y1MXs70j1K8ZF2aUrLLFMQXzeHSznjk_GaDD8pyBi6ryOiyHQLeHbzBBccmoosmWj34R4aOKrOPrQmuLdDgNqaQSxxkKB9gP3-Kvc5K3JHYV1X0ms965tSOGH2vyFim2g8EV0hcVqmNS_WqdCs6uJpm8vZEO3GDlM0UJ4Fw6iCm_4o97uBGwm3IeAWHtXNIC22Ot8mHamC3DGYCFtRQg09Zlk8nKSlN9LiZhCKjojpOeq2PSMNKL8Gm8KDaN5iNASfyngjd1nXTUtzsnoJe_Y7DyKuFll-I7hBcsm8744qNiv7VdDVrkq52xu70eXpKjhEoEGwZfvENsHAbuop57PGUtb8Ed5GRhj5vCn9fYh453gMlu8IKTTwOOdeBvSIBu4H8ueyFXzwnmz718T90g9TJtnrUEQP7zy9M7i2OvqdfjtO_CxDnb6uxv7y4EnxdlU9_uU2NTnTdPu-21cTdx_lcxi9ntL9orns0w_RxMXGyxlTTrs8mXMW2gTxj6fY8cANfrh6qkWQ5hneGCrG5pG3_fVikw6bxPVh__GX0vp6UVoYGl5UckWwDHO8xrDCFvdgFz_x-ti6KZ1Zajopb2GpbkZJRpjZsUcyxy30d0_zaBWr488nm2388FmudWNSpd5qkhlnm3lTmxS-kWYYYztRZ-M7WUvHsZCSCCmDZ8iINie1PlJrgu1VMJYyvmKWNbN5CZzQnjki-iSwhKMtFne8RsRtVAimIq6dxVsAubuJoQcgZ7nHgr93rNgDGtg7jdWdrNPCTYWnrSWkEgWolL-OnusafyMS_g1TG75aSz5VjPZnTXDxn9VBiLRtmRamK-SxPiGf5lUN_eutuXDQUmoEyUqW_0lmR]--></g></svg>