<?xml version="1.0" encoding="us-ascii" standalone="no"?><svg xmlns="http://www.w3.org/2000/svg" xmlns:xlink="http://www.w3.org/1999/xlink" contentStyleType="text/css" height="905px" preserveAspectRatio="none" style="width:797px;height:905px;background:#FFFFFF;" version="1.1" viewBox="0 0 797 905" width="797px" zoomAndPan="magnify"><defs/><g><rect fill="#FFFFFF" height="893.9189" style="stroke:#181818;stroke-width:0.5;" width="68" x="13.5" y="6"/><text fill="#000000" font-family="sans-serif" font-size="13" font-weight="bold" lengthAdjust="spacing" textLength="58" x="16.5" y="20.0283">uDevice2</text><rect fill="#FFFFFF" height="893.9189" style="stroke:#181818;stroke-width:0.5;" width="221" x="216.5" y="6"/><text fill="#000000" font-family="sans-serif" font-size="13" font-weight="bold" lengthAdjust="spacing" textLength="58" x="296" y="20.0283">uDevice1</text><rect fill="none" height="311.0474" style="stroke:#000000;stroke-width:1.5;" width="590.5" x="200.5" y="122.9121"/><rect fill="none" height="205.9312" style="stroke:#000000;stroke-width:1.5;" width="476.5" x="210.5" y="221.0283"/><rect fill="none" height="328.3384" style="stroke:#000000;stroke-width:1.5;" width="574" x="10" y="472.9595"/><rect fill="none" height="205.9312" style="stroke:#000000;stroke-width:1.5;" width="490" x="20" y="588.3667"/><line style="stroke:#181818;stroke-width:0.5;stroke-dasharray:5.0,5.0;" x1="47" x2="47" y1="105.9121" y2="818.2979"/><line style="stroke:#181818;stroke-width:0.5;stroke-dasharray:5.0,5.0;" x1="236.5" x2="236.5" y1="105.9121" y2="818.2979"/><line style="stroke:#181818;stroke-width:0.5;stroke-dasharray:5.0,5.0;" x1="413.5" x2="413.5" y1="105.9121" y2="818.2979"/><text fill="#000000" font-family="sans-serif" font-size="14" lengthAdjust="spacing" textLength="29" x="30" y="102.3984">CDS</text><ellipse cx="47.5" cy="35.791" fill="#FFA500" rx="8" ry="8" style="stroke:#181818;stroke-width:0.5;"/><path d="M47.5,43.791 L47.5,70.791 M34.5,51.791 L60.5,51.791 M47.5,70.791 L34.5,85.791 M47.5,70.791 L60.5,85.791 " fill="none" style="stroke:#181818;stroke-width:0.5;"/><text fill="#000000" font-family="sans-serif" font-size="14" lengthAdjust="spacing" textLength="29" x="30" y="832.4053">CDS</text><ellipse cx="47.5" cy="844.4189" fill="#FFA500" rx="8" ry="8" style="stroke:#181818;stroke-width:0.5;"/><path d="M47.5,852.4189 L47.5,879.4189 M34.5,860.4189 L60.5,860.4189 M47.5,879.4189 L34.5,894.4189 M47.5,879.4189 L60.5,894.4189 " fill="none" style="stroke:#181818;stroke-width:0.5;"/><text fill="#000000" font-family="sans-serif" font-size="14" lengthAdjust="spacing" textLength="27" x="220.5" y="102.3984">LDS</text><ellipse cx="237" cy="71.291" fill="#FFA500" rx="12" ry="12" style="stroke:#181818;stroke-width:0.5;"/><line style="stroke:#181818;stroke-width:0.5;" x1="225" x2="249" y1="85.291" y2="85.291"/><text fill="#000000" font-family="sans-serif" font-size="14" lengthAdjust="spacing" textLength="27" x="220.5" y="832.4053">LDS</text><ellipse cx="237" cy="851.9189" fill="#FFA500" rx="12" ry="12" style="stroke:#181818;stroke-width:0.5;"/><line style="stroke:#181818;stroke-width:0.5;" x1="225" x2="249" y1="865.9189" y2="865.9189"/><text fill="#000000" font-family="sans-serif" font-size="14" lengthAdjust="spacing" textLength="33" x="394.5" y="102.3984">uApp</text><ellipse cx="414" cy="35.791" fill="#FF0000" rx="8" ry="8" style="stroke:#181818;stroke-width:0.5;"/><path d="M414,43.791 L414,70.791 M401,51.791 L427,51.791 M414,70.791 L401,85.791 M414,70.791 L427,85.791 " fill="none" style="stroke:#181818;stroke-width:0.5;"/><text fill="#000000" font-family="sans-serif" font-size="14" lengthAdjust="spacing" textLength="33" x="394.5" y="832.4053">uApp</text><ellipse cx="414" cy="844.4189" fill="#FF0000" rx="8" ry="8" style="stroke:#181818;stroke-width:0.5;"/><path d="M414,852.4189 L414,879.4189 M401,860.4189 L427,860.4189 M414,879.4189 L401,894.4189 M414,879.4189 L427,894.4189 " fill="none" style="stroke:#181818;stroke-width:0.5;"/><path d="M200.5,122.9121 L404.5,122.9121 L404.5,132.2031 L394.5,142.2031 L200.5,142.2031 L200.5,122.9121 " fill="#EEEEEE" style="stroke:#000000;stroke-width:1.5;"/><rect fill="none" height="311.0474" style="stroke:#000000;stroke-width:1.5;" width="590.5" x="200.5" y="122.9121"/><text fill="#000000" font-family="sans-serif" font-size="13" font-weight="bold" lengthAdjust="spacing" textLength="159" x="215.5" y="137.9404">uApp to LDS Registration</text><polygon fill="#181818" points="248,190.4067,238,194.4067,248,198.4067,244,194.4067" style="stroke:#181818;stroke-width:1.0;"/><line style="stroke:#181818;stroke-width:1.0;" x1="242" x2="413" y1="194.4067" y2="194.4067"/><text fill="#000000" font-family="sans-serif" font-size="13" font-weight="bold" lengthAdjust="spacing" textLength="7" x="254" y="180.4985">1</text><text fill="#000000" font-family="sans-serif" font-size="13" lengthAdjust="spacing" textLength="142" x="265" y="171.853">RegisterForNotifications(</text><text fill="#000000" font-family="sans-serif" font-size="13" lengthAdjust="spacing" textLength="123" x="265" y="189.144">NotificationsRequest)</text><path d="M419,147.2031 L419,208.2031 L776,208.2031 L776,157.2031 L766,147.2031 L419,147.2031 " fill="#FEFFDD" style="stroke:#181818;stroke-width:0.5;"/><path d="M766,147.2031 L766,157.2031 L776,157.2031 L766,147.2031 " fill="#FEFFDD" style="stroke:#181818;stroke-width:0.5;"/><text fill="#000000" font-family="sans-serif" font-size="12" font-weight="bold" lengthAdjust="spacing" textLength="121" x="425" y="165.1523">NotificationsRequest:</text><text fill="#000000" font-family="monospace" font-size="13" lengthAdjust="spacing" textLength="32" x="425" y="182.1924">uris</text><text fill="#000000" font-family="sans-serif" font-size="13" lengthAdjust="spacing" textLength="39" x="457" y="182.8335">: [ "up:</text><text fill="#000000" font-family="sans-serif" font-size="13" font-style="italic" lengthAdjust="spacing" textLength="147" x="496" y="182.8335">Device1/uService/1", "up:</text><text fill="#000000" font-family="sans-serif" font-size="13" lengthAdjust="spacing" textLength="118" x="643" y="182.8335">Device2/uService/1"]</text><text fill="#000000" font-family="monospace" font-size="13" lengthAdjust="spacing" textLength="64" x="425" y="200.1245">observer</text><text fill="#000000" font-family="sans-serif" font-size="13" lengthAdjust="spacing" textLength="187" x="489" y="200.7656">: { ""uri": "up://Device1/uApp/1" }</text><path d="M210.5,221.0283 L271.5,221.0283 L271.5,230.3193 L261.5,240.3193 L210.5,240.3193 L210.5,221.0283 " fill="#EEEEEE" style="stroke:#000000;stroke-width:1.5;"/><rect fill="none" height="205.9312" style="stroke:#000000;stroke-width:1.5;" width="476.5" x="210.5" y="221.0283"/><text fill="#000000" font-family="sans-serif" font-size="13" font-weight="bold" lengthAdjust="spacing" textLength="16" x="225.5" y="236.0566">alt</text><text fill="#000000" font-family="sans-serif" font-size="11" font-weight="bold" lengthAdjust="spacing" textLength="55" x="286.5" y="234.8984">[Success]</text><line style="stroke:#181818;stroke-width:1.0;" x1="237" x2="279" y1="263.6104" y2="263.6104"/><line style="stroke:#181818;stroke-width:1.0;" x1="279" x2="279" y1="263.6104" y2="276.6104"/><line style="stroke:#181818;stroke-width:1.0;" x1="238" x2="279" y1="276.6104" y2="276.6104"/><polygon fill="#181818" points="248,272.6104,238,276.6104,248,280.6104,244,276.6104" style="stroke:#181818;stroke-width:1.0;"/><text fill="#000000" font-family="sans-serif" font-size="13" font-weight="bold" lengthAdjust="spacing" textLength="7" x="244" y="258.3477">2</text><text fill="#000000" font-family="sans-serif" font-size="13" lengthAdjust="spacing" textLength="144" x="255" y="258.3477">Save NotificationRequest</text><polygon fill="#181818" points="402,315.2024,412,319.2024,402,323.2024,406,319.2024" style="stroke:#181818;stroke-width:1.0;"/><line style="stroke:#181818;stroke-width:1.0;stroke-dasharray:2.0,2.0;" x1="237" x2="408" y1="319.2024" y2="319.2024"/><text fill="#000000" font-family="sans-serif" font-size="13" font-weight="bold" lengthAdjust="spacing" textLength="7" x="244" y="313.9397">3</text><text fill="#000000" font-family="sans-serif" font-size="13" lengthAdjust="spacing" textLength="38" x="255" y="313.9397">Status</text><path d="M419,289.6104 L419,332.6104 L496,332.6104 L496,299.6104 L486,289.6104 L419,289.6104 " fill="#FEFFDD" style="stroke:#181818;stroke-width:0.5;"/><path d="M486,289.6104 L486,299.6104 L496,299.6104 L486,289.6104 " fill="#FEFFDD" style="stroke:#181818;stroke-width:0.5;"/><text fill="#000000" font-family="sans-serif" font-size="12" font-weight="bold" lengthAdjust="spacing" textLength="40" x="425" y="307.5596">Status:</text><text fill="#000000" font-family="monospace" font-size="13" lengthAdjust="spacing" textLength="32" x="425" y="324.5996">code</text><text fill="#000000" font-family="sans-serif" font-size="13" lengthAdjust="spacing" textLength="4" x="457" y="325.2407">:</text><text fill="#000000" font-family="monospace" font-size="13" lengthAdjust="spacing" textLength="16" x="465" y="324.5996">OK</text><line style="stroke:#000000;stroke-width:1.0;stroke-dasharray:2.0,2.0;" x1="210.5" x2="687" y1="339.5034" y2="339.5034"/><text fill="#000000" font-family="sans-serif" font-size="11" font-weight="bold" lengthAdjust="spacing" textLength="36" x="215.5" y="351.3735">[Error]</text><polygon fill="#181818" points="402,394.6924,412,398.6924,402,402.6924,406,398.6924" style="stroke:#181818;stroke-width:1.0;"/><line style="stroke:#181818;stroke-width:1.0;stroke-dasharray:2.0,2.0;" x1="237" x2="408" y1="398.6924" y2="398.6924"/><text fill="#000000" font-family="sans-serif" font-size="13" font-weight="bold" lengthAdjust="spacing" textLength="7" x="244" y="393.4297">4</text><text fill="#000000" font-family="sans-serif" font-size="13" lengthAdjust="spacing" textLength="38" x="255" y="393.4297">Status</text><path d="M419,360.1343 L419,421.1343 L672,421.1343 L672,370.1343 L662,360.1343 L419,360.1343 " fill="#FEFFDD" style="stroke:#181818;stroke-width:0.5;"/><path d="M662,360.1343 L662,370.1343 L672,370.1343 L662,360.1343 " fill="#FEFFDD" style="stroke:#181818;stroke-width:0.5;"/><text fill="#000000" font-family="sans-serif" font-size="12" font-weight="bold" lengthAdjust="spacing" textLength="40" x="425" y="378.0835">Status:</text><text fill="#000000" font-family="monospace" font-size="13" lengthAdjust="spacing" textLength="32" x="425" y="395.1235">code</text><text fill="#000000" font-family="sans-serif" font-size="13" lengthAdjust="spacing" textLength="4" x="457" y="395.7646">:</text><text fill="#000000" font-family="monospace" font-size="13" lengthAdjust="spacing" textLength="144" x="465" y="395.1235">INVALID_ARGUMENT&#160;|</text><text fill="#000000" font-family="monospace" font-size="13" lengthAdjust="spacing" textLength="232" x="425" y="413.0557">NOT_FOUND&#160;|&#160;PERMISSION_DENIED</text><path d="M10,472.9595 L208,472.9595 L208,482.2505 L198,492.2505 L10,492.2505 L10,472.9595 " fill="#EEEEEE" style="stroke:#000000;stroke-width:1.5;"/><rect fill="none" height="328.3384" style="stroke:#000000;stroke-width:1.5;" width="574" x="10" y="472.9595"/><text fill="#000000" font-family="sans-serif" font-size="13" font-weight="bold" lengthAdjust="spacing" textLength="153" x="25" y="487.9878">LDS to CDS Registration</text><polygon fill="#181818" points="58.5,549.0996,48.5,553.0996,58.5,557.0996,54.5,553.0996" style="stroke:#181818;stroke-width:1.0;"/><line style="stroke:#181818;stroke-width:1.0;" x1="52.5" x2="236" y1="553.0996" y2="553.0996"/><text fill="#000000" font-family="sans-serif" font-size="13" font-weight="bold" lengthAdjust="spacing" textLength="7" x="64.5" y="539.1914">5</text><text fill="#000000" font-family="sans-serif" font-size="13" lengthAdjust="spacing" textLength="142" x="75.5" y="530.5459">RegisterForNotifications(</text><text fill="#000000" font-family="sans-serif" font-size="13" lengthAdjust="spacing" textLength="123" x="75.5" y="547.8369">NotificationsRequest)</text><path d="M242,497.2505 L242,576.2505 L569,576.2505 L569,507.2505 L559,497.2505 L242,497.2505 " fill="#FEFFDD" style="stroke:#181818;stroke-width:0.5;"/><path d="M559,497.2505 L559,507.2505 L569,507.2505 L559,497.2505 " fill="#FEFFDD" style="stroke:#181818;stroke-width:0.5;"/><text fill="#000000" font-family="sans-serif" font-size="12" font-weight="bold" lengthAdjust="spacing" textLength="121" x="248" y="515.1997">NotificationsRequest:</text><text fill="#000000" font-family="monospace" font-size="13" lengthAdjust="spacing" textLength="32" x="248" y="532.2397">uris</text><text fill="#000000" font-family="sans-serif" font-size="13" lengthAdjust="spacing" textLength="153" x="280" y="532.8809">: "up://Device2/uSerivce/1"</text><text fill="#000000" font-family="monospace" font-size="13" lengthAdjust="spacing" textLength="64" x="248" y="550.1719">observer</text><text fill="#000000" font-family="sans-serif" font-size="13" lengthAdjust="spacing" textLength="12" x="312" y="550.813">: {</text><text fill="#000000" font-family="monospace" font-size="13" lengthAdjust="spacing" textLength="24" x="328" y="550.1719">uri</text><text fill="#000000" font-family="sans-serif" font-size="13" lengthAdjust="spacing" textLength="202" x="352" y="550.813">: "up://Device1/core.udiscovery/2" }</text><text fill="#000000" font-family="sans-serif" font-size="13" lengthAdjust="spacing" textLength="4" x="248" y="568.104">}</text><path d="M20,588.3667 L81,588.3667 L81,597.6577 L71,607.6577 L20,607.6577 L20,588.3667 " fill="#EEEEEE" style="stroke:#000000;stroke-width:1.5;"/><rect fill="none" height="205.9312" style="stroke:#000000;stroke-width:1.5;" width="490" x="20" y="588.3667"/><text fill="#000000" font-family="sans-serif" font-size="13" font-weight="bold" lengthAdjust="spacing" textLength="16" x="35" y="603.395">alt</text><text fill="#000000" font-family="sans-serif" font-size="11" font-weight="bold" lengthAdjust="spacing" textLength="55" x="96" y="602.2368">[Success]</text><line style="stroke:#181818;stroke-width:1.0;" x1="47.5" x2="89.5" y1="630.9487" y2="630.9487"/><line style="stroke:#181818;stroke-width:1.0;" x1="89.5" x2="89.5" y1="630.9487" y2="643.9487"/><line style="stroke:#181818;stroke-width:1.0;" x1="48.5" x2="89.5" y1="643.9487" y2="643.9487"/><polygon fill="#181818" points="58.5,639.9487,48.5,643.9487,58.5,647.9487,54.5,643.9487" style="stroke:#181818;stroke-width:1.0;"/><text fill="#000000" font-family="sans-serif" font-size="13" font-weight="bold" lengthAdjust="spacing" textLength="7" x="54.5" y="625.686">6</text><text fill="#000000" font-family="sans-serif" font-size="13" lengthAdjust="spacing" textLength="144" x="65.5" y="625.686">Save NotificationRequest</text><polygon fill="#181818" points="225,682.5408,235,686.5408,225,690.5408,229,686.5408" style="stroke:#181818;stroke-width:1.0;"/><line style="stroke:#181818;stroke-width:1.0;stroke-dasharray:2.0,2.0;" x1="47.5" x2="231" y1="686.5408" y2="686.5408"/><text fill="#000000" font-family="sans-serif" font-size="13" font-weight="bold" lengthAdjust="spacing" textLength="7" x="54.5" y="681.2781">7</text><text fill="#000000" font-family="sans-serif" font-size="13" lengthAdjust="spacing" textLength="38" x="65.5" y="681.2781">Status</text><path d="M242,656.9487 L242,699.9487 L319,699.9487 L319,666.9487 L309,656.9487 L242,656.9487 " fill="#FEFFDD" style="stroke:#181818;stroke-width:0.5;"/><path d="M309,656.9487 L309,666.9487 L319,666.9487 L309,656.9487 " fill="#FEFFDD" style="stroke:#181818;stroke-width:0.5;"/><text fill="#000000" font-family="sans-serif" font-size="12" font-weight="bold" lengthAdjust="spacing" textLength="40" x="248" y="674.8979">Status:</text><text fill="#000000" font-family="monospace" font-size="13" lengthAdjust="spacing" textLength="32" x="248" y="691.938">code</text><text fill="#000000" font-family="sans-serif" font-size="13" lengthAdjust="spacing" textLength="4" x="280" y="692.5791">:</text><text fill="#000000" font-family="monospace" font-size="13" lengthAdjust="spacing" textLength="16" x="288" y="691.938">OK</text><line style="stroke:#000000;stroke-width:1.0;stroke-dasharray:2.0,2.0;" x1="20" x2="510" y1="706.8418" y2="706.8418"/><text fill="#000000" font-family="sans-serif" font-size="11" font-weight="bold" lengthAdjust="spacing" textLength="36" x="25" y="718.7119">[Error]</text><polygon fill="#181818" points="225,762.0308,235,766.0308,225,770.0308,229,766.0308" style="stroke:#181818;stroke-width:1.0;"/><line style="stroke:#181818;stroke-width:1.0;stroke-dasharray:2.0,2.0;" x1="47.5" x2="231" y1="766.0308" y2="766.0308"/><text fill="#000000" font-family="sans-serif" font-size="13" font-weight="bold" lengthAdjust="spacing" textLength="7" x="54.5" y="760.7681">8</text><text fill="#000000" font-family="sans-serif" font-size="13" lengthAdjust="spacing" textLength="38" x="65.5" y="760.7681">Status</text><path d="M242,727.4727 L242,788.4727 L495,788.4727 L495,737.4727 L485,727.4727 L242,727.4727 " fill="#FEFFDD" style="stroke:#181818;stroke-width:0.5;"/><path d="M485,727.4727 L485,737.4727 L495,737.4727 L485,727.4727 " fill="#FEFFDD" style="stroke:#181818;stroke-width:0.5;"/><text fill="#000000" font-family="sans-serif" font-size="12" font-weight="bold" lengthAdjust="spacing" textLength="40" x="248" y="745.4219">Status:</text><text fill="#000000" font-family="monospace" font-size="13" lengthAdjust="spacing" textLength="32" x="248" y="762.4619">code</text><text fill="#000000" font-family="sans-serif" font-size="13" lengthAdjust="spacing" textLength="4" x="280" y="763.103">:</text><text fill="#000000" font-family="monospace" font-size="13" lengthAdjust="spacing" textLength="144" x="288" y="762.4619">INVALID_ARGUMENT&#160;|</text><text fill="#000000" font-family="monospace" font-size="13" lengthAdjust="spacing" textLength="232" x="248" y="780.394">NOT_FOUND&#160;|&#160;PERMISSION_DENIED</text><!--SRC=[hPDFRzf04CNFtaynCeUsgCI2enKX8KmggucfS99BMo6pdi9Au7Nt3srQvxjtrZZ1G93QAfoMtJTlPzx-_6PbJAd382ZNMM7iPdt1vIRG-DrYmR6NYsofiWrZcJMoi9i5AiOMyYVO2BU2um0wFrR280FwPTn81UCeXOvKMR54XaKEf6vNz9ygF2oCC0zmJVfCGwlAsndPKLb2Hs7kR9pBKabRxhQDhEjck1JQgCm8MJ2lFkaDepHi3b1TIPL88xu9Nclqso_5mV-P6rIRTymhf45GOhaopFCkjVY5ONymx7PVaeVTxcNW94FI-hvLGlj-29_1joL5sGmQs1ILMmLz__t1qQ1zzBNsa0jDEwYSps-eFMbrv4VpKG4ykknoS1rJLci3gUKSjIOZogGt19T0ccqHsiqtlJSYKZaxqfdCM5Tw440xWPtYO6PgcCiSNRE-F_te-xItRmdN6c6Yb5JCWzU-BKxkHzTnD1_DFjpTJ99RgEhRIPDCR-TNqxiaWWe-JMOtSPh6qsGUJP9u4XstI2jApf75ggfgq7984LdZOx9sgOx_2wpseF-0rPwgKt34jWQ7dS7cX1ik5LxON6WkIVeG36g47jbp70SCZLlJdeTet3nhhMeUzTmdzCAJdlBpt4oB7dZDQyw0ynVSx5jhKVC7]--></g></svg>