<?xml version="1.0" encoding="us-ascii" standalone="no"?><svg xmlns="http://www.w3.org/2000/svg" xmlns:xlink="http://www.w3.org/1999/xlink" contentStyleType="text/css" height="786px" preserveAspectRatio="none" style="width:686px;height:786px;background:#FFFFFF;" version="1.1" viewBox="0 0 686 786" width="686px" zoomAndPan="magnify"><defs/><g><rect fill="#FFFFFF" height="774.6196" style="stroke:#181818;stroke-width:0.5;" width="60" x="17.5" y="6"/><text fill="#000000" font-family="sans-serif" font-size="13" font-weight="bold" lengthAdjust="spacing" textLength="50" x="20.5" y="20.0283">Device2</text><rect fill="#FFFFFF" height="774.6196" style="stroke:#181818;stroke-width:0.5;" width="262" x="250.5" y="6"/><text fill="#000000" font-family="sans-serif" font-size="13" font-weight="bold" lengthAdjust="spacing" textLength="50" x="354.5" y="20.0283">Device1</text><rect fill="none" height="317.2808" style="stroke:#000000;stroke-width:1.5;" width="670" x="10" y="364.7178"/><rect fill="none" height="162.9414" style="stroke:#000000;stroke-width:1.5;" width="460" x="20" y="512.0571"/><line style="stroke:#181818;stroke-width:0.5;stroke-dasharray:5.0,5.0;" x1="47" x2="47" y1="105.9121" y2="698.9985"/><line style="stroke:#181818;stroke-width:0.5;stroke-dasharray:5.0,5.0;" x1="270.5" x2="270.5" y1="105.9121" y2="698.9985"/><line style="stroke:#181818;stroke-width:0.5;stroke-dasharray:5.0,5.0;" x1="428.5" x2="428.5" y1="105.9121" y2="698.9985"/><line style="stroke:#181818;stroke-width:0.5;stroke-dasharray:5.0,5.0;" x1="488.5" x2="488.5" y1="105.9121" y2="698.9985"/><text fill="#000000" font-family="sans-serif" font-size="14" lengthAdjust="spacing" textLength="29" x="30" y="102.3984">CDS</text><ellipse cx="47.5" cy="35.791" fill="#FFA500" rx="8" ry="8" style="stroke:#181818;stroke-width:0.5;"/><path d="M47.5,43.791 L47.5,70.791 M34.5,51.791 L60.5,51.791 M47.5,70.791 L34.5,85.791 M47.5,70.791 L60.5,85.791 " fill="none" style="stroke:#181818;stroke-width:0.5;"/><text fill="#000000" font-family="sans-serif" font-size="14" lengthAdjust="spacing" textLength="29" x="30" y="713.106">CDS</text><ellipse cx="47.5" cy="725.1196" fill="#FFA500" rx="8" ry="8" style="stroke:#181818;stroke-width:0.5;"/><path d="M47.5,733.1196 L47.5,760.1196 M34.5,741.1196 L60.5,741.1196 M47.5,760.1196 L34.5,775.1196 M47.5,760.1196 L60.5,775.1196 " fill="none" style="stroke:#181818;stroke-width:0.5;"/><text fill="#000000" font-family="sans-serif" font-size="14" lengthAdjust="spacing" textLength="27" x="254.5" y="102.3984">LDS</text><ellipse cx="271" cy="71.291" fill="#FFA500" rx="12" ry="12" style="stroke:#181818;stroke-width:0.5;"/><line style="stroke:#181818;stroke-width:0.5;" x1="259" x2="283" y1="85.291" y2="85.291"/><text fill="#000000" font-family="sans-serif" font-size="14" lengthAdjust="spacing" textLength="27" x="254.5" y="713.106">LDS</text><ellipse cx="271" cy="732.6196" fill="#FFA500" rx="12" ry="12" style="stroke:#181818;stroke-width:0.5;"/><line style="stroke:#181818;stroke-width:0.5;" x1="259" x2="283" y1="746.6196" y2="746.6196"/><text fill="#000000" font-family="sans-serif" font-size="14" lengthAdjust="spacing" textLength="55" x="398.5" y="102.3984">uService</text><ellipse cx="429" cy="71.291" fill="#0000FF" rx="12" ry="12" style="stroke:#181818;stroke-width:0.5;"/><line style="stroke:#181818;stroke-width:0.5;" x1="417" x2="441" y1="85.291" y2="85.291"/><text fill="#000000" font-family="sans-serif" font-size="14" lengthAdjust="spacing" textLength="55" x="398.5" y="713.106">uService</text><ellipse cx="429" cy="732.6196" fill="#0000FF" rx="12" ry="12" style="stroke:#181818;stroke-width:0.5;"/><line style="stroke:#181818;stroke-width:0.5;" x1="417" x2="441" y1="746.6196" y2="746.6196"/><text fill="#000000" font-family="sans-serif" font-size="14" lengthAdjust="spacing" textLength="33" x="469.5" y="102.3984">uApp</text><ellipse cx="489" cy="35.791" fill="#FF0000" rx="8" ry="8" style="stroke:#181818;stroke-width:0.5;"/><path d="M489,43.791 L489,70.791 M476,51.791 L502,51.791 M489,70.791 L476,85.791 M489,70.791 L502,85.791 " fill="none" style="stroke:#181818;stroke-width:0.5;"/><text fill="#000000" font-family="sans-serif" font-size="14" lengthAdjust="spacing" textLength="33" x="469.5" y="713.106">uApp</text><ellipse cx="489" cy="725.1196" fill="#FF0000" rx="8" ry="8" style="stroke:#181818;stroke-width:0.5;"/><path d="M489,733.1196 L489,760.1196 M476,741.1196 L502,741.1196 M489,760.1196 L476,775.1196 M489,760.1196 L502,775.1196 " fill="none" style="stroke:#181818;stroke-width:0.5;"/><polygon fill="#181818" points="282,164.1157,272,168.1157,282,172.1157,278,168.1157" style="stroke:#181818;stroke-width:1.0;"/><line style="stroke:#181818;stroke-width:1.0;" x1="276" x2="428" y1="168.1157" y2="168.1157"/><text fill="#000000" font-family="sans-serif" font-size="13" font-weight="bold" lengthAdjust="spacing" textLength="7" x="288" y="154.2075">1</text><text fill="#000000" font-family="sans-serif" font-size="13" lengthAdjust="spacing" textLength="75" x="299" y="145.562">UpdateNode(</text><text fill="#000000" font-family="sans-serif" font-size="13" lengthAdjust="spacing" textLength="123" x="299" y="162.853">UpdateNodeRequest)</text><path d="M434,120.9121 L434,181.9121 L612,181.9121 L612,130.9121 L602,120.9121 L434,120.9121 " fill="#FEFFDD" style="stroke:#181818;stroke-width:0.5;"/><path d="M602,120.9121 L602,130.9121 L612,130.9121 L602,120.9121 " fill="#FEFFDD" style="stroke:#181818;stroke-width:0.5;"/><text fill="#000000" font-family="sans-serif" font-size="12" font-weight="bold" lengthAdjust="spacing" textLength="119" x="440" y="138.8613">UpdateNodeRequest:</text><text fill="#000000" font-family="monospace" font-size="13" lengthAdjust="spacing" textLength="32" x="440" y="155.9014">node</text><text fill="#000000" font-family="sans-serif" font-size="13" lengthAdjust="spacing" textLength="4" x="476" y="156.5425">{</text><text fill="#000000" font-family="sans-serif" font-size="13" font-style="italic" lengthAdjust="spacing" textLength="77" x="484" y="156.5425">Changed Info</text><text fill="#000000" font-family="sans-serif" font-size="13" lengthAdjust="spacing" textLength="4" x="593" y="156.5425">}</text><text fill="#000000" font-family="monospace" font-size="13" lengthAdjust="spacing" textLength="24" x="440" y="173.8335">ttl</text><text fill="#000000" font-family="sans-serif" font-size="13" lengthAdjust="spacing" textLength="19" x="464" y="174.4746">: -1</text><line style="stroke:#181818;stroke-width:1.0;" x1="271" x2="313" y1="234.4265" y2="234.4265"/><line style="stroke:#181818;stroke-width:1.0;" x1="313" x2="313" y1="234.4265" y2="247.4265"/><line style="stroke:#181818;stroke-width:1.0;" x1="272" x2="313" y1="247.4265" y2="247.4265"/><polygon fill="#181818" points="282,243.4265,272,247.4265,282,251.4265,278,247.4265" style="stroke:#181818;stroke-width:1.0;"/><text fill="#000000" font-family="sans-serif" font-size="13" font-weight="bold" lengthAdjust="spacing" textLength="7" x="278" y="229.1638">2</text><text fill="#000000" font-family="sans-serif" font-size="13" lengthAdjust="spacing" textLength="75" x="289" y="229.1638">Update Node</text><path d="M376,192.7373 L376,273.7373 L570,273.7373 L570,202.7373 L560,192.7373 L376,192.7373 " fill="#FEFFDD" style="stroke:#181818;stroke-width:0.5;"/><path d="M560,192.7373 L560,202.7373 L570,202.7373 L560,192.7373 " fill="#FEFFDD" style="stroke:#181818;stroke-width:0.5;"/><text fill="#000000" font-family="sans-serif" font-size="12" font-weight="bold" lengthAdjust="spacing" textLength="88" x="414" y="212.0166">Node Metadata:</text><text fill="#000000" font-family="sans-serif" font-size="13" lengthAdjust="spacing" textLength="26" x="382" y="229.6978">save</text><text fill="#000000" font-family="monospace" font-size="13" font-style="italic" lengthAdjust="spacing" textLength="24" x="412" y="229.0566">ttl</text><text fill="#000000" font-family="monospace" font-size="13" font-style="italic" lengthAdjust="spacing" textLength="96" x="382" y="246.9888">last_updated</text><text fill="#000000" font-family="sans-serif" font-size="13" lengthAdjust="spacing" textLength="8" x="478" y="247.6299">=</text><text fill="#000000" font-family="sans-serif" font-size="13" font-style="italic" lengthAdjust="spacing" textLength="69" x="486" y="247.6299">current time</text><text fill="#000000" font-family="monospace" font-size="13" font-style="italic" lengthAdjust="spacing" textLength="64" x="414" y="264.9209">inactive</text><text fill="#000000" font-family="sans-serif" font-size="13" lengthAdjust="spacing" textLength="8" x="478" y="265.562">=</text><text fill="#000000" font-family="monospace" font-size="13" lengthAdjust="spacing" textLength="40" x="486" y="264.9209">false</text><polygon fill="#181818" points="417,309.4167,427,313.4167,417,317.4167,421,313.4167" style="stroke:#181818;stroke-width:1.0;"/><line style="stroke:#181818;stroke-width:1.0;stroke-dasharray:2.0,2.0;" x1="271" x2="423" y1="313.4167" y2="313.4167"/><text fill="#000000" font-family="sans-serif" font-size="13" font-weight="bold" lengthAdjust="spacing" textLength="7" x="278" y="308.1541">3</text><text fill="#000000" font-family="sans-serif" font-size="13" lengthAdjust="spacing" textLength="38" x="289" y="308.1541">Status</text><path d="M434,283.8247 L434,326.8247 L511,326.8247 L511,293.8247 L501,283.8247 L434,283.8247 " fill="#FEFFDD" style="stroke:#181818;stroke-width:0.5;"/><path d="M501,283.8247 L501,293.8247 L511,293.8247 L501,283.8247 " fill="#FEFFDD" style="stroke:#181818;stroke-width:0.5;"/><text fill="#000000" font-family="sans-serif" font-size="12" font-weight="bold" lengthAdjust="spacing" textLength="40" x="440" y="301.7739">Status:</text><text fill="#000000" font-family="monospace" font-size="13" lengthAdjust="spacing" textLength="32" x="440" y="318.814">code</text><text fill="#000000" font-family="sans-serif" font-size="13" lengthAdjust="spacing" textLength="4" x="472" y="319.4551">:</text><text fill="#000000" font-family="monospace" font-size="13" lengthAdjust="spacing" textLength="16" x="480" y="318.814">OK</text><path d="M10,364.7178 L83,364.7178 L83,374.0088 L73,384.0088 L10,384.0088 L10,364.7178 " fill="#EEEEEE" style="stroke:#000000;stroke-width:1.5;"/><rect fill="none" height="317.2808" style="stroke:#000000;stroke-width:1.5;" width="670" x="10" y="364.7178"/><text fill="#000000" font-family="sans-serif" font-size="13" font-weight="bold" lengthAdjust="spacing" textLength="28" x="25" y="379.7461">loop</text><text fill="#000000" font-family="sans-serif" font-size="11" font-weight="bold" lengthAdjust="spacing" textLength="101" x="98" y="378.5879">[Notify Observers]</text><polygon fill="#0000FF" points="477,432.533,487,436.533,477,436.533" style="stroke:#0000FF;stroke-width:1.0;"/><line style="stroke:#0000FF;stroke-width:1.0;stroke-dasharray:2.0,2.0;" x1="271" x2="488" y1="436.533" y2="436.533"/><text fill="#000000" font-family="sans-serif" font-size="13" font-weight="bold" lengthAdjust="spacing" textLength="7" x="278" y="431.2703">4</text><text fill="#0000FF" font-family="sans-serif" font-size="13" lengthAdjust="spacing" textLength="64" x="289" y="431.2703">Notification</text><path d="M494,389.0088 L494,468.0088 L665,468.0088 L665,399.0088 L655,389.0088 L494,389.0088 " fill="#FEFFDD" style="stroke:#181818;stroke-width:0.5;"/><path d="M655,389.0088 L655,399.0088 L665,399.0088 L655,389.0088 " fill="#FEFFDD" style="stroke:#181818;stroke-width:0.5;"/><text fill="#000000" font-family="sans-serif" font-size="12" font-weight="bold" lengthAdjust="spacing" textLength="67" x="500" y="406.958">Notification:</text><text fill="#000000" font-family="monospace" font-size="13" lengthAdjust="spacing" textLength="24" x="500" y="423.998">uri</text><text fill="#000000" font-family="sans-serif" font-size="13" lengthAdjust="spacing" textLength="4" x="528" y="424.6392">:</text><text fill="#000000" font-family="sans-serif" font-size="13" font-style="italic" lengthAdjust="spacing" textLength="114" x="536" y="424.6392">uri of changed node</text><text fill="#000000" font-family="monospace" font-size="13" lengthAdjust="spacing" textLength="72" x="500" y="441.9302">operation</text><text fill="#000000" font-family="sans-serif" font-size="13" lengthAdjust="spacing" textLength="4" x="572" y="442.5713">:</text><text fill="#000000" font-family="monospace" font-size="13" lengthAdjust="spacing" textLength="48" x="580" y="441.9302">UPDATE</text><text fill="#000000" font-family="monospace" font-size="13" lengthAdjust="spacing" textLength="24" x="500" y="459.8623">ttl</text><text fill="#000000" font-family="sans-serif" font-size="13" lengthAdjust="spacing" textLength="19" x="524" y="460.5034">: -1</text><polygon fill="#0000FF" points="58.5,493.0571,48.5,497.0571,58.5,497.0571" style="stroke:#0000FF;stroke-width:1.0;"/><line style="stroke:#0000FF;stroke-width:1.0;stroke-dasharray:2.0,2.0;" x1="47.5" x2="270" y1="497.0571" y2="497.0571"/><text fill="#000000" font-family="sans-serif" font-size="13" font-weight="bold" lengthAdjust="spacing" textLength="7" x="64.5" y="491.7944">5</text><text fill="#0000FF" font-family="sans-serif" font-size="13" lengthAdjust="spacing" textLength="64" x="75.5" y="491.7944">Notification</text><path d="M20,512.0571 L85,512.0571 L85,521.3481 L75,531.3481 L20,531.3481 L20,512.0571 " fill="#EEEEEE" style="stroke:#000000;stroke-width:1.5;"/><rect fill="none" height="162.9414" style="stroke:#000000;stroke-width:1.5;" width="460" x="20" y="512.0571"/><text fill="#000000" font-family="sans-serif" font-size="13" font-weight="bold" lengthAdjust="spacing" textLength="20" x="35" y="527.0854">opt</text><text fill="#000000" font-family="sans-serif" font-size="11" font-weight="bold" lengthAdjust="spacing" textLength="117" x="100" y="525.9272">[Fetch Updated Node]</text><polygon fill="#181818" points="259,570.9063,269,574.9063,259,578.9063,263,574.9063" style="stroke:#181818;stroke-width:1.0;"/><line style="stroke:#181818;stroke-width:1.0;" x1="47.5" x2="265" y1="574.9063" y2="574.9063"/><text fill="#000000" font-family="sans-serif" font-size="13" font-weight="bold" lengthAdjust="spacing" textLength="7" x="54.5" y="569.6436">6</text><text fill="#000000" font-family="sans-serif" font-size="13" lengthAdjust="spacing" textLength="180" x="65.5" y="569.6436">FindNodes(FindNodesRequest)</text><path d="M276,536.3481 L276,597.3481 L465,597.3481 L465,546.3481 L455,536.3481 L276,536.3481 " fill="#FEFFDD" style="stroke:#181818;stroke-width:0.5;"/><path d="M455,536.3481 L455,546.3481 L465,546.3481 L455,536.3481 " fill="#FEFFDD" style="stroke:#181818;stroke-width:0.5;"/><text fill="#000000" font-family="sans-serif" font-size="12" font-weight="bold" lengthAdjust="spacing" textLength="109" x="282" y="554.2974">FindNodesRequest:</text><text fill="#000000" font-family="monospace" font-size="13" lengthAdjust="spacing" textLength="24" x="282" y="571.3374">uri</text><text fill="#000000" font-family="sans-serif" font-size="13" lengthAdjust="spacing" textLength="4" x="306" y="571.9785">:</text><text fill="#000000" font-family="sans-serif" font-size="13" font-style="italic" lengthAdjust="spacing" textLength="136" x="314" y="571.9785">uri of the changed node</text><text fill="#000000" font-family="monospace" font-size="13" lengthAdjust="spacing" textLength="40" x="282" y="589.2695">depth</text><text fill="#000000" font-family="sans-serif" font-size="13" lengthAdjust="spacing" textLength="19" x="322" y="589.9106">: -1</text><polygon fill="#181818" points="58.5,642.7314,48.5,646.7314,58.5,650.7314,54.5,646.7314" style="stroke:#181818;stroke-width:1.0;"/><line style="stroke:#181818;stroke-width:1.0;stroke-dasharray:2.0,2.0;" x1="52.5" x2="270" y1="646.7314" y2="646.7314"/><text fill="#000000" font-family="sans-serif" font-size="13" font-weight="bold" lengthAdjust="spacing" textLength="7" x="64.5" y="641.4688">7</text><text fill="#000000" font-family="sans-serif" font-size="13" lengthAdjust="spacing" textLength="120" x="75.5" y="641.4688">FindNodesResponse</text><path d="M276,608.1733 L276,669.1733 L439,669.1733 L439,618.1733 L429,608.1733 L276,608.1733 " fill="#FEFFDD" style="stroke:#181818;stroke-width:0.5;"/><path d="M429,608.1733 L429,618.1733 L439,618.1733 L429,608.1733 " fill="#FEFFDD" style="stroke:#181818;stroke-width:0.5;"/><text fill="#000000" font-family="sans-serif" font-size="12" font-weight="bold" lengthAdjust="spacing" textLength="119" x="282" y="626.1226">FindNodesResponse:</text><text fill="#000000" font-family="monospace" font-size="13" lengthAdjust="spacing" textLength="40" x="282" y="643.1626">nodes</text><text fill="#000000" font-family="sans-serif" font-size="13" lengthAdjust="spacing" textLength="12" x="322" y="643.8037">: {</text><text fill="#000000" font-family="sans-serif" font-size="13" font-style="italic" lengthAdjust="spacing" textLength="78" x="338" y="643.8037">updated node</text><text fill="#000000" font-family="sans-serif" font-size="13" lengthAdjust="spacing" textLength="4" x="420" y="643.8037">}</text><text fill="#000000" font-family="monospace" font-size="13" lengthAdjust="spacing" textLength="48" x="282" y="661.0947">status</text><text fill="#000000" font-family="sans-serif" font-size="13" lengthAdjust="spacing" textLength="12" x="330" y="661.7358">: {</text><text fill="#000000" font-family="monospace" font-size="13" lengthAdjust="spacing" textLength="32" x="342" y="661.0947">code</text><text fill="#000000" font-family="sans-serif" font-size="13" lengthAdjust="spacing" textLength="4" x="374" y="661.7358">:</text><text fill="#000000" font-family="monospace" font-size="13" lengthAdjust="spacing" textLength="16" x="382" y="661.0947">OK</text><text fill="#000000" font-family="sans-serif" font-size="13" lengthAdjust="spacing" textLength="4" x="398" y="661.7358">}</text><!--SRC=[ZLFBRjim43oJNx6G3qqDk6no51m3WLq3HHyfulhK50KjhIq2CgcIAxTfdN_lKdv9DWf49v8xvCpEZbuLH5L8bQfARQbUbsyojrO1VzPeCnpaHg-yNakfQtAsNY_GIxbmls626vFX3VH-5OPG2fsHyp2UpA3dlBOhb6Xp1hR0rqSmMZBq11yPhGEqxXmgzGnzl1BBSoulolh8KTzL5VGyvWS6oOZ1Y9z9OLxbcl2po_7gqPus3x6TGA-bTOJWpQeWAOR1_C7q-cRKxryWqtv_g69z94MIM2ua2Vm5fSP5r9d3UxjqIeddM2OgaoI5mNKK1952JiuKGNoxpGvj-bY4JqYQeRfD7VG6cNHFePGKSLFgG3_gvjqydjugbTNUitL0PeqCWmPdB1jcDjXWacIfoy3hhaXMEMULCz9KX__PiwjsFSaQJr98aliFxKUtswqidQkuOpBB9xXV11ub-Y15vFlMUylVTFfzyDWCCeNXqh7mp9NEtyOnZvgB9jDad1sgM6N2jhAkTITmMo0hhBtXeQNi7w_0BI7RpowECth965UXR-xkMfb_cTnzVSVjYCvOnR6xYnx6SSOlQa4ALn5CaR9Y7ufybmeXngUuJ8tDuscuEgwEuGNHjQ7jmpcwuyN1Z9ONLE2b7upBiQBYq7QhRx4FoxWZyW53vMo8zPSesu7FfKNw42dZ_xMFzLuJFEyWeGbWWpbFtdD7PbonpKqSOmh_0G00]--></g></svg>