<?xml version="1.0" encoding="us-ascii" standalone="no"?><svg xmlns="http://www.w3.org/2000/svg" xmlns:xlink="http://www.w3.org/1999/xlink" contentStyleType="text/css" height="345px" preserveAspectRatio="none" style="width:680px;height:345px;background:#FFFFFF;" version="1.1" viewBox="0 0 680 345" width="680px" zoomAndPan="magnify"><defs/><g><rect fill="#FFFFFF" height="333.8335" style="stroke:#181818;stroke-width:0.5;" width="387.5" x="1" y="6"/><text fill="#000000" font-family="sans-serif" font-size="13" font-weight="bold" lengthAdjust="spacing" textLength="50" x="167.75" y="20.0283">Device1</text><line style="stroke:#181818;stroke-width:0.5;stroke-dasharray:5.0,5.0;" x1="51" x2="51" y1="77.9121" y2="286.2124"/><line style="stroke:#181818;stroke-width:0.5;stroke-dasharray:5.0,5.0;" x1="350.5" x2="350.5" y1="77.9121" y2="286.2124"/><text fill="#000000" font-family="sans-serif" font-size="14" lengthAdjust="spacing" textLength="86" x="5" y="74.3984">uSubscription</text><ellipse cx="51" cy="43.291" fill="#A52A2A" rx="12" ry="12" style="stroke:#181818;stroke-width:0.5;"/><line style="stroke:#181818;stroke-width:0.5;" x1="39" x2="63" y1="57.291" y2="57.291"/><text fill="#000000" font-family="sans-serif" font-size="14" lengthAdjust="spacing" textLength="86" x="5" y="300.3198">uSubscription</text><ellipse cx="51" cy="319.8335" fill="#A52A2A" rx="12" ry="12" style="stroke:#181818;stroke-width:0.5;"/><line style="stroke:#181818;stroke-width:0.5;" x1="39" x2="63" y1="333.8335" y2="333.8335"/><text fill="#000000" font-family="sans-serif" font-size="14" lengthAdjust="spacing" textLength="61" x="317.5" y="74.3984">uExample</text><ellipse cx="351" cy="43.291" fill="#0000FF" rx="12" ry="12" style="stroke:#181818;stroke-width:0.5;"/><line style="stroke:#181818;stroke-width:0.5;" x1="339" x2="363" y1="57.291" y2="57.291"/><text fill="#000000" font-family="sans-serif" font-size="14" lengthAdjust="spacing" textLength="61" x="317.5" y="300.3198">uExample</text><ellipse cx="351" cy="319.8335" fill="#0000FF" rx="12" ry="12" style="stroke:#181818;stroke-width:0.5;"/><line style="stroke:#181818;stroke-width:0.5;" x1="339" x2="363" y1="333.8335" y2="333.8335"/><polygon fill="#181818" points="62,118.5042,52,122.5042,62,126.5042,58,122.5042" style="stroke:#181818;stroke-width:1.0;"/><line style="stroke:#181818;stroke-width:1.0;" x1="56" x2="350" y1="122.5042" y2="122.5042"/><text fill="#000000" font-family="sans-serif" font-size="13" font-weight="bold" lengthAdjust="spacing" textLength="7" x="68" y="117.2415">1</text><text fill="#000000" font-family="sans-serif" font-size="13" lengthAdjust="spacing" textLength="194" x="79" y="117.2415">CreateTopic(CreateTopicRequest)</text><path d="M356,92.9121 L356,135.9121 L517,135.9121 L517,102.9121 L507,92.9121 L356,92.9121 " fill="#FEFFDD" style="stroke:#181818;stroke-width:0.5;"/><path d="M507,92.9121 L507,102.9121 L517,102.9121 L507,92.9121 " fill="#FEFFDD" style="stroke:#181818;stroke-width:0.5;"/><text fill="#000000" font-family="sans-serif" font-size="12" font-weight="bold" lengthAdjust="spacing" textLength="119" x="362" y="110.8613">CreateTopicRequest:</text><text fill="#000000" font-family="monospace" font-size="13" lengthAdjust="spacing" textLength="40" x="362" y="127.9014">topic</text><text fill="#000000" font-family="sans-serif" font-size="13" lengthAdjust="spacing" textLength="12" x="406" y="128.5425">: {</text><text fill="#000000" font-family="monospace" font-size="13" lengthAdjust="spacing" textLength="24" x="422" y="127.9014">uri</text><text fill="#000000" font-family="sans-serif" font-size="13" lengthAdjust="spacing" textLength="4" x="446" y="128.5425">:</text><text fill="#000000" font-family="monospace" font-size="13" font-style="italic" lengthAdjust="spacing" textLength="40" x="454" y="127.9014">topic</text><text fill="#000000" font-family="sans-serif" font-size="13" lengthAdjust="spacing" textLength="4" x="498" y="128.5425">}</text><polygon fill="#181818" points="339,161.0962,349,165.0962,339,169.0962,343,165.0962" style="stroke:#181818;stroke-width:1.0;"/><line style="stroke:#181818;stroke-width:1.0;stroke-dasharray:2.0,2.0;" x1="51" x2="345" y1="165.0962" y2="165.0962"/><text fill="#000000" font-family="sans-serif" font-size="13" font-weight="bold" lengthAdjust="spacing" textLength="7" x="58" y="159.8335">2</text><text fill="#000000" font-family="sans-serif" font-size="13" lengthAdjust="spacing" textLength="19" x="69" y="159.8335">OK</text><polygon fill="#181818" points="62,212.6543,52,216.6543,62,220.6543,58,216.6543" style="stroke:#181818;stroke-width:1.0;"/><line style="stroke:#181818;stroke-width:1.0;" x1="56" x2="350" y1="216.6543" y2="216.6543"/><text fill="#000000" font-family="sans-serif" font-size="13" font-weight="bold" lengthAdjust="spacing" textLength="7" x="68" y="211.3916">3</text><text fill="#000000" font-family="sans-serif" font-size="13" lengthAdjust="spacing" textLength="265" x="79" y="211.3916">RegisterForNotifications(NotificationsRequest)</text><path d="M356,178.0962 L356,239.0962 L673,239.0962 L673,188.0962 L663,178.0962 L356,178.0962 " fill="#FEFFDD" style="stroke:#181818;stroke-width:0.5;"/><path d="M663,178.0962 L663,188.0962 L673,188.0962 L663,178.0962 " fill="#FEFFDD" style="stroke:#181818;stroke-width:0.5;"/><text fill="#000000" font-family="sans-serif" font-size="12" font-weight="bold" lengthAdjust="spacing" textLength="121" x="362" y="196.0454">NotificationsRequest:</text><text fill="#000000" font-family="monospace" font-size="13" lengthAdjust="spacing" textLength="48" x="362" y="213.0854">topic:</text><text fill="#000000" font-family="sans-serif" font-size="13" lengthAdjust="spacing" textLength="4" x="414" y="213.7266">{</text><text fill="#000000" font-family="monospace" font-size="13" lengthAdjust="spacing" textLength="24" x="422" y="213.0854">uri</text><text fill="#000000" font-family="sans-serif" font-size="13" lengthAdjust="spacing" textLength="4" x="446" y="213.7266">:</text><text fill="#000000" font-family="monospace" font-size="13" font-style="italic" lengthAdjust="spacing" textLength="40" x="454" y="213.0854">topic</text><text fill="#000000" font-family="sans-serif" font-size="13" lengthAdjust="spacing" textLength="4" x="498" y="213.7266">}</text><text fill="#000000" font-family="monospace" font-size="13" lengthAdjust="spacing" textLength="88" x="362" y="231.0176">subscriber:</text><text fill="#000000" font-family="sans-serif" font-size="13" lengthAdjust="spacing" textLength="4" x="454" y="231.6587">{</text><text fill="#000000" font-family="monospace" font-size="13" lengthAdjust="spacing" textLength="24" x="462" y="231.0176">uri</text><text fill="#000000" font-family="sans-serif" font-size="13" lengthAdjust="spacing" textLength="172" x="486" y="231.6587">: "up://Device1/uexample/1/" }</text><polygon fill="#181818" points="339,264.2124,349,268.2124,339,272.2124,343,268.2124" style="stroke:#181818;stroke-width:1.0;"/><line style="stroke:#181818;stroke-width:1.0;stroke-dasharray:2.0,2.0;" x1="51" x2="345" y1="268.2124" y2="268.2124"/><text fill="#000000" font-family="sans-serif" font-size="13" font-weight="bold" lengthAdjust="spacing" textLength="7" x="58" y="262.9497">4</text><text fill="#000000" font-family="sans-serif" font-size="13" lengthAdjust="spacing" textLength="19" x="69" y="262.9497">OK</text><!--SRC=[XP7DRW8n38JFcwUmmeMkXApjCK9xwSy5jPMWBv3Tkc09aYLn2ctLTsyM-WygDySpiRxHs2JUfLL3GJL-2vVqn2rLCDWiM4WLv8Jb6T8iDR4Dt0bx1pR2x0O6JV0RzssvsjfLjwIyNoPIv1uW7rHVwr6TFncu26I5xdt7xV37FALreYXdodaX23nVY2h6aL_8LETrMHvQJLcEiJVKgj1QUaLhCF0AMgV0Mfiy8Eu4n2ozxPZw-ohJZpBF9vk1kya1w9Jc78N2jG-tNlYHMzk7ZyDVhrFSnyn7o4tc-mSys-A-WDpJNs_g3E97RvXedm8hF9Nu7G00]--></g></svg>