<?xml version="1.0" encoding="us-ascii" standalone="no"?><svg xmlns="http://www.w3.org/2000/svg" xmlns:xlink="http://www.w3.org/1999/xlink" contentStyleType="text/css" height="267px" preserveAspectRatio="none" style="width:489px;height:267px;background:#FFFFFF;" version="1.1" viewBox="0 0 489 267" width="489px" zoomAndPan="magnify"><defs/><g><rect fill="#FFFFFF" height="255.9795" style="stroke:#181818;stroke-width:0.5;" width="316.5" x="1" y="6"/><text fill="#000000" font-family="sans-serif" font-size="13" font-weight="bold" lengthAdjust="spacing" textLength="50" x="132.25" y="20.0283">Device1</text><line style="stroke:#181818;stroke-width:0.5;stroke-dasharray:5.0,5.0;" x1="26" x2="26" y1="77.9121" y2="208.3584"/><line style="stroke:#181818;stroke-width:0.5;stroke-dasharray:5.0,5.0;" x1="103" x2="103" y1="77.9121" y2="208.3584"/><line style="stroke:#181818;stroke-width:0.5;stroke-dasharray:5.0,5.0;" x1="279.5" x2="279.5" y1="77.9121" y2="208.3584"/><rect fill="#FF0000" height="32.6211" style="stroke:#181818;stroke-width:0.5;" width="38" x="9" y="40.291"/><rect fill="#FF0000" height="32.6211" style="stroke:#181818;stroke-width:0.5;" width="38" x="5" y="44.291"/><text fill="#000000" font-family="sans-serif" font-size="14" lengthAdjust="spacing" textLength="24" x="12" y="66.3984">uEs</text><rect fill="#FF0000" height="32.6211" style="stroke:#181818;stroke-width:0.5;" width="38" x="9" y="207.3584"/><rect fill="#FF0000" height="32.6211" style="stroke:#181818;stroke-width:0.5;" width="38" x="5" y="211.3584"/><text fill="#000000" font-family="sans-serif" font-size="14" lengthAdjust="spacing" textLength="24" x="12" y="233.4658">uEs</text><text fill="#000000" font-family="sans-serif" font-size="14" lengthAdjust="spacing" textLength="86" x="57" y="74.3984">uSubscription</text><ellipse cx="103" cy="43.291" fill="#A52A2A" rx="12" ry="12" style="stroke:#181818;stroke-width:0.5;"/><line style="stroke:#181818;stroke-width:0.5;" x1="91" x2="115" y1="57.291" y2="57.291"/><text fill="#000000" font-family="sans-serif" font-size="14" lengthAdjust="spacing" textLength="86" x="57" y="222.4658">uSubscription</text><ellipse cx="103" cy="241.9795" fill="#A52A2A" rx="12" ry="12" style="stroke:#181818;stroke-width:0.5;"/><line style="stroke:#181818;stroke-width:0.5;" x1="91" x2="115" y1="255.9795" y2="255.9795"/><text fill="#000000" font-family="sans-serif" font-size="14" lengthAdjust="spacing" textLength="61" x="246.5" y="74.3984">uExample</text><ellipse cx="280" cy="43.291" fill="#0000FF" rx="12" ry="12" style="stroke:#181818;stroke-width:0.5;"/><line style="stroke:#181818;stroke-width:0.5;" x1="268" x2="292" y1="57.291" y2="57.291"/><text fill="#000000" font-family="sans-serif" font-size="14" lengthAdjust="spacing" textLength="61" x="246.5" y="222.4658">uExample</text><ellipse cx="280" cy="241.9795" fill="#0000FF" rx="12" ry="12" style="stroke:#181818;stroke-width:0.5;"/><line style="stroke:#181818;stroke-width:0.5;" x1="268" x2="292" y1="255.9795" y2="255.9795"/><polygon fill="#181818" points="114,127.8147,104,131.8147,114,135.8147,110,131.8147" style="stroke:#181818;stroke-width:1.0;"/><line style="stroke:#181818;stroke-width:1.0;" x1="108" x2="279" y1="131.8147" y2="131.8147"/><text fill="#000000" font-family="sans-serif" font-size="13" font-weight="bold" lengthAdjust="spacing" textLength="7" x="120" y="117.9065">1</text><text fill="#000000" font-family="sans-serif" font-size="13" lengthAdjust="spacing" textLength="94" x="131" y="109.261">DeprecateTopic(</text><text fill="#000000" font-family="sans-serif" font-size="13" lengthAdjust="spacing" textLength="142" x="131" y="126.552">DeprecateTopicRequest)</text><path d="M285,92.9121 L285,137.9121 L482,137.9121 L482,102.9121 L472,92.9121 L285,92.9121 " fill="#FEFFDD" style="stroke:#181818;stroke-width:0.5;"/><path d="M472,92.9121 L472,102.9121 L482,102.9121 L472,92.9121 " fill="#FEFFDD" style="stroke:#181818;stroke-width:0.5;"/><text fill="#000000" font-family="sans-serif" font-size="12" font-weight="bold" lengthAdjust="spacing" textLength="140" x="323" y="112.1914">DeprecateTopicRequest:</text><text fill="#000000" font-family="sans-serif" font-size="13" lengthAdjust="spacing" textLength="4" x="463" y="111.9404">&#160;</text><text fill="#000000" font-family="monospace" font-size="13" lengthAdjust="spacing" textLength="48" x="291" y="129.2314">topic:</text><text fill="#000000" font-family="sans-serif" font-size="13" lengthAdjust="spacing" textLength="4" x="343" y="129.8726">{</text><text fill="#000000" font-family="monospace" font-size="13" lengthAdjust="spacing" textLength="24" x="351" y="129.2314">uri</text><text fill="#000000" font-family="sans-serif" font-size="13" lengthAdjust="spacing" textLength="4" x="375" y="129.8726">:</text><text fill="#000000" font-family="monospace" font-size="13" font-style="italic" lengthAdjust="spacing" textLength="40" x="383" y="129.2314">topic</text><text fill="#000000" font-family="sans-serif" font-size="13" lengthAdjust="spacing" textLength="4" x="427" y="129.8726">}</text><polygon fill="#181818" points="268,174.3923,278,178.3923,268,182.3923,272,178.3923" style="stroke:#181818;stroke-width:1.0;"/><line style="stroke:#181818;stroke-width:1.0;stroke-dasharray:2.0,2.0;" x1="103" x2="274" y1="178.3923" y2="178.3923"/><text fill="#000000" font-family="sans-serif" font-size="13" font-weight="bold" lengthAdjust="spacing" textLength="7" x="110" y="173.1296">2</text><text fill="#000000" font-family="sans-serif" font-size="13" lengthAdjust="spacing" textLength="38" x="121" y="173.1296">Status</text><path d="M285,148.1353 L285,193.1353 L362,193.1353 L362,158.1353 L352,148.1353 L285,148.1353 " fill="#FEFFDD" style="stroke:#181818;stroke-width:0.5;"/><path d="M352,148.1353 L352,158.1353 L362,158.1353 L352,148.1353 " fill="#FEFFDD" style="stroke:#181818;stroke-width:0.5;"/><text fill="#000000" font-family="sans-serif" font-size="12" font-weight="bold" lengthAdjust="spacing" textLength="40" x="291" y="167.4146">Status:</text><text fill="#000000" font-family="sans-serif" font-size="13" lengthAdjust="spacing" textLength="4" x="331" y="167.1636">&#160;</text><text fill="#000000" font-family="monospace" font-size="13" lengthAdjust="spacing" textLength="32" x="291" y="184.4546">code</text><text fill="#000000" font-family="sans-serif" font-size="13" lengthAdjust="spacing" textLength="4" x="323" y="185.0957">:</text><text fill="#000000" font-family="monospace" font-size="13" lengthAdjust="spacing" textLength="16" x="331" y="184.4546">OK</text><!--SRC=[ROunJyCm48NdtAyukGCGALXbjAfCT488YJAoECwfiUJOmJxJ0kA_uxGg5CHclVVEttSnC4z9IJavxJcFxjg4KIPwoUGDDRtLswX709qv-3ns506wiCTRUhM6bhZO3PO9AXES8yCs-8HvdN0HgOUAF5j-mxp9NJBHJdEFEk7clbnsCUpypsQzr-FagEGk4v3liN00JddJpbUgWAT8HZCzXScQosV_EtYSpHDVWGzC6ErsOC1gbUmxgULDMzV_pbLTh-IyQH4g8NYkb13uWKBaQ8LGvI7b8PUo59-81yMP0b34ck9tKbMuOSqvdJkSAnpRFqmJUZfo7kw4-Fxy2m00]--></g></svg>