<?xml version="1.0" encoding="us-ascii" standalone="no"?><svg xmlns="http://www.w3.org/2000/svg" xmlns:xlink="http://www.w3.org/1999/xlink" contentStyleType="text/css" height="461px" preserveAspectRatio="none" style="width:637px;height:461px;background:#FFFFFF;" version="1.1" viewBox="0 0 637 461" width="637px" zoomAndPan="magnify"><defs/><g><rect fill="#FFFFFF" height="449.5332" style="stroke:#181818;stroke-width:0.5;" width="385.5" x="1" y="6"/><text fill="#000000" font-family="sans-serif" font-size="13" font-weight="bold" lengthAdjust="spacing" textLength="50" x="166.75" y="20.0283">Device1</text><line style="stroke:#181818;stroke-width:0.5;stroke-dasharray:5.0,5.0;" x1="24" x2="24" y1="105.9121" y2="373.9121"/><line style="stroke:#181818;stroke-width:0.5;stroke-dasharray:5.0,5.0;" x1="259.5" x2="259.5" y1="105.9121" y2="373.9121"/><line style="stroke:#181818;stroke-width:0.5;stroke-dasharray:5.0,5.0;" x1="348.5" x2="348.5" y1="105.9121" y2="373.9121"/><text fill="#000000" font-family="sans-serif" font-size="14" lengthAdjust="spacing" textLength="33" x="5" y="102.3984">uApp</text><ellipse cx="24.5" cy="35.791" fill="#FF0000" rx="8" ry="8" style="stroke:#181818;stroke-width:0.5;"/><path d="M24.5,43.791 L24.5,70.791 M11.5,51.791 L37.5,51.791 M24.5,70.791 L11.5,85.791 M24.5,70.791 L37.5,85.791 " fill="none" style="stroke:#181818;stroke-width:0.5;"/><text fill="#000000" font-family="sans-serif" font-size="14" lengthAdjust="spacing" textLength="33" x="5" y="388.0195">uApp</text><ellipse cx="24.5" cy="400.0332" fill="#FF0000" rx="8" ry="8" style="stroke:#181818;stroke-width:0.5;"/><path d="M24.5,408.0332 L24.5,435.0332 M11.5,416.0332 L37.5,416.0332 M24.5,435.0332 L11.5,450.0332 M24.5,435.0332 L37.5,450.0332 " fill="none" style="stroke:#181818;stroke-width:0.5;"/><text fill="#000000" font-family="sans-serif" font-size="14" lengthAdjust="spacing" textLength="86" x="213.5" y="102.3984">uSubscription</text><ellipse cx="259.5" cy="71.291" fill="#A52A2A" rx="12" ry="12" style="stroke:#181818;stroke-width:0.5;"/><line style="stroke:#181818;stroke-width:0.5;" x1="247.5" x2="271.5" y1="85.291" y2="85.291"/><text fill="#000000" font-family="sans-serif" font-size="14" lengthAdjust="spacing" textLength="86" x="213.5" y="388.0195">uSubscription</text><ellipse cx="259.5" cy="407.5332" fill="#A52A2A" rx="12" ry="12" style="stroke:#181818;stroke-width:0.5;"/><line style="stroke:#181818;stroke-width:0.5;" x1="247.5" x2="271.5" y1="421.5332" y2="421.5332"/><text fill="#000000" font-family="sans-serif" font-size="14" lengthAdjust="spacing" textLength="61" x="315.5" y="102.3984">uExample</text><ellipse cx="349" cy="71.291" fill="#0000FF" rx="12" ry="12" style="stroke:#181818;stroke-width:0.5;"/><line style="stroke:#181818;stroke-width:0.5;" x1="337" x2="361" y1="85.291" y2="85.291"/><text fill="#000000" font-family="sans-serif" font-size="14" lengthAdjust="spacing" textLength="61" x="315.5" y="388.0195">uExample</text><ellipse cx="349" cy="407.5332" fill="#0000FF" rx="12" ry="12" style="stroke:#181818;stroke-width:0.5;"/><line style="stroke:#181818;stroke-width:0.5;" x1="337" x2="361" y1="421.5332" y2="421.5332"/><polygon fill="#181818" points="247.5,156.1353,257.5,160.1353,247.5,164.1353,251.5,160.1353" style="stroke:#181818;stroke-width:1.0;"/><line style="stroke:#181818;stroke-width:1.0;" x1="24.5" x2="253.5" y1="160.1353" y2="160.1353"/><text fill="#000000" font-family="sans-serif" font-size="13" font-weight="bold" lengthAdjust="spacing" textLength="7" x="31.5" y="154.8726">1</text><text fill="#000000" font-family="sans-serif" font-size="13" lengthAdjust="spacing" textLength="200" x="42.5" y="154.8726">Unsubscribe(UnsubscribeRequest)</text><path d="M264,120.9121 L264,183.9121 L540,183.9121 L540,130.9121 L530,120.9121 L264,120.9121 " fill="#FEFFDD" style="stroke:#181818;stroke-width:0.5;"/><path d="M530,120.9121 L530,130.9121 L540,130.9121 L530,120.9121 " fill="#FEFFDD" style="stroke:#181818;stroke-width:0.5;"/><text fill="#000000" font-family="sans-serif" font-size="12" font-weight="bold" lengthAdjust="spacing" textLength="122" x="302" y="140.1914">UnsubscribeRequest:</text><text fill="#000000" font-family="monospace" font-size="13" lengthAdjust="spacing" textLength="48" x="270" y="157.2314">topic:</text><text fill="#000000" font-family="sans-serif" font-size="13" lengthAdjust="spacing" textLength="4" x="322" y="157.8726">{</text><text fill="#000000" font-family="monospace" font-size="13" lengthAdjust="spacing" textLength="24" x="330" y="157.2314">uri</text><text fill="#000000" font-family="sans-serif" font-size="13" lengthAdjust="spacing" textLength="4" x="354" y="157.8726">:</text><text fill="#000000" font-family="monospace" font-size="13" font-style="italic" lengthAdjust="spacing" textLength="40" x="362" y="157.2314">topic</text><text fill="#000000" font-family="sans-serif" font-size="13" lengthAdjust="spacing" textLength="4" x="406" y="157.8726">}</text><text fill="#000000" font-family="monospace" font-size="13" lengthAdjust="spacing" textLength="80" x="270" y="175.1636">subscriber</text><text fill="#000000" font-family="sans-serif" font-size="13" lengthAdjust="spacing" textLength="12" x="350" y="175.8047">: {</text><text fill="#000000" font-family="monospace" font-size="13" lengthAdjust="spacing" textLength="24" x="366" y="175.1636">uri</text><text fill="#000000" font-family="sans-serif" font-size="13" lengthAdjust="spacing" textLength="135" x="390" y="175.8047">: "up://Device1/uApp/" }</text><polygon fill="#181818" points="35.5,208.9995,25.5,212.9995,35.5,216.9995,31.5,212.9995" style="stroke:#181818;stroke-width:1.0;"/><line style="stroke:#181818;stroke-width:1.0;stroke-dasharray:2.0,2.0;" x1="29.5" x2="258.5" y1="212.9995" y2="212.9995"/><text fill="#000000" font-family="sans-serif" font-size="13" font-weight="bold" lengthAdjust="spacing" textLength="7" x="41.5" y="207.4163">2</text><text fill="#000000" font-family="monospace" font-size="13" lengthAdjust="spacing" textLength="16" x="52.5" y="207.0957">OK</text><polygon fill="#0000FF" points="337,296.1013,347,300.1013,337,300.1013" style="stroke:#0000FF;stroke-width:1.0;"/><line style="stroke:#0000FF;stroke-width:1.0;stroke-dasharray:2.0,2.0;" x1="259.5" x2="348" y1="300.1013" y2="300.1013"/><text fill="#000000" font-family="sans-serif" font-size="13" font-weight="bold" lengthAdjust="spacing" textLength="7" x="266.5" y="294.8386">3</text><text fill="#0000FF" font-family="sans-serif" font-size="13" lengthAdjust="spacing" textLength="41" x="277.5" y="294.8386">Update</text><path d="M354,225.9995 L354,357.9995 L630,357.9995 L630,235.9995 L620,225.9995 L354,225.9995 " fill="#FEFFDD" style="stroke:#181818;stroke-width:0.5;"/><path d="M620,225.9995 L620,235.9995 L630,235.9995 L620,225.9995 " fill="#FEFFDD" style="stroke:#181818;stroke-width:0.5;"/><text fill="#000000" font-family="sans-serif" font-size="12" font-weight="bold" lengthAdjust="spacing" textLength="43" x="360" y="243.9487">Update:</text><text fill="#000000" font-family="monospace" font-size="13" lengthAdjust="spacing" textLength="48" x="360" y="260.9888">topic:</text><text fill="#000000" font-family="sans-serif" font-size="13" lengthAdjust="spacing" textLength="4" x="412" y="261.6299">{</text><text fill="#000000" font-family="monospace" font-size="13" lengthAdjust="spacing" textLength="24" x="420" y="260.9888">uri</text><text fill="#000000" font-family="sans-serif" font-size="13" lengthAdjust="spacing" textLength="4" x="444" y="261.6299">:</text><text fill="#000000" font-family="monospace" font-size="13" font-style="italic" lengthAdjust="spacing" textLength="40" x="452" y="260.9888">topic</text><text fill="#000000" font-family="sans-serif" font-size="13" lengthAdjust="spacing" textLength="4" x="496" y="261.6299">}</text><text fill="#000000" font-family="monospace" font-size="13" lengthAdjust="spacing" textLength="80" x="360" y="278.9209">subscriber</text><text fill="#000000" font-family="sans-serif" font-size="13" lengthAdjust="spacing" textLength="12" x="440" y="279.562">: {</text><text fill="#000000" font-family="monospace" font-size="13" lengthAdjust="spacing" textLength="24" x="456" y="278.9209">uri</text><text fill="#000000" font-family="sans-serif" font-size="13" lengthAdjust="spacing" textLength="135" x="480" y="279.562">: "up://Device1/uApp/" }</text><text fill="#000000" font-family="monospace" font-size="13" lengthAdjust="spacing" textLength="56" x="360" y="296.853">status:</text><text fill="#000000" font-family="sans-serif" font-size="13" lengthAdjust="spacing" textLength="4" x="420" y="297.4941">{</text><text fill="#000000" font-family="monospace" font-size="13" lengthAdjust="spacing" textLength="40" x="424" y="314.7852">state</text><text fill="#000000" font-family="sans-serif" font-size="13" lengthAdjust="spacing" textLength="4" x="464" y="315.4263">:</text><text fill="#000000" font-family="monospace" font-size="13" lengthAdjust="spacing" textLength="96" x="472" y="314.7852">UNSUBSCRIBED</text><text fill="#000000" font-family="sans-serif" font-size="13" lengthAdjust="spacing" textLength="4" x="568" y="315.4263">,</text><text fill="#000000" font-family="monospace" font-size="13" lengthAdjust="spacing" textLength="32" x="424" y="332.7173">code</text><text fill="#000000" font-family="sans-serif" font-size="13" lengthAdjust="spacing" textLength="4" x="456" y="333.3584">:</text><text fill="#000000" font-family="monospace" font-size="13" lengthAdjust="spacing" textLength="16" x="464" y="332.7173">OK</text><text fill="#000000" font-family="sans-serif" font-size="13" lengthAdjust="spacing" textLength="4" x="360" y="350.6494">}</text><!--SRC=[lL11JiCm43p7hx3S0n0HJ3b68HAbhOGG83NgYN9magMrbDZ6MTC2uk_OQTKMSSSdQtPsTcPELeYcIpatZL3eskQYqYtluCs1gY2ffLXQqH8Y76hbsX8i8QNUq36yomg6TB1UIGGIYGgrfUx663gmK9C854hyeAvmPLTPQL1gHKL7YmU_L5gzLWVEP2DQqu376mS4L4tz2K9wjIGFAocTgswhLCBfqNyMd7PuHfH6e5OkLqXeb7No4zBXLHx7Vxbf76Sy478ICORQo2fbZ7vHnfoLZAN-mtcFS-u7tu6s5x61SCnrnhUtguC7opoiX1314Y7UVU93zDq4wQTxnW98a-V1fN_JwKkos7UGqknLAwILRhIz3dtaSrCBX8m7F3_E-IjcJ_gNQ6451RgkboPHjC0j0ji3yyTYFYfkPtUZoPYnynsXqlLktXSG7Ihw0G00]--></g></svg>