<?xml version="1.0" encoding="us-ascii" standalone="no"?><svg xmlns="http://www.w3.org/2000/svg" xmlns:xlink="http://www.w3.org/1999/xlink" contentStyleType="text/css" height="1125px" preserveAspectRatio="none" style="width:936px;height:1125px;background:#FFFFFF;" version="1.1" viewBox="0 0 936 1125" width="936px" zoomAndPan="magnify"><defs/><g><rect fill="#FFFFFF" height="1113.8027" style="stroke:#181818;stroke-width:0.5;" width="232.5" x="26" y="6"/><text fill="#000000" font-family="sans-serif" font-size="13" font-weight="bold" lengthAdjust="spacing" textLength="50" x="115.25" y="20.0283">Device2</text><rect fill="#FFFFFF" height="1113.8027" style="stroke:#181818;stroke-width:0.5;" width="177" x="393.5" y="6"/><text fill="#000000" font-family="sans-serif" font-size="13" font-weight="bold" lengthAdjust="spacing" textLength="50" x="455" y="20.0283">Device1</text><rect fill="none" height="754.8232" style="stroke:#000000;stroke-width:1.5;" width="909" x="10" y="266.3584"/><rect fill="none" height="312.9507" style="stroke:#000000;stroke-width:1.5;" width="756.5" x="152.5" y="500.562"/><rect fill="none" height="145.0381" style="stroke:#000000;stroke-width:1.5;" width="653.5" x="20" y="869.1436"/><line style="stroke:#181818;stroke-width:0.5;stroke-dasharray:5.0,5.0;" x1="49" x2="49" y1="105.9121" y2="1038.1816"/><line style="stroke:#181818;stroke-width:0.5;stroke-dasharray:5.0,5.0;" x1="208.5" x2="208.5" y1="105.9121" y2="1038.1816"/><line style="stroke:#181818;stroke-width:0.5;stroke-dasharray:5.0,5.0;" x1="443.5" x2="443.5" y1="105.9121" y2="1038.1816"/><line style="stroke:#181818;stroke-width:0.5;stroke-dasharray:5.0,5.0;" x1="532.5" x2="532.5" y1="105.9121" y2="1038.1816"/><text fill="#000000" font-family="sans-serif" font-size="14" lengthAdjust="spacing" textLength="33" x="30" y="102.3984">uApp</text><ellipse cx="49.5" cy="35.791" fill="#FF0000" rx="8" ry="8" style="stroke:#181818;stroke-width:0.5;"/><path d="M49.5,43.791 L49.5,70.791 M36.5,51.791 L62.5,51.791 M49.5,70.791 L36.5,85.791 M49.5,70.791 L62.5,85.791 " fill="none" style="stroke:#181818;stroke-width:0.5;"/><text fill="#000000" font-family="sans-serif" font-size="14" lengthAdjust="spacing" textLength="33" x="30" y="1052.2891">uApp</text><ellipse cx="49.5" cy="1064.3027" fill="#FF0000" rx="8" ry="8" style="stroke:#181818;stroke-width:0.5;"/><path d="M49.5,1072.3027 L49.5,1099.3027 M36.5,1080.3027 L62.5,1080.3027 M49.5,1099.3027 L36.5,1114.3027 M49.5,1099.3027 L62.5,1114.3027 " fill="none" style="stroke:#181818;stroke-width:0.5;"/><text fill="#000000" font-family="sans-serif" font-size="14" lengthAdjust="spacing" textLength="86" x="162.5" y="102.3984">uSubscription</text><ellipse cx="208.5" cy="71.291" fill="#A52A2A" rx="12" ry="12" style="stroke:#181818;stroke-width:0.5;"/><line style="stroke:#181818;stroke-width:0.5;" x1="196.5" x2="220.5" y1="85.291" y2="85.291"/><text fill="#000000" font-family="sans-serif" font-size="14" lengthAdjust="spacing" textLength="86" x="162.5" y="1052.2891">uSubscription</text><ellipse cx="208.5" cy="1071.8027" fill="#A52A2A" rx="12" ry="12" style="stroke:#181818;stroke-width:0.5;"/><line style="stroke:#181818;stroke-width:0.5;" x1="196.5" x2="220.5" y1="1085.8027" y2="1085.8027"/><text fill="#000000" font-family="sans-serif" font-size="14" lengthAdjust="spacing" textLength="86" x="397.5" y="102.3984">uSubscription</text><ellipse cx="443.5" cy="71.291" fill="#A52A2A" rx="12" ry="12" style="stroke:#181818;stroke-width:0.5;"/><line style="stroke:#181818;stroke-width:0.5;" x1="431.5" x2="455.5" y1="85.291" y2="85.291"/><text fill="#000000" font-family="sans-serif" font-size="14" lengthAdjust="spacing" textLength="86" x="397.5" y="1052.2891">uSubscription</text><ellipse cx="443.5" cy="1071.8027" fill="#A52A2A" rx="12" ry="12" style="stroke:#181818;stroke-width:0.5;"/><line style="stroke:#181818;stroke-width:0.5;" x1="431.5" x2="455.5" y1="1085.8027" y2="1085.8027"/><text fill="#000000" font-family="sans-serif" font-size="14" lengthAdjust="spacing" textLength="61" x="499.5" y="102.3984">uExample</text><ellipse cx="533" cy="71.291" fill="#0000FF" rx="12" ry="12" style="stroke:#181818;stroke-width:0.5;"/><line style="stroke:#181818;stroke-width:0.5;" x1="521" x2="545" y1="85.291" y2="85.291"/><text fill="#000000" font-family="sans-serif" font-size="14" lengthAdjust="spacing" textLength="61" x="499.5" y="1052.2891">uExample</text><ellipse cx="533" cy="1071.8027" fill="#0000FF" rx="12" ry="12" style="stroke:#181818;stroke-width:0.5;"/><line style="stroke:#181818;stroke-width:0.5;" x1="521" x2="545" y1="1085.8027" y2="1085.8027"/><polygon fill="#181818" points="196.5,164.7808,206.5,168.7808,196.5,172.7808,200.5,168.7808" style="stroke:#181818;stroke-width:1.0;"/><line style="stroke:#181818;stroke-width:1.0;" x1="49.5" x2="202.5" y1="168.7808" y2="168.7808"/><text fill="#000000" font-family="sans-serif" font-size="13" font-weight="bold" lengthAdjust="spacing" textLength="7" x="56.5" y="154.8726">1</text><text fill="#000000" font-family="sans-serif" font-size="13" lengthAdjust="spacing" textLength="76" x="67.5" y="146.2271">Unsubscribe(</text><text fill="#000000" font-family="sans-serif" font-size="13" lengthAdjust="spacing" textLength="124" x="67.5" y="163.5181">UnsubscribeRequest)</text><path d="M213,120.9121 L213,183.9121 L493,183.9121 L493,130.9121 L483,120.9121 L213,120.9121 " fill="#FEFFDD" style="stroke:#181818;stroke-width:0.5;"/><path d="M483,120.9121 L483,130.9121 L493,130.9121 L483,120.9121 " fill="#FEFFDD" style="stroke:#181818;stroke-width:0.5;"/><text fill="#000000" font-family="sans-serif" font-size="12" font-weight="bold" lengthAdjust="spacing" textLength="122" x="251" y="140.1914">UnsubscribeRequest:</text><text fill="#000000" font-family="sans-serif" font-size="13" lengthAdjust="spacing" textLength="4" x="373" y="139.9404">&#160;</text><text fill="#000000" font-family="monospace" font-size="13" lengthAdjust="spacing" textLength="48" x="219" y="157.2314">topic:</text><text fill="#000000" font-family="sans-serif" font-size="13" lengthAdjust="spacing" textLength="4" x="271" y="157.8726">{</text><text fill="#000000" font-family="monospace" font-size="13" lengthAdjust="spacing" textLength="24" x="279" y="157.2314">uri</text><text fill="#000000" font-family="sans-serif" font-size="13" lengthAdjust="spacing" textLength="4" x="303" y="157.8726">:</text><text fill="#000000" font-family="monospace" font-size="13" font-style="italic" lengthAdjust="spacing" textLength="40" x="311" y="157.2314">topic</text><text fill="#000000" font-family="sans-serif" font-size="13" lengthAdjust="spacing" textLength="4" x="355" y="157.8726">}</text><text fill="#000000" font-family="monospace" font-size="13" lengthAdjust="spacing" textLength="80" x="219" y="175.1636">subscriber</text><text fill="#000000" font-family="sans-serif" font-size="13" lengthAdjust="spacing" textLength="12" x="299" y="175.8047">: {</text><text fill="#000000" font-family="monospace" font-size="13" lengthAdjust="spacing" textLength="24" x="315" y="175.1636">uri</text><text fill="#000000" font-family="sans-serif" font-size="13" lengthAdjust="spacing" textLength="139" x="339" y="175.8047">: " up://Device2/uApp/" }</text><rect fill="#EEEEEE" height="3" style="stroke:#EEEEEE;stroke-width:1.0;" width="929" x="0" y="235.7129"/><line style="stroke:#000000;stroke-width:1.0;" x1="0" x2="929" y1="235.7129" y2="235.7129"/><line style="stroke:#000000;stroke-width:1.0;" x1="0" x2="929" y1="238.7129" y2="238.7129"/><rect fill="#EEEEEE" height="25.291" style="stroke:#000000;stroke-width:2.0;" width="338" x="295.5" y="224.0674"/><text fill="#000000" font-family="sans-serif" font-size="13" font-weight="bold" lengthAdjust="spacing" textLength="320" x="301.5" y="242.0957">Check if the last local subscriber has Unsubscribed</text><path d="M10,266.3584 L71,266.3584 L71,275.6494 L61,285.6494 L10,285.6494 L10,266.3584 " fill="#EEEEEE" style="stroke:#000000;stroke-width:1.5;"/><rect fill="none" height="754.8232" style="stroke:#000000;stroke-width:1.5;" width="909" x="10" y="266.3584"/><text fill="#000000" font-family="sans-serif" font-size="13" font-weight="bold" lengthAdjust="spacing" textLength="16" x="25" y="281.3867">alt</text><text fill="#000000" font-family="sans-serif" font-size="11" font-weight="bold" lengthAdjust="spacing" textLength="158" x="86" y="280.2285">[uApp is the last subscriber]</text><polygon fill="#181818" points="60.5,316.2415,50.5,320.2415,60.5,324.2415,56.5,320.2415" style="stroke:#181818;stroke-width:1.0;"/><line style="stroke:#181818;stroke-width:1.0;stroke-dasharray:2.0,2.0;" x1="54.5" x2="207.5" y1="320.2415" y2="320.2415"/><text fill="#000000" font-family="sans-serif" font-size="13" font-weight="bold" lengthAdjust="spacing" textLength="7" x="66.5" y="314.9788">2</text><text fill="#000000" font-family="sans-serif" font-size="13" lengthAdjust="spacing" textLength="38" x="77.5" y="314.9788">Status</text><path d="M213,290.6494 L213,333.6494 L290,333.6494 L290,300.6494 L280,290.6494 L213,290.6494 " fill="#FEFFDD" style="stroke:#181818;stroke-width:0.5;"/><path d="M280,290.6494 L280,300.6494 L290,300.6494 L280,290.6494 " fill="#FEFFDD" style="stroke:#181818;stroke-width:0.5;"/><text fill="#000000" font-family="sans-serif" font-size="12" font-weight="bold" lengthAdjust="spacing" textLength="40" x="219" y="308.5986">Status:</text><text fill="#000000" font-family="monospace" font-size="13" lengthAdjust="spacing" textLength="32" x="219" y="325.6387">code</text><text fill="#000000" font-family="sans-serif" font-size="13" lengthAdjust="spacing" textLength="4" x="251" y="326.2798">:</text><text fill="#000000" font-family="monospace" font-size="13" lengthAdjust="spacing" textLength="16" x="259" y="325.6387">OK</text><line style="stroke:#181818;stroke-width:1.0;" x1="208.5" x2="250.5" y1="368.6201" y2="368.6201"/><line style="stroke:#181818;stroke-width:1.0;" x1="250.5" x2="250.5" y1="368.6201" y2="381.6201"/><line style="stroke:#181818;stroke-width:1.0;" x1="209.5" x2="250.5" y1="381.6201" y2="381.6201"/><polygon fill="#181818" points="219.5,377.6201,209.5,381.6201,219.5,385.6201,215.5,381.6201" style="stroke:#181818;stroke-width:1.0;"/><text fill="#000000" font-family="sans-serif" font-size="13" font-weight="bold" lengthAdjust="spacing" textLength="7" x="215.5" y="363.3574">3</text><text fill="#000000" font-family="sans-serif" font-size="13" lengthAdjust="spacing" textLength="4" x="226.5" y="363.3574">&#160;</text><path d="M258,344.5425 L258,389.5425 L495,389.5425 L495,354.5425 L485,344.5425 L258,344.5425 " fill="#FEFFDD" style="stroke:#181818;stroke-width:0.5;"/><path d="M485,344.5425 L485,354.5425 L495,354.5425 L485,344.5425 " fill="#FEFFDD" style="stroke:#181818;stroke-width:0.5;"/><text fill="#000000" font-family="monospace" font-size="13" lengthAdjust="spacing" textLength="192" x="264" y="363.5708">SubscriptionStatus.state</text><text fill="#000000" font-family="sans-serif" font-size="13" lengthAdjust="spacing" textLength="16" x="460" y="364.2119">==</text><text fill="#000000" font-family="monospace" font-size="13" lengthAdjust="spacing" textLength="152" x="264" y="381.5029">UNSUBSCRIBE_PENDING</text><polygon fill="#181818" points="431.5,435.6299,441.5,439.6299,431.5,443.6299,435.5,439.6299" style="stroke:#181818;stroke-width:1.0;"/><line style="stroke:#181818;stroke-width:1.0;" x1="208.5" x2="437.5" y1="439.6299" y2="439.6299"/><text fill="#000000" font-family="sans-serif" font-size="13" font-weight="bold" lengthAdjust="spacing" textLength="7" x="215.5" y="434.3672">4</text><text fill="#000000" font-family="sans-serif" font-size="13" lengthAdjust="spacing" textLength="200" x="226.5" y="434.3672">Unsubscribe(UnsubscribeRequest)</text><path d="M448,400.4067 L448,463.4067 L804,463.4067 L804,410.4067 L794,400.4067 L448,400.4067 " fill="#FEFFDD" style="stroke:#181818;stroke-width:0.5;"/><path d="M794,400.4067 L794,410.4067 L804,410.4067 L794,400.4067 " fill="#FEFFDD" style="stroke:#181818;stroke-width:0.5;"/><text fill="#000000" font-family="sans-serif" font-size="12" font-weight="bold" lengthAdjust="spacing" textLength="122" x="486" y="419.686">UnsubscribeRequest:</text><text fill="#000000" font-family="sans-serif" font-size="13" lengthAdjust="spacing" textLength="4" x="608" y="419.4351">&#160;</text><text fill="#000000" font-family="monospace" font-size="13" lengthAdjust="spacing" textLength="48" x="454" y="436.7261">topic:</text><text fill="#000000" font-family="sans-serif" font-size="13" lengthAdjust="spacing" textLength="4" x="506" y="437.3672">{</text><text fill="#000000" font-family="monospace" font-size="13" lengthAdjust="spacing" textLength="24" x="514" y="436.7261">uri</text><text fill="#000000" font-family="sans-serif" font-size="13" lengthAdjust="spacing" textLength="4" x="538" y="437.3672">:</text><text fill="#000000" font-family="monospace" font-size="13" font-style="italic" lengthAdjust="spacing" textLength="40" x="546" y="436.7261">topic</text><text fill="#000000" font-family="sans-serif" font-size="13" lengthAdjust="spacing" textLength="4" x="590" y="437.3672">}</text><text fill="#000000" font-family="monospace" font-size="13" lengthAdjust="spacing" textLength="80" x="454" y="454.6582">subscriber</text><text fill="#000000" font-family="sans-serif" font-size="13" lengthAdjust="spacing" textLength="12" x="534" y="455.2993">: {</text><text fill="#000000" font-family="monospace" font-size="13" lengthAdjust="spacing" textLength="24" x="550" y="454.6582">uri</text><text fill="#000000" font-family="sans-serif" font-size="13" lengthAdjust="spacing" textLength="215" x="574" y="455.2993">: " up://Device2/core.usubscription/" }</text><path d="M152.5,500.562 L213.5,500.562 L213.5,509.853 L203.5,519.853 L152.5,519.853 L152.5,500.562 " fill="#EEEEEE" style="stroke:#000000;stroke-width:1.5;"/><rect fill="none" height="312.9507" style="stroke:#000000;stroke-width:1.5;" width="756.5" x="152.5" y="500.562"/><text fill="#000000" font-family="sans-serif" font-size="13" font-weight="bold" lengthAdjust="spacing" textLength="16" x="167.5" y="515.5903">alt</text><text fill="#000000" font-family="sans-serif" font-size="11" font-weight="bold" lengthAdjust="spacing" textLength="55" x="228.5" y="514.4321">[Success]</text><polygon fill="#181818" points="219.5,550.4451,209.5,554.4451,219.5,558.4451,215.5,554.4451" style="stroke:#181818;stroke-width:1.0;"/><line style="stroke:#181818;stroke-width:1.0;stroke-dasharray:2.0,2.0;" x1="213.5" x2="442.5" y1="554.4451" y2="554.4451"/><text fill="#000000" font-family="sans-serif" font-size="13" font-weight="bold" lengthAdjust="spacing" textLength="7" x="225.5" y="549.1824">5</text><text fill="#000000" font-family="sans-serif" font-size="13" lengthAdjust="spacing" textLength="38" x="236.5" y="549.1824">Status</text><path d="M448,524.853 L448,567.853 L525,567.853 L525,534.853 L515,524.853 L448,524.853 " fill="#FEFFDD" style="stroke:#181818;stroke-width:0.5;"/><path d="M515,524.853 L515,534.853 L525,534.853 L515,524.853 " fill="#FEFFDD" style="stroke:#181818;stroke-width:0.5;"/><text fill="#000000" font-family="sans-serif" font-size="12" font-weight="bold" lengthAdjust="spacing" textLength="40" x="454" y="542.8022">Status:</text><text fill="#000000" font-family="monospace" font-size="13" lengthAdjust="spacing" textLength="32" x="454" y="559.8423">code</text><text fill="#000000" font-family="sans-serif" font-size="13" lengthAdjust="spacing" textLength="4" x="486" y="560.4834">:</text><text fill="#000000" font-family="monospace" font-size="13" lengthAdjust="spacing" textLength="16" x="494" y="559.8423">OK</text><polygon fill="#0000FF" points="521,648.8479,531,652.8479,521,652.8479" style="stroke:#0000FF;stroke-width:1.0;"/><line style="stroke:#0000FF;stroke-width:1.0;stroke-dasharray:2.0,2.0;" x1="443.5" x2="532" y1="652.8479" y2="652.8479"/><text fill="#000000" font-family="sans-serif" font-size="13" font-weight="bold" lengthAdjust="spacing" textLength="7" x="450.5" y="647.5852">6</text><text fill="#0000FF" font-family="sans-serif" font-size="13" lengthAdjust="spacing" textLength="41" x="461.5" y="647.5852">Update</text><path d="M538,578.7461 L538,710.7461 L894,710.7461 L894,588.7461 L884,578.7461 L538,578.7461 " fill="#FEFFDD" style="stroke:#181818;stroke-width:0.5;"/><path d="M884,578.7461 L884,588.7461 L894,588.7461 L884,578.7461 " fill="#FEFFDD" style="stroke:#181818;stroke-width:0.5;"/><text fill="#000000" font-family="sans-serif" font-size="12" font-weight="bold" lengthAdjust="spacing" textLength="43" x="544" y="596.6953">Update:</text><text fill="#000000" font-family="monospace" font-size="13" lengthAdjust="spacing" textLength="48" x="544" y="613.7354">topic:</text><text fill="#000000" font-family="sans-serif" font-size="13" lengthAdjust="spacing" textLength="4" x="596" y="614.3765">{</text><text fill="#000000" font-family="monospace" font-size="13" lengthAdjust="spacing" textLength="24" x="604" y="613.7354">uri</text><text fill="#000000" font-family="sans-serif" font-size="13" lengthAdjust="spacing" textLength="4" x="628" y="614.3765">:</text><text fill="#000000" font-family="monospace" font-size="13" font-style="italic" lengthAdjust="spacing" textLength="40" x="636" y="613.7354">topic</text><text fill="#000000" font-family="sans-serif" font-size="13" lengthAdjust="spacing" textLength="4" x="680" y="614.3765">}</text><text fill="#000000" font-family="monospace" font-size="13" lengthAdjust="spacing" textLength="80" x="544" y="631.6675">subscriber</text><text fill="#000000" font-family="sans-serif" font-size="13" lengthAdjust="spacing" textLength="12" x="624" y="632.3086">: {</text><text fill="#000000" font-family="monospace" font-size="13" lengthAdjust="spacing" textLength="24" x="640" y="631.6675">uri</text><text fill="#000000" font-family="sans-serif" font-size="13" lengthAdjust="spacing" textLength="215" x="664" y="632.3086">: " up://Device2/core.usubscription/" }</text><text fill="#000000" font-family="monospace" font-size="13" lengthAdjust="spacing" textLength="56" x="544" y="649.5996">status:</text><text fill="#000000" font-family="sans-serif" font-size="13" lengthAdjust="spacing" textLength="4" x="604" y="650.2407">{</text><text fill="#000000" font-family="monospace" font-size="13" lengthAdjust="spacing" textLength="40" x="608" y="667.5317">state</text><text fill="#000000" font-family="sans-serif" font-size="13" lengthAdjust="spacing" textLength="4" x="648" y="668.1729">:</text><text fill="#000000" font-family="monospace" font-size="13" lengthAdjust="spacing" textLength="96" x="656" y="667.5317">UNSUBSCRIBED</text><text fill="#000000" font-family="sans-serif" font-size="13" lengthAdjust="spacing" textLength="4" x="752" y="668.1729">,</text><text fill="#000000" font-family="monospace" font-size="13" lengthAdjust="spacing" textLength="32" x="608" y="685.4639">code</text><text fill="#000000" font-family="sans-serif" font-size="13" lengthAdjust="spacing" textLength="4" x="640" y="686.105">:</text><text fill="#000000" font-family="monospace" font-size="13" lengthAdjust="spacing" textLength="16" x="648" y="685.4639">OK</text><text fill="#000000" font-family="sans-serif" font-size="13" lengthAdjust="spacing" textLength="4" x="544" y="703.396">}</text><line style="stroke:#000000;stroke-width:1.0;stroke-dasharray:2.0,2.0;" x1="152.5" x2="909" y1="742.6587" y2="742.6587"/><text fill="#000000" font-family="sans-serif" font-size="11" font-weight="bold" lengthAdjust="spacing" textLength="45" x="157.5" y="754.5288">[Failure]</text><polygon fill="#181818" points="219.5,789.5466,209.5,793.5466,219.5,797.5466,215.5,793.5466" style="stroke:#181818;stroke-width:1.0;"/><line style="stroke:#181818;stroke-width:1.0;stroke-dasharray:2.0,2.0;" x1="213.5" x2="442.5" y1="793.5466" y2="793.5466"/><text fill="#000000" font-family="sans-serif" font-size="13" font-weight="bold" lengthAdjust="spacing" textLength="7" x="225.5" y="788.2839">7</text><text fill="#000000" font-family="sans-serif" font-size="13" lengthAdjust="spacing" textLength="38" x="236.5" y="788.2839">Status</text><path d="M448,763.2896 L448,808.2896 L893,808.2896 L893,773.2896 L883,763.2896 L448,763.2896 " fill="#FEFFDD" style="stroke:#181818;stroke-width:0.5;"/><path d="M883,763.2896 L883,773.2896 L893,773.2896 L883,763.2896 " fill="#FEFFDD" style="stroke:#181818;stroke-width:0.5;"/><text fill="#000000" font-family="sans-serif" font-size="12" font-weight="bold" lengthAdjust="spacing" textLength="40" x="454" y="782.5688">Status:</text><text fill="#000000" font-family="sans-serif" font-size="13" lengthAdjust="spacing" textLength="4" x="494" y="782.3179">&#160;</text><text fill="#000000" font-family="monospace" font-size="13" lengthAdjust="spacing" textLength="32" x="454" y="799.6089">code</text><text fill="#000000" font-family="sans-serif" font-size="13" lengthAdjust="spacing" textLength="4" x="486" y="800.25">:</text><text fill="#000000" font-family="monospace" font-size="13" lengthAdjust="spacing" textLength="384" x="494" y="799.6089">INVALID_ARGUMENT&#160;|&#160;NOT_FOUND&#160;|&#160;PERMISSION_DENIED</text><line style="stroke:#000000;stroke-width:1.0;stroke-dasharray:2.0,2.0;" x1="10" x2="919" y1="846.5127" y2="846.5127"/><text fill="#000000" font-family="sans-serif" font-size="11" font-weight="bold" lengthAdjust="spacing" textLength="183" x="15" y="858.3828">[uApp is NOT the last subscriber]</text><path d="M20,869.1436 L81,869.1436 L81,878.4346 L71,888.4346 L20,888.4346 L20,869.1436 " fill="#EEEEEE" style="stroke:#000000;stroke-width:1.5;"/><rect fill="none" height="145.0381" style="stroke:#000000;stroke-width:1.5;" width="653.5" x="20" y="869.1436"/><text fill="#000000" font-family="sans-serif" font-size="13" font-weight="bold" lengthAdjust="spacing" textLength="16" x="35" y="884.1719">alt</text><text fill="#000000" font-family="sans-serif" font-size="11" font-weight="bold" lengthAdjust="spacing" textLength="55" x="96" y="883.0137">[Success]</text><polygon fill="#181818" points="60.5,919.0266,50.5,923.0266,60.5,927.0266,56.5,923.0266" style="stroke:#181818;stroke-width:1.0;"/><line style="stroke:#181818;stroke-width:1.0;stroke-dasharray:2.0,2.0;" x1="54.5" x2="207.5" y1="923.0266" y2="923.0266"/><text fill="#000000" font-family="sans-serif" font-size="13" font-weight="bold" lengthAdjust="spacing" textLength="7" x="66.5" y="917.7639">8</text><text fill="#000000" font-family="sans-serif" font-size="13" lengthAdjust="spacing" textLength="38" x="77.5" y="917.7639">Status</text><path d="M213,893.4346 L213,936.4346 L290,936.4346 L290,903.4346 L280,893.4346 L213,893.4346 " fill="#FEFFDD" style="stroke:#181818;stroke-width:0.5;"/><path d="M280,893.4346 L280,903.4346 L290,903.4346 L280,893.4346 " fill="#FEFFDD" style="stroke:#181818;stroke-width:0.5;"/><text fill="#000000" font-family="sans-serif" font-size="12" font-weight="bold" lengthAdjust="spacing" textLength="40" x="219" y="911.3838">Status:</text><text fill="#000000" font-family="monospace" font-size="13" lengthAdjust="spacing" textLength="32" x="219" y="928.4238">code</text><text fill="#000000" font-family="sans-serif" font-size="13" lengthAdjust="spacing" textLength="4" x="251" y="929.0649">:</text><text fill="#000000" font-family="monospace" font-size="13" lengthAdjust="spacing" textLength="16" x="259" y="928.4238">OK</text><line style="stroke:#000000;stroke-width:1.0;stroke-dasharray:2.0,2.0;" x1="20" x2="673.5" y1="943.3276" y2="943.3276"/><text fill="#000000" font-family="sans-serif" font-size="11" font-weight="bold" lengthAdjust="spacing" textLength="45" x="25" y="955.1978">[Failure]</text><polygon fill="#181818" points="60.5,990.2156,50.5,994.2156,60.5,998.2156,56.5,994.2156" style="stroke:#181818;stroke-width:1.0;"/><line style="stroke:#181818;stroke-width:1.0;stroke-dasharray:2.0,2.0;" x1="54.5" x2="207.5" y1="994.2156" y2="994.2156"/><text fill="#000000" font-family="sans-serif" font-size="13" font-weight="bold" lengthAdjust="spacing" textLength="7" x="66.5" y="988.9529">9</text><text fill="#000000" font-family="sans-serif" font-size="13" lengthAdjust="spacing" textLength="38" x="77.5" y="988.9529">Status</text><path d="M213,963.9585 L213,1008.9585 L658,1008.9585 L658,973.9585 L648,963.9585 L213,963.9585 " fill="#FEFFDD" style="stroke:#181818;stroke-width:0.5;"/><path d="M648,963.9585 L648,973.9585 L658,973.9585 L648,963.9585 " fill="#FEFFDD" style="stroke:#181818;stroke-width:0.5;"/><text fill="#000000" font-family="sans-serif" font-size="12" font-weight="bold" lengthAdjust="spacing" textLength="40" x="219" y="983.2378">Status:</text><text fill="#000000" font-family="sans-serif" font-size="13" lengthAdjust="spacing" textLength="4" x="259" y="982.9868">&#160;</text><text fill="#000000" font-family="monospace" font-size="13" lengthAdjust="spacing" textLength="32" x="219" y="1000.2778">code</text><text fill="#000000" font-family="sans-serif" font-size="13" lengthAdjust="spacing" textLength="4" x="251" y="1000.9189">:</text><text fill="#000000" font-family="monospace" font-size="13" lengthAdjust="spacing" textLength="384" x="259" y="1000.2778">INVALID_ARGUMENT&#160;|&#160;NOT_FOUND&#160;|&#160;PERMISSION_DENIED</text><!--SRC=[nLHTRzem57sEVyMLUTY61XayHe14IwYYZL2HifSn8MFSnbg8izXUkut-zza97w60rggJnalCzV7nkUVOVXChbKdFTRE4f4glaYOLArUoxvgbb3MMdDpbP8KGqKgaUhLWELg81nYm7vooDjJkOwuOSWXL8WVTppAevMo979Oghdw2ZlH2qfndYeiKY8Her8BQ8XVtAMBf4WnNXQ-rupk_lBrTliFu3sIL9SpK4yrshAWGq-ZP7JsOfh9aMh2tixJoRs8xbUeTIeLYaFExM25mEfB_ObwhtQlNZx5UlTvnBQ07oC5OYOnJ3sFu3HZhd6FicO7h5dNNDHEFK01tFBc5LD6WCvF0nbFN2dVDgg8LAmkjrslKxS9bpEWtuBUWOWO9aGeIGKa2UsA8ZKSLnKleTX59L9aCb_kL-pMcNHjAmrXbKHv4YYWjaLDnnAawKixlNJ2p65EnP6NduuyOst0ssalo8WQpqm4dnjLuIzgcD1_3P8H30Pc6qVGYkfm45_xysWy7GNXrXhzz6FEfa9s3b5yGy_DpVa7GLEIigMN5WoBsIcysUCVc5sbAcPHMjBq2ZUsvtcPrQEnVqZeHrtxFxGvVQX_CRpZysfZjhfW7dLkHAg0Y4NdNNhVUD5kQl3gkhHT6dHLI8fyAUOQh9V2rfXOSfHTsDrjmPggiRQoe7BK1nkzXXpbootciMcPZCc2MI0P3mXETczfhSuAdGGNXv_wdO33lJwwc8p-yWJM4uvlvS3mD1sPyxKz6GHG5ut0-yCF0Td2WqOxCIIhUaaBfzaam9AUU1JWyUBQVrl4RyU_EtR5zfzwa_-_Vvli7]--></g></svg>