<?xml version="1.0" encoding="us-ascii" standalone="no"?><svg xmlns="http://www.w3.org/2000/svg" xmlns:xlink="http://www.w3.org/1999/xlink" contentStyleType="text/css" height="1081px" preserveAspectRatio="none" style="width:966px;height:1081px;background:#FFFFFF;" version="1.1" viewBox="0 0 966 1081" width="966px" zoomAndPan="magnify"><defs/><g><rect fill="#FFFFFF" height="1069.6274" style="stroke:#181818;stroke-width:0.5;" width="260.5" x="26" y="6"/><text fill="#000000" font-family="sans-serif" font-size="13" font-weight="bold" lengthAdjust="spacing" textLength="58" x="125.25" y="20.0283">uDevice1</text><rect fill="none" height="284.6885" style="stroke:#000000;stroke-width:1.5;" width="831" x="10" y="94.9121"/><rect fill="none" height="179.5723" style="stroke:#000000;stroke-width:1.5;" width="811" x="20" y="193.0283"/><rect fill="none" height="586.4058" style="stroke:#000000;stroke-width:1.5;" width="940" x="20" y="418.6006"/><rect fill="none" height="418.7075" style="stroke:#000000;stroke-width:1.5;" width="710.5" x="239.5" y="548.0078"/><line style="stroke:#181818;stroke-width:0.5;stroke-dasharray:5.0,5.0;" x1="51" x2="51" y1="77.9121" y2="1022.0063"/><line style="stroke:#181818;stroke-width:0.5;stroke-dasharray:5.0,5.0;" x1="265.5" x2="265.5" y1="77.9121" y2="1022.0063"/><line style="stroke:#181818;stroke-width:0.5;stroke-dasharray:5.0,5.0;" x1="480.5" x2="480.5" y1="77.9121" y2="1022.0063"/><rect fill="#FF0000" height="32.6211" style="stroke:#181818;stroke-width:0.5;" width="38" x="34" y="40.291"/><rect fill="#FF0000" height="32.6211" style="stroke:#181818;stroke-width:0.5;" width="38" x="30" y="44.291"/><text fill="#000000" font-family="sans-serif" font-size="14" lengthAdjust="spacing" textLength="24" x="37" y="66.3984">uEs</text><rect fill="#FF0000" height="32.6211" style="stroke:#181818;stroke-width:0.5;" width="38" x="34" y="1021.0063"/><rect fill="#FF0000" height="32.6211" style="stroke:#181818;stroke-width:0.5;" width="38" x="30" y="1025.0063"/><text fill="#000000" font-family="sans-serif" font-size="14" lengthAdjust="spacing" textLength="24" x="37" y="1047.1138">uEs</text><text fill="#000000" font-family="sans-serif" font-size="14" lengthAdjust="spacing" textLength="27" x="249.5" y="74.3984">LDS</text><ellipse cx="266" cy="43.291" fill="#FFA500" rx="12" ry="12" style="stroke:#181818;stroke-width:0.5;"/><line style="stroke:#181818;stroke-width:0.5;" x1="254" x2="278" y1="57.291" y2="57.291"/><text fill="#000000" font-family="sans-serif" font-size="14" lengthAdjust="spacing" textLength="27" x="249.5" y="1036.1138">LDS</text><ellipse cx="266" cy="1055.6274" fill="#FFA500" rx="12" ry="12" style="stroke:#181818;stroke-width:0.5;"/><line style="stroke:#181818;stroke-width:0.5;" x1="254" x2="278" y1="1069.6274" y2="1069.6274"/><text fill="#000000" font-family="sans-serif" font-size="14" lengthAdjust="spacing" textLength="29" x="463.5" y="74.3984">CDS</text><ellipse cx="481" cy="43.291" fill="#FFA500" rx="12" ry="12" style="stroke:#181818;stroke-width:0.5;"/><line style="stroke:#181818;stroke-width:0.5;" x1="469" x2="493" y1="57.291" y2="57.291"/><text fill="#000000" font-family="sans-serif" font-size="14" lengthAdjust="spacing" textLength="29" x="463.5" y="1036.1138">CDS</text><ellipse cx="481" cy="1055.6274" fill="#FFA500" rx="12" ry="12" style="stroke:#181818;stroke-width:0.5;"/><line style="stroke:#181818;stroke-width:0.5;" x1="469" x2="493" y1="1069.6274" y2="1069.6274"/><path d="M10,94.9121 L187,94.9121 L187,104.2031 L177,114.2031 L10,114.2031 L10,94.9121 " fill="#EEEEEE" style="stroke:#000000;stroke-width:1.5;"/><rect fill="none" height="284.6885" style="stroke:#000000;stroke-width:1.5;" width="831" x="10" y="94.9121"/><text fill="#000000" font-family="sans-serif" font-size="13" font-weight="bold" lengthAdjust="spacing" textLength="132" x="25" y="109.9404">Local uDevice Query</text><polygon fill="#181818" points="254,153.7612,264,157.7612,254,161.7612,258,157.7612" style="stroke:#181818;stroke-width:1.0;"/><line style="stroke:#181818;stroke-width:1.0;" x1="51" x2="260" y1="157.7612" y2="157.7612"/><text fill="#000000" font-family="sans-serif" font-size="13" font-weight="bold" lengthAdjust="spacing" textLength="7" x="58" y="152.4985">1</text><text fill="#000000" font-family="sans-serif" font-size="13" lengthAdjust="spacing" textLength="180" x="69" y="152.4985">FindNodes(FindNodesRequest)</text><path d="M271,119.2031 L271,180.2031 L494,180.2031 L494,129.2031 L484,119.2031 L271,119.2031 " fill="#FEFFDD" style="stroke:#181818;stroke-width:0.5;"/><path d="M484,119.2031 L484,129.2031 L494,129.2031 L484,119.2031 " fill="#FEFFDD" style="stroke:#181818;stroke-width:0.5;"/><text fill="#000000" font-family="sans-serif" font-size="12" font-weight="bold" lengthAdjust="spacing" textLength="109" x="277" y="137.1523">FindNodesRequest:</text><text fill="#000000" font-family="monospace" font-size="13" lengthAdjust="spacing" textLength="24" x="309" y="154.1924">uri</text><text fill="#000000" font-family="sans-serif" font-size="13" lengthAdjust="spacing" textLength="146" x="333" y="154.8335">:  "up://Device1/uService"</text><text fill="#000000" font-family="monospace" font-size="13" lengthAdjust="spacing" textLength="40" x="309" y="172.1245">depth</text><text fill="#000000" font-family="sans-serif" font-size="13" lengthAdjust="spacing" textLength="19" x="349" y="172.7656">: -1</text><path d="M20,193.0283 L81,193.0283 L81,202.3193 L71,212.3193 L20,212.3193 L20,193.0283 " fill="#EEEEEE" style="stroke:#000000;stroke-width:1.5;"/><rect fill="none" height="179.5723" style="stroke:#000000;stroke-width:1.5;" width="811" x="20" y="193.0283"/><text fill="#000000" font-family="sans-serif" font-size="13" font-weight="bold" lengthAdjust="spacing" textLength="16" x="35" y="208.0566">alt</text><text fill="#000000" font-family="sans-serif" font-size="11" font-weight="bold" lengthAdjust="spacing" textLength="42" x="96" y="206.8984">[Found]</text><polygon fill="#181818" points="62,251.8774,52,255.8774,62,259.8774,58,255.8774" style="stroke:#181818;stroke-width:1.0;"/><line style="stroke:#181818;stroke-width:1.0;stroke-dasharray:2.0,2.0;" x1="56" x2="265" y1="255.8774" y2="255.8774"/><text fill="#000000" font-family="sans-serif" font-size="13" font-weight="bold" lengthAdjust="spacing" textLength="7" x="68" y="250.6147">2</text><text fill="#000000" font-family="sans-serif" font-size="13" lengthAdjust="spacing" textLength="120" x="79" y="250.6147">FindNodesResponse</text><path d="M271,217.3193 L271,278.3193 L499,278.3193 L499,227.3193 L489,217.3193 L271,217.3193 " fill="#FEFFDD" style="stroke:#181818;stroke-width:0.5;"/><path d="M489,217.3193 L489,227.3193 L499,227.3193 L489,217.3193 " fill="#FEFFDD" style="stroke:#181818;stroke-width:0.5;"/><text fill="#000000" font-family="sans-serif" font-size="12" font-weight="bold" lengthAdjust="spacing" textLength="119" x="277" y="235.2686">FindNodesResponse:</text><text fill="#000000" font-family="monospace" font-size="13" lengthAdjust="spacing" textLength="40" x="309" y="252.3086">nodes</text><text fill="#000000" font-family="sans-serif" font-size="13" lengthAdjust="spacing" textLength="12" x="349" y="252.9497">: {</text><text fill="#000000" font-family="sans-serif" font-size="13" font-style="italic" lengthAdjust="spacing" textLength="111" x="365" y="252.9497">One or more nodes</text><text fill="#000000" font-family="sans-serif" font-size="13" lengthAdjust="spacing" textLength="4" x="480" y="252.9497">}</text><text fill="#000000" font-family="monospace" font-size="13" lengthAdjust="spacing" textLength="48" x="309" y="270.2407">status</text><text fill="#000000" font-family="sans-serif" font-size="13" lengthAdjust="spacing" textLength="12" x="357" y="270.8818">: {</text><text fill="#000000" font-family="monospace" font-size="13" lengthAdjust="spacing" textLength="32" x="369" y="270.2407">code</text><text fill="#000000" font-family="sans-serif" font-size="13" lengthAdjust="spacing" textLength="4" x="401" y="270.8818">:</text><text fill="#000000" font-family="monospace" font-size="13" lengthAdjust="spacing" textLength="16" x="409" y="270.2407">OK</text><text fill="#000000" font-family="sans-serif" font-size="13" lengthAdjust="spacing" textLength="4" x="425" y="270.8818">}</text><line style="stroke:#000000;stroke-width:1.0;stroke-dasharray:2.0,2.0;" x1="20" x2="831" y1="285.1445" y2="285.1445"/><text fill="#000000" font-family="sans-serif" font-size="11" font-weight="bold" lengthAdjust="spacing" textLength="36" x="25" y="297.0146">[Error]</text><polygon fill="#181818" points="62,340.3335,52,344.3335,62,348.3335,58,344.3335" style="stroke:#181818;stroke-width:1.0;"/><line style="stroke:#181818;stroke-width:1.0;stroke-dasharray:2.0,2.0;" x1="56" x2="265" y1="344.3335" y2="344.3335"/><text fill="#000000" font-family="sans-serif" font-size="13" font-weight="bold" lengthAdjust="spacing" textLength="7" x="68" y="339.0708">3</text><text fill="#000000" font-family="sans-serif" font-size="13" lengthAdjust="spacing" textLength="120" x="79" y="339.0708">FindNodesResponse</text><path d="M271,305.7754 L271,366.7754 L816,366.7754 L816,315.7754 L806,305.7754 L271,305.7754 " fill="#FEFFDD" style="stroke:#181818;stroke-width:0.5;"/><path d="M806,305.7754 L806,315.7754 L816,315.7754 L806,305.7754 " fill="#FEFFDD" style="stroke:#181818;stroke-width:0.5;"/><text fill="#000000" font-family="sans-serif" font-size="12" font-weight="bold" lengthAdjust="spacing" textLength="119" x="277" y="323.7246">FindNodesResponse:</text><text fill="#000000" font-family="monospace" font-size="13" lengthAdjust="spacing" textLength="40" x="309" y="340.7646">nodes</text><text fill="#000000" font-family="sans-serif" font-size="13" lengthAdjust="spacing" textLength="12" x="349" y="341.4058">: {</text><text fill="#000000" font-family="sans-serif" font-size="13" font-style="italic" lengthAdjust="spacing" textLength="71" x="365" y="341.4058">Empty Node</text><text fill="#000000" font-family="sans-serif" font-size="13" lengthAdjust="spacing" textLength="4" x="440" y="341.4058">}</text><text fill="#000000" font-family="monospace" font-size="13" lengthAdjust="spacing" textLength="48" x="309" y="358.6968">status</text><text fill="#000000" font-family="sans-serif" font-size="13" lengthAdjust="spacing" textLength="12" x="357" y="359.3379">: {</text><text fill="#000000" font-family="monospace" font-size="13" lengthAdjust="spacing" textLength="32" x="369" y="358.6968">code</text><text fill="#000000" font-family="sans-serif" font-size="13" lengthAdjust="spacing" textLength="4" x="401" y="359.3379">:</text><text fill="#000000" font-family="monospace" font-size="13" lengthAdjust="spacing" textLength="384" x="413" y="358.6968">INVALID_ARGUMENT&#160;|&#160;NOT_FOUND&#160;|&#160;PERMISSION_DENIED</text><text fill="#000000" font-family="sans-serif" font-size="13" lengthAdjust="spacing" textLength="4" x="797" y="359.3379">}</text><path d="M20,418.6006 L211,418.6006 L211,427.8916 L201,437.8916 L20,437.8916 L20,418.6006 " fill="#EEEEEE" style="stroke:#000000;stroke-width:1.5;"/><rect fill="none" height="586.4058" style="stroke:#000000;stroke-width:1.5;" width="940" x="20" y="418.6006"/><text fill="#000000" font-family="sans-serif" font-size="13" font-weight="bold" lengthAdjust="spacing" textLength="146" x="35" y="433.6289">Remote uDevice Query</text><polygon fill="#181818" points="254,477.4497,264,481.4497,254,485.4497,258,481.4497" style="stroke:#181818;stroke-width:1.0;"/><line style="stroke:#181818;stroke-width:1.0;" x1="51" x2="260" y1="481.4497" y2="481.4497"/><text fill="#000000" font-family="sans-serif" font-size="13" font-weight="bold" lengthAdjust="spacing" textLength="7" x="58" y="476.187">4</text><text fill="#000000" font-family="sans-serif" font-size="13" lengthAdjust="spacing" textLength="180" x="69" y="476.187">FindNodes(FindNodesRequest)</text><path d="M271,442.8916 L271,503.8916 L494,503.8916 L494,452.8916 L484,442.8916 L271,442.8916 " fill="#FEFFDD" style="stroke:#181818;stroke-width:0.5;"/><path d="M484,442.8916 L484,452.8916 L494,452.8916 L484,442.8916 " fill="#FEFFDD" style="stroke:#181818;stroke-width:0.5;"/><text fill="#000000" font-family="sans-serif" font-size="12" font-weight="bold" lengthAdjust="spacing" textLength="109" x="277" y="460.8408">FindNodesRequest:</text><text fill="#000000" font-family="monospace" font-size="13" lengthAdjust="spacing" textLength="24" x="309" y="477.8809">uri</text><text fill="#000000" font-family="sans-serif" font-size="13" lengthAdjust="spacing" textLength="146" x="333" y="478.522">:  "up://Device2/uService"</text><text fill="#000000" font-family="monospace" font-size="13" lengthAdjust="spacing" textLength="40" x="309" y="495.813">depth</text><text fill="#000000" font-family="sans-serif" font-size="13" lengthAdjust="spacing" textLength="19" x="349" y="496.4541">: -1</text><polygon fill="#181818" points="469,529.0078,479,533.0078,469,537.0078,473,533.0078" style="stroke:#181818;stroke-width:1.0;"/><line style="stroke:#181818;stroke-width:1.0;" x1="266" x2="475" y1="533.0078" y2="533.0078"/><text fill="#000000" font-family="sans-serif" font-size="13" font-weight="bold" lengthAdjust="spacing" textLength="7" x="273" y="527.7451">5</text><text fill="#000000" font-family="sans-serif" font-size="13" lengthAdjust="spacing" textLength="180" x="284" y="527.7451">FindNodes(FindNodesRequest)</text><path d="M239.5,548.0078 L300.5,548.0078 L300.5,557.2988 L290.5,567.2988 L239.5,567.2988 L239.5,548.0078 " fill="#EEEEEE" style="stroke:#000000;stroke-width:1.5;"/><rect fill="none" height="418.7075" style="stroke:#000000;stroke-width:1.5;" width="710.5" x="239.5" y="548.0078"/><text fill="#000000" font-family="sans-serif" font-size="13" font-weight="bold" lengthAdjust="spacing" textLength="16" x="254.5" y="563.0361">alt</text><text fill="#000000" font-family="sans-serif" font-size="11" font-weight="bold" lengthAdjust="spacing" textLength="42" x="315.5" y="561.8779">[Found]</text><polygon fill="#181818" points="277,606.8569,267,610.8569,277,614.8569,273,610.8569" style="stroke:#181818;stroke-width:1.0;"/><line style="stroke:#181818;stroke-width:1.0;stroke-dasharray:2.0,2.0;" x1="271" x2="480" y1="610.8569" y2="610.8569"/><text fill="#000000" font-family="sans-serif" font-size="13" font-weight="bold" lengthAdjust="spacing" textLength="7" x="283" y="605.5942">6</text><text fill="#000000" font-family="sans-serif" font-size="13" lengthAdjust="spacing" textLength="120" x="294" y="605.5942">FindNodesResponse</text><path d="M486,572.2988 L486,633.2988 L714,633.2988 L714,582.2988 L704,572.2988 L486,572.2988 " fill="#FEFFDD" style="stroke:#181818;stroke-width:0.5;"/><path d="M704,572.2988 L704,582.2988 L714,582.2988 L704,572.2988 " fill="#FEFFDD" style="stroke:#181818;stroke-width:0.5;"/><text fill="#000000" font-family="sans-serif" font-size="12" font-weight="bold" lengthAdjust="spacing" textLength="119" x="492" y="590.248">FindNodesResponse:</text><text fill="#000000" font-family="monospace" font-size="13" lengthAdjust="spacing" textLength="40" x="524" y="607.2881">nodes</text><text fill="#000000" font-family="sans-serif" font-size="13" lengthAdjust="spacing" textLength="12" x="564" y="607.9292">: {</text><text fill="#000000" font-family="sans-serif" font-size="13" font-style="italic" lengthAdjust="spacing" textLength="111" x="580" y="607.9292">One or more nodes</text><text fill="#000000" font-family="sans-serif" font-size="13" lengthAdjust="spacing" textLength="4" x="695" y="607.9292">}</text><text fill="#000000" font-family="monospace" font-size="13" lengthAdjust="spacing" textLength="48" x="524" y="625.2202">status</text><text fill="#000000" font-family="sans-serif" font-size="13" lengthAdjust="spacing" textLength="12" x="572" y="625.8613">: {</text><text fill="#000000" font-family="monospace" font-size="13" lengthAdjust="spacing" textLength="32" x="584" y="625.2202">code</text><text fill="#000000" font-family="sans-serif" font-size="13" lengthAdjust="spacing" textLength="4" x="616" y="625.8613">:</text><text fill="#000000" font-family="monospace" font-size="13" lengthAdjust="spacing" textLength="16" x="624" y="625.2202">OK</text><text fill="#000000" font-family="sans-serif" font-size="13" lengthAdjust="spacing" textLength="4" x="640" y="625.8613">}</text><line style="stroke:#181818;stroke-width:1.0;" x1="266" x2="308" y1="662.415" y2="662.415"/><line style="stroke:#181818;stroke-width:1.0;" x1="308" x2="308" y1="662.415" y2="675.415"/><line style="stroke:#181818;stroke-width:1.0;" x1="267" x2="308" y1="675.415" y2="675.415"/><polygon fill="#181818" points="277,671.415,267,675.415,277,679.415,273,675.415" style="stroke:#181818;stroke-width:1.0;"/><text fill="#000000" font-family="sans-serif" font-size="13" font-weight="bold" lengthAdjust="spacing" textLength="7" x="273" y="657.1523">7</text><text fill="#000000" font-family="sans-serif" font-size="13" lengthAdjust="spacing" textLength="140" x="284" y="657.1523">Cache Node Info (per ttl)</text><line style="stroke:#000000;stroke-width:1.0;stroke-dasharray:2.0,2.0;" x1="239.5" x2="950" y1="684.415" y2="684.415"/><text fill="#000000" font-family="sans-serif" font-size="11" font-weight="bold" lengthAdjust="spacing" textLength="68" x="244.5" y="696.2852">[NOT FOUND]</text><polygon fill="#181818" points="277,748.5701,267,752.5701,277,756.5701,273,752.5701" style="stroke:#181818;stroke-width:1.0;"/><line style="stroke:#181818;stroke-width:1.0;stroke-dasharray:2.0,2.0;" x1="271" x2="480" y1="752.5701" y2="752.5701"/><text fill="#000000" font-family="sans-serif" font-size="13" font-weight="bold" lengthAdjust="spacing" textLength="7" x="283" y="747.3074">8</text><text fill="#000000" font-family="sans-serif" font-size="13" lengthAdjust="spacing" textLength="120" x="294" y="747.3074">FindNodesResponse</text><path d="M486,705.0459 L486,784.0459 L719,784.0459 L719,715.0459 L709,705.0459 L486,705.0459 " fill="#FEFFDD" style="stroke:#181818;stroke-width:0.5;"/><path d="M709,705.0459 L709,715.0459 L719,715.0459 L709,705.0459 " fill="#FEFFDD" style="stroke:#181818;stroke-width:0.5;"/><text fill="#000000" font-family="sans-serif" font-size="12" font-weight="bold" lengthAdjust="spacing" textLength="119" x="492" y="722.9951">FindNodesResponse:</text><text fill="#000000" font-family="monospace" font-size="13" lengthAdjust="spacing" textLength="40" x="524" y="740.0352">nodes</text><text fill="#000000" font-family="sans-serif" font-size="13" lengthAdjust="spacing" textLength="12" x="564" y="740.6763">: {</text><text fill="#000000" font-family="sans-serif" font-size="13" font-style="italic" lengthAdjust="spacing" textLength="71" x="580" y="740.6763">Empty Node</text><text fill="#000000" font-family="sans-serif" font-size="13" lengthAdjust="spacing" textLength="4" x="655" y="740.6763">}</text><text fill="#000000" font-family="monospace" font-size="13" lengthAdjust="spacing" textLength="48" x="524" y="757.9673">status</text><text fill="#000000" font-family="sans-serif" font-size="13" lengthAdjust="spacing" textLength="12" x="572" y="758.6084">: {</text><text fill="#000000" font-family="monospace" font-size="13" lengthAdjust="spacing" textLength="32" x="584" y="757.9673">code</text><text fill="#000000" font-family="sans-serif" font-size="13" lengthAdjust="spacing" textLength="4" x="616" y="758.6084">:</text><text fill="#000000" font-family="monospace" font-size="13" lengthAdjust="spacing" textLength="72" x="628" y="757.9673">NOT_FOUND</text><text fill="#000000" font-family="sans-serif" font-size="13" lengthAdjust="spacing" textLength="4" x="700" y="758.6084">}</text><text fill="#000000" font-family="monospace" font-size="13" lengthAdjust="spacing" textLength="24" x="524" y="775.8994">ttl</text><text fill="#000000" font-family="sans-serif" font-size="13" lengthAdjust="spacing" textLength="71" x="548" y="776.5405">: 432000000</text><text fill="#000000" font-family="sans-serif" font-size="13" font-style="italic" lengthAdjust="spacing" textLength="60" x="623" y="776.5405">/* 5 days *</text><text fill="#000000" font-family="sans-serif" font-size="13" lengthAdjust="spacing" textLength="4" x="683" y="776.5405">/</text><line style="stroke:#181818;stroke-width:1.0;" x1="266" x2="308" y1="826.8613" y2="826.8613"/><line style="stroke:#181818;stroke-width:1.0;" x1="308" x2="308" y1="826.8613" y2="839.8613"/><line style="stroke:#181818;stroke-width:1.0;" x1="267" x2="308" y1="839.8613" y2="839.8613"/><polygon fill="#181818" points="277,835.8613,267,839.8613,277,843.8613,273,839.8613" style="stroke:#181818;stroke-width:1.0;"/><text fill="#000000" font-family="sans-serif" font-size="13" font-weight="bold" lengthAdjust="spacing" textLength="7" x="273" y="821.5986">9</text><text fill="#000000" font-family="sans-serif" font-size="13" lengthAdjust="spacing" textLength="140" x="284" y="821.5986">Cache Node Info (per ttl)</text><path d="M436,794.8032 L436,855.8032 L733,855.8032 L733,804.8032 L723,794.8032 L436,794.8032 " fill="#FEFFDD" style="stroke:#181818;stroke-width:0.5;"/><path d="M723,794.8032 L723,804.8032 L733,804.8032 L723,794.8032 " fill="#FEFFDD" style="stroke:#181818;stroke-width:0.5;"/><text fill="#000000" font-family="sans-serif" font-size="12" font-weight="bold" lengthAdjust="spacing" textLength="119" x="442" y="812.7524">FindNodesResponse:</text><text fill="#000000" font-family="monospace" font-size="13" lengthAdjust="spacing" textLength="40" x="474" y="829.7925">nodes</text><text fill="#000000" font-family="sans-serif" font-size="13" lengthAdjust="spacing" textLength="12" x="514" y="830.4336">: {</text><text fill="#000000" font-family="sans-serif" font-size="13" font-style="italic" lengthAdjust="spacing" textLength="71" x="530" y="830.4336">Empty Node</text><text fill="#000000" font-family="sans-serif" font-size="13" lengthAdjust="spacing" textLength="4" x="605" y="830.4336">}</text><text fill="#000000" font-family="monospace" font-size="13" lengthAdjust="spacing" textLength="48" x="474" y="847.7246">status</text><text fill="#000000" font-family="sans-serif" font-size="13" lengthAdjust="spacing" textLength="12" x="522" y="848.3657">: {</text><text fill="#000000" font-family="monospace" font-size="13" lengthAdjust="spacing" textLength="32" x="534" y="847.7246">code</text><text fill="#000000" font-family="sans-serif" font-size="13" lengthAdjust="spacing" textLength="4" x="566" y="848.3657">:</text><text fill="#000000" font-family="monospace" font-size="13" lengthAdjust="spacing" textLength="136" x="578" y="847.7246">DEADLINE_EXCEEDED</text><text fill="#000000" font-family="sans-serif" font-size="13" lengthAdjust="spacing" textLength="4" x="714" y="848.3657">}</text><line style="stroke:#000000;stroke-width:1.0;stroke-dasharray:2.0,2.0;" x1="239.5" x2="950" y1="862.6284" y2="862.6284"/><text fill="#000000" font-family="sans-serif" font-size="11" font-weight="bold" lengthAdjust="spacing" textLength="56" x="244.5" y="874.4985">[TIMEOUT]</text><line style="stroke:#000000;stroke-width:1.0;stroke-dasharray:2.0,2.0;" x1="239.5" x2="950" y1="879.2593" y2="879.2593"/><text fill="#000000" font-family="sans-serif" font-size="11" font-weight="bold" lengthAdjust="spacing" textLength="43" x="244.5" y="891.1294">[ERROR]</text><polygon fill="#181818" points="277,934.4482,267,938.4482,277,942.4482,273,938.4482" style="stroke:#181818;stroke-width:1.0;"/><line style="stroke:#181818;stroke-width:1.0;stroke-dasharray:2.0,2.0;" x1="271" x2="480" y1="938.4482" y2="938.4482"/><text fill="#000000" font-family="sans-serif" font-size="13" font-weight="bold" lengthAdjust="spacing" textLength="14" x="283" y="933.1855">10</text><text fill="#000000" font-family="sans-serif" font-size="13" lengthAdjust="spacing" textLength="120" x="301" y="933.1855">FindNodesResponse</text><path d="M486,899.8901 L486,960.8901 L935,960.8901 L935,909.8901 L925,899.8901 L486,899.8901 " fill="#FEFFDD" style="stroke:#181818;stroke-width:0.5;"/><path d="M925,899.8901 L925,909.8901 L935,909.8901 L925,899.8901 " fill="#FEFFDD" style="stroke:#181818;stroke-width:0.5;"/><text fill="#000000" font-family="sans-serif" font-size="12" font-weight="bold" lengthAdjust="spacing" textLength="119" x="492" y="917.8394">FindNodesResponse:</text><text fill="#000000" font-family="monospace" font-size="13" lengthAdjust="spacing" textLength="40" x="524" y="934.8794">nodes</text><text fill="#000000" font-family="sans-serif" font-size="13" lengthAdjust="spacing" textLength="12" x="564" y="935.5205">: {</text><text fill="#000000" font-family="sans-serif" font-size="13" font-style="italic" lengthAdjust="spacing" textLength="111" x="580" y="935.5205">One or more nodes</text><text fill="#000000" font-family="sans-serif" font-size="13" lengthAdjust="spacing" textLength="4" x="695" y="935.5205">}</text><text fill="#000000" font-family="monospace" font-size="13" lengthAdjust="spacing" textLength="48" x="524" y="952.8115">status</text><text fill="#000000" font-family="sans-serif" font-size="13" lengthAdjust="spacing" textLength="12" x="572" y="953.4526">: {</text><text fill="#000000" font-family="monospace" font-size="13" lengthAdjust="spacing" textLength="32" x="584" y="952.8115">code</text><text fill="#000000" font-family="sans-serif" font-size="13" lengthAdjust="spacing" textLength="4" x="616" y="953.4526">:</text><text fill="#000000" font-family="monospace" font-size="13" lengthAdjust="spacing" textLength="288" x="628" y="952.8115">INVALID_ARGUMENT&#160;|&#160;PERMISSION_DENIED</text><text fill="#000000" font-family="sans-serif" font-size="13" lengthAdjust="spacing" textLength="4" x="916" y="953.4526">}</text><polygon fill="#181818" points="62,993.0063,52,997.0063,62,1001.0063,58,997.0063" style="stroke:#181818;stroke-width:1.0;"/><line style="stroke:#181818;stroke-width:1.0;stroke-dasharray:2.0,2.0;" x1="56" x2="265" y1="997.0063" y2="997.0063"/><text fill="#000000" font-family="sans-serif" font-size="13" font-weight="bold" lengthAdjust="spacing" textLength="14" x="68" y="991.7437">11</text><text fill="#000000" font-family="sans-serif" font-size="13" lengthAdjust="spacing" textLength="120" x="86" y="991.7437">FindNodesResponse</text><!--SRC=[pLHHZz9047xk_eh9yk1T4woWlf0B2Q6BQOHM2nZVIAyTeKcxMxUxAeh_tTrIpkFKS7SnvFeqpNoP-RwTR-RPHgcg7dXULIHSwR9udehIg_6pHfvYDykJjKnAGXAj1DVbDKf2hiKtq3v-oLFiGUVh9bT8dB4e2anLBdWDcjNGaPWH1xdArHQc_XmwGYPyZGHv1gO2QLFZMocoba9NC1LfKXmwm7kDSaiSMxCxj9K6CCbv5eeCwukRABQCQtL901mk58BCrnj5dAiw_uw3Nd_ekdUn0zUzycnwI1o7KYrpIWS0L5VcELfvdfwZj15jC1bMQcDHtPxLbe5jHPoaK30HcXl1ZfNQDKGDtrj4Owmhyp86UyJk7_Jss2D-fZctITly1tXUn164X598X2RXUV1pZwjLelGUI6bgSZQaD7fBgKNyfer5ZS2a59B0sOYpiZ9Jj_WJZ0tb8FmmcWR-QXI_MSvOk80TXD5YDOcMeM_YTooU1VDv48KhduK1y-y81B2X6Oxr7DdjTgs_OYojb4SQx3_Qgty_UpMJ6TfDEM7z8oEEstaU2tgIHZmeRAYEatI3ZK4Wu9y4N5GeGQdYiZMiSG0q3h2hVYwL3t7jZKNtCWtIiBUvLo_xBvhF5FHSU0rPigt1DJ-FVur5C6FHSc4N-FnAVJRofq78LkpZc37_pmLiJqmSHp619sl9lr-QqzV5EPoNKxVJu7u1]--></g></svg>