<?xml version="1.0" encoding="us-ascii" standalone="no"?><svg xmlns="http://www.w3.org/2000/svg" xmlns:xlink="http://www.w3.org/1999/xlink" contentStyleType="text/css" height="928px" preserveAspectRatio="none" style="width:927px;height:928px;background:#FFFFFF;" version="1.1" viewBox="0 0 927 928" width="927px" zoomAndPan="magnify"><defs/><g><rect fill="#FFFFFF" height="916.4717" style="stroke:#181818;stroke-width:0.5;" width="210.5" x="26" y="6"/><text fill="#000000" font-family="sans-serif" font-size="13" font-weight="bold" lengthAdjust="spacing" textLength="51" x="103.75" y="20.0283">uDevice</text><rect fill="none" height="669.0942" style="stroke:#000000;stroke-width:1.5;" width="910" x="10" y="151.4653"/><rect fill="none" height="317.0278" style="stroke:#000000;stroke-width:1.5;" width="890" x="20" y="423.3477"/><line style="stroke:#181818;stroke-width:0.5;stroke-dasharray:5.0,5.0;" x1="51" x2="51" y1="77.9121" y2="868.8506"/><line style="stroke:#181818;stroke-width:0.5;stroke-dasharray:5.0,5.0;" x1="215.5" x2="215.5" y1="77.9121" y2="868.8506"/><line style="stroke:#181818;stroke-width:0.5;stroke-dasharray:5.0,5.0;" x1="380.5" x2="380.5" y1="77.9121" y2="868.8506"/><rect fill="#FF0000" height="32.6211" style="stroke:#181818;stroke-width:0.5;" width="38" x="34" y="40.291"/><rect fill="#FF0000" height="32.6211" style="stroke:#181818;stroke-width:0.5;" width="38" x="30" y="44.291"/><text fill="#000000" font-family="sans-serif" font-size="14" lengthAdjust="spacing" textLength="24" x="37" y="66.3984">uEs</text><rect fill="#FF0000" height="32.6211" style="stroke:#181818;stroke-width:0.5;" width="38" x="34" y="867.8506"/><rect fill="#FF0000" height="32.6211" style="stroke:#181818;stroke-width:0.5;" width="38" x="30" y="871.8506"/><text fill="#000000" font-family="sans-serif" font-size="14" lengthAdjust="spacing" textLength="24" x="37" y="893.958">uEs</text><text fill="#000000" font-family="sans-serif" font-size="14" lengthAdjust="spacing" textLength="27" x="199.5" y="74.3984">LDS</text><ellipse cx="216" cy="43.291" fill="#FFA500" rx="12" ry="12" style="stroke:#181818;stroke-width:0.5;"/><line style="stroke:#181818;stroke-width:0.5;" x1="204" x2="228" y1="57.291" y2="57.291"/><text fill="#000000" font-family="sans-serif" font-size="14" lengthAdjust="spacing" textLength="27" x="199.5" y="882.958">LDS</text><ellipse cx="216" cy="902.4717" fill="#FFA500" rx="12" ry="12" style="stroke:#181818;stroke-width:0.5;"/><line style="stroke:#181818;stroke-width:0.5;" x1="204" x2="228" y1="916.4717" y2="916.4717"/><text fill="#000000" font-family="sans-serif" font-size="14" lengthAdjust="spacing" textLength="29" x="363.5" y="74.3984">CDS</text><ellipse cx="381" cy="43.291" fill="#FFA500" rx="12" ry="12" style="stroke:#181818;stroke-width:0.5;"/><line style="stroke:#181818;stroke-width:0.5;" x1="369" x2="393" y1="57.291" y2="57.291"/><text fill="#000000" font-family="sans-serif" font-size="14" lengthAdjust="spacing" textLength="29" x="363.5" y="882.958">CDS</text><ellipse cx="381" cy="902.4717" fill="#FFA500" rx="12" ry="12" style="stroke:#181818;stroke-width:0.5;"/><line style="stroke:#181818;stroke-width:0.5;" x1="369" x2="393" y1="916.4717" y2="916.4717"/><polygon fill="#181818" points="204,119.8342,214,123.8342,204,127.8342,208,123.8342" style="stroke:#181818;stroke-width:1.0;"/><line style="stroke:#181818;stroke-width:1.0;" x1="51" x2="210" y1="123.8342" y2="123.8342"/><text fill="#000000" font-family="sans-serif" font-size="13" font-weight="bold" lengthAdjust="spacing" textLength="7" x="58" y="118.5715">1</text><text fill="#000000" font-family="sans-serif" font-size="13" lengthAdjust="spacing" textLength="130" x="69" y="118.5715">LookupUri(UriRequest)</text><path d="M221,92.9121 L221,138.9121 L325,138.9121 L325,102.9121 L315,92.9121 L221,92.9121 " fill="#FEFFDD" style="stroke:#181818;stroke-width:0.5;"/><path d="M315,92.9121 L315,102.9121 L325,102.9121 L315,92.9121 " fill="#FEFFDD" style="stroke:#181818;stroke-width:0.5;"/><text fill="#000000" font-family="sans-serif" font-size="14" font-weight="bold" lengthAdjust="spacing" textLength="83" x="227" y="113.0195">UriRequest:</text><text fill="#000000" font-family="monospace" font-size="13" lengthAdjust="spacing" textLength="24" x="227" y="130.5615">uri</text><text fill="#000000" font-family="sans-serif" font-size="13" lengthAdjust="spacing" textLength="4" x="251" y="131.2026">:</text><text fill="#000000" font-family="monospace" font-size="13" font-style="italic" lengthAdjust="spacing" textLength="40" x="259" y="130.5615">topic</text><path d="M10,151.4653 L71,151.4653 L71,160.7563 L61,170.7563 L10,170.7563 L10,151.4653 " fill="#EEEEEE" style="stroke:#000000;stroke-width:1.5;"/><rect fill="none" height="669.0942" style="stroke:#000000;stroke-width:1.5;" width="910" x="10" y="151.4653"/><text fill="#000000" font-family="sans-serif" font-size="13" font-weight="bold" lengthAdjust="spacing" textLength="16" x="25" y="166.4937">alt</text><text fill="#000000" font-family="sans-serif" font-size="11" font-weight="bold" lengthAdjust="spacing" textLength="83" x="86" y="165.3354">[Found Locally]</text><polygon fill="#181818" points="62,211.6445,52,215.6445,62,219.6445,58,215.6445" style="stroke:#181818;stroke-width:1.0;"/><line style="stroke:#181818;stroke-width:1.0;stroke-dasharray:2.0,2.0;" x1="56" x2="215" y1="215.6445" y2="215.6445"/><text fill="#000000" font-family="sans-serif" font-size="13" font-weight="bold" lengthAdjust="spacing" textLength="7" x="68" y="210.3818">2</text><text fill="#000000" font-family="sans-serif" font-size="13" lengthAdjust="spacing" textLength="74" x="79" y="210.3818">UriResponse</text><path d="M221,175.7563 L221,239.7563 L378,239.7563 L378,185.7563 L368,175.7563 L221,175.7563 " fill="#FEFFDD" style="stroke:#181818;stroke-width:0.5;"/><path d="M368,175.7563 L368,185.7563 L378,185.7563 L368,175.7563 " fill="#FEFFDD" style="stroke:#181818;stroke-width:0.5;"/><text fill="#000000" font-family="sans-serif" font-size="14" font-weight="bold" lengthAdjust="spacing" textLength="83" x="227" y="195.8638">UriRequest:</text><text fill="#000000" font-family="monospace" font-size="13" lengthAdjust="spacing" textLength="32" x="227" y="213.4058">uris</text><text fill="#000000" font-family="sans-serif" font-size="13" lengthAdjust="spacing" textLength="12" x="259" y="214.0469">: {</text><text fill="#000000" font-family="monospace" font-size="13" font-style="italic" lengthAdjust="spacing" textLength="40" x="271" y="213.4058">topic</text><text fill="#000000" font-family="sans-serif" font-size="13" lengthAdjust="spacing" textLength="4" x="311" y="214.0469">,</text><text fill="#000000" font-family="monospace" font-size="13" font-style="italic" lengthAdjust="spacing" textLength="40" x="319" y="213.4058">topic</text><text fill="#000000" font-family="sans-serif" font-size="13" lengthAdjust="spacing" textLength="4" x="359" y="214.0469">}</text><text fill="#000000" font-family="monospace" font-size="13" lengthAdjust="spacing" textLength="48" x="227" y="231.3379">result</text><text fill="#000000" font-family="sans-serif" font-size="13" lengthAdjust="spacing" textLength="12" x="275" y="231.979">: {</text><text fill="#000000" font-family="monospace" font-size="13" lengthAdjust="spacing" textLength="32" x="287" y="231.3379">code</text><text fill="#000000" font-family="sans-serif" font-size="13" lengthAdjust="spacing" textLength="4" x="319" y="231.979">:</text><text fill="#000000" font-family="monospace" font-size="13" lengthAdjust="spacing" textLength="16" x="327" y="231.3379">OK</text><text fill="#000000" font-family="sans-serif" font-size="13" lengthAdjust="spacing" textLength="4" x="343" y="231.979">}</text><line style="stroke:#000000;stroke-width:1.0;stroke-dasharray:2.0,2.0;" x1="10" x2="920" y1="271.2417" y2="271.2417"/><text fill="#000000" font-family="sans-serif" font-size="11" font-weight="bold" lengthAdjust="spacing" textLength="225" x="15" y="283.1118">[Invalid Argument or Permission Denied]</text><polygon fill="#181818" points="62,318.7947,52,322.7947,62,326.7947,58,322.7947" style="stroke:#181818;stroke-width:1.0;"/><line style="stroke:#181818;stroke-width:1.0;stroke-dasharray:2.0,2.0;" x1="56" x2="215" y1="322.7947" y2="322.7947"/><text fill="#000000" font-family="sans-serif" font-size="13" font-weight="bold" lengthAdjust="spacing" textLength="7" x="68" y="317.532">3</text><text fill="#000000" font-family="sans-serif" font-size="13" lengthAdjust="spacing" textLength="74" x="79" y="317.532">UriResponse</text><path d="M221,291.8726 L221,337.8726 L646,337.8726 L646,301.8726 L636,291.8726 L221,291.8726 " fill="#FEFFDD" style="stroke:#181818;stroke-width:0.5;"/><path d="M636,291.8726 L636,301.8726 L646,301.8726 L636,291.8726 " fill="#FEFFDD" style="stroke:#181818;stroke-width:0.5;"/><text fill="#000000" font-family="sans-serif" font-size="14" font-weight="bold" lengthAdjust="spacing" textLength="95" x="227" y="311.98">UriResponse:</text><text fill="#000000" font-family="monospace" font-size="13" lengthAdjust="spacing" textLength="48" x="227" y="329.522">result</text><text fill="#000000" font-family="sans-serif" font-size="13" lengthAdjust="spacing" textLength="12" x="279" y="330.1631">: {</text><text fill="#000000" font-family="monospace" font-size="13" lengthAdjust="spacing" textLength="32" x="295" y="329.522">code</text><text fill="#000000" font-family="sans-serif" font-size="13" lengthAdjust="spacing" textLength="4" x="327" y="330.1631">:</text><text fill="#000000" font-family="monospace" font-size="13" lengthAdjust="spacing" textLength="288" x="335" y="329.522">INVALID_ARGUMENT&#160;|&#160;PERMISSION_DENIED</text><text fill="#000000" font-family="sans-serif" font-size="13" lengthAdjust="spacing" textLength="4" x="627" y="330.1631">}</text><line style="stroke:#000000;stroke-width:1.0;stroke-dasharray:2.0,2.0;" x1="10" x2="920" y1="369.4258" y2="369.4258"/><text fill="#000000" font-family="sans-serif" font-size="11" font-weight="bold" lengthAdjust="spacing" textLength="149" x="15" y="381.2959">[Remote Lookup Required]</text><polygon fill="#181818" points="369,404.3477,379,408.3477,369,412.3477,373,408.3477" style="stroke:#181818;stroke-width:1.0;"/><line style="stroke:#181818;stroke-width:1.0;" x1="216" x2="375" y1="408.3477" y2="408.3477"/><text fill="#000000" font-family="sans-serif" font-size="13" font-weight="bold" lengthAdjust="spacing" textLength="7" x="223" y="403.085">4</text><text fill="#000000" font-family="sans-serif" font-size="13" lengthAdjust="spacing" textLength="130" x="234" y="403.085">LookupUri(UriRequest)</text><path d="M20,423.3477 L81,423.3477 L81,432.6387 L71,442.6387 L20,442.6387 L20,423.3477 " fill="#EEEEEE" style="stroke:#000000;stroke-width:1.5;"/><rect fill="none" height="317.0278" style="stroke:#000000;stroke-width:1.5;" width="890" x="20" y="423.3477"/><text fill="#000000" font-family="sans-serif" font-size="13" font-weight="bold" lengthAdjust="spacing" textLength="16" x="35" y="438.376">alt</text><text fill="#000000" font-family="sans-serif" font-size="11" font-weight="bold" lengthAdjust="spacing" textLength="55" x="96" y="437.2178">[Success]</text><polygon fill="#181818" points="227,483.5269,217,487.5269,227,491.5269,223,487.5269" style="stroke:#181818;stroke-width:1.0;"/><line style="stroke:#181818;stroke-width:1.0;stroke-dasharray:2.0,2.0;" x1="221" x2="380" y1="487.5269" y2="487.5269"/><text fill="#000000" font-family="sans-serif" font-size="13" font-weight="bold" lengthAdjust="spacing" textLength="7" x="233" y="482.2642">5</text><text fill="#000000" font-family="sans-serif" font-size="13" lengthAdjust="spacing" textLength="74" x="244" y="482.2642">UriResponse</text><path d="M386,447.6387 L386,511.6387 L543,511.6387 L543,457.6387 L533,447.6387 L386,447.6387 " fill="#FEFFDD" style="stroke:#181818;stroke-width:0.5;"/><path d="M533,447.6387 L533,457.6387 L543,457.6387 L533,447.6387 " fill="#FEFFDD" style="stroke:#181818;stroke-width:0.5;"/><text fill="#000000" font-family="sans-serif" font-size="14" font-weight="bold" lengthAdjust="spacing" textLength="95" x="392" y="467.7461">UriResponse:</text><text fill="#000000" font-family="monospace" font-size="13" lengthAdjust="spacing" textLength="32" x="392" y="485.2881">uris</text><text fill="#000000" font-family="sans-serif" font-size="13" lengthAdjust="spacing" textLength="12" x="424" y="485.9292">: {</text><text fill="#000000" font-family="monospace" font-size="13" font-style="italic" lengthAdjust="spacing" textLength="40" x="436" y="485.2881">topic</text><text fill="#000000" font-family="sans-serif" font-size="13" lengthAdjust="spacing" textLength="4" x="476" y="485.9292">,</text><text fill="#000000" font-family="monospace" font-size="13" font-style="italic" lengthAdjust="spacing" textLength="40" x="484" y="485.2881">topic</text><text fill="#000000" font-family="sans-serif" font-size="13" lengthAdjust="spacing" textLength="4" x="524" y="485.9292">}</text><text fill="#000000" font-family="monospace" font-size="13" lengthAdjust="spacing" textLength="48" x="392" y="503.2202">result</text><text fill="#000000" font-family="sans-serif" font-size="13" lengthAdjust="spacing" textLength="12" x="440" y="503.8613">: {</text><text fill="#000000" font-family="monospace" font-size="13" lengthAdjust="spacing" textLength="32" x="452" y="503.2202">code</text><text fill="#000000" font-family="sans-serif" font-size="13" lengthAdjust="spacing" textLength="4" x="484" y="503.8613">:</text><text fill="#000000" font-family="monospace" font-size="13" lengthAdjust="spacing" textLength="16" x="492" y="503.2202">OK</text><text fill="#000000" font-family="sans-serif" font-size="13" lengthAdjust="spacing" textLength="4" x="508" y="503.8613">}</text><line style="stroke:#181818;stroke-width:1.0;" x1="216" x2="258" y1="540.415" y2="540.415"/><line style="stroke:#181818;stroke-width:1.0;" x1="258" x2="258" y1="540.415" y2="553.415"/><line style="stroke:#181818;stroke-width:1.0;" x1="217" x2="258" y1="553.415" y2="553.415"/><polygon fill="#181818" points="227,549.415,217,553.415,227,557.415,223,553.415" style="stroke:#181818;stroke-width:1.0;"/><text fill="#000000" font-family="sans-serif" font-size="13" font-weight="bold" lengthAdjust="spacing" textLength="7" x="223" y="535.1523">6</text><text fill="#000000" font-family="sans-serif" font-size="13" lengthAdjust="spacing" textLength="82" x="234" y="535.1523">Cache (per ttl)</text><polygon fill="#181818" points="62,602.3032,52,606.3032,62,610.3032,58,606.3032" style="stroke:#181818;stroke-width:1.0;"/><line style="stroke:#181818;stroke-width:1.0;stroke-dasharray:2.0,2.0;" x1="56" x2="215" y1="606.3032" y2="606.3032"/><text fill="#000000" font-family="sans-serif" font-size="13" font-weight="bold" lengthAdjust="spacing" textLength="7" x="68" y="601.0405">7</text><text fill="#000000" font-family="sans-serif" font-size="13" lengthAdjust="spacing" textLength="74" x="79" y="601.0405">UriResponse</text><path d="M221,566.415 L221,630.415 L378,630.415 L378,576.415 L368,566.415 L221,566.415 " fill="#FEFFDD" style="stroke:#181818;stroke-width:0.5;"/><path d="M368,566.415 L368,576.415 L378,576.415 L368,566.415 " fill="#FEFFDD" style="stroke:#181818;stroke-width:0.5;"/><text fill="#000000" font-family="sans-serif" font-size="14" font-weight="bold" lengthAdjust="spacing" textLength="95" x="227" y="586.5225">UriResponse:</text><text fill="#000000" font-family="monospace" font-size="13" lengthAdjust="spacing" textLength="32" x="227" y="604.0645">uris</text><text fill="#000000" font-family="sans-serif" font-size="13" lengthAdjust="spacing" textLength="12" x="259" y="604.7056">: {</text><text fill="#000000" font-family="monospace" font-size="13" font-style="italic" lengthAdjust="spacing" textLength="40" x="271" y="604.0645">topic</text><text fill="#000000" font-family="sans-serif" font-size="13" lengthAdjust="spacing" textLength="4" x="311" y="604.7056">,</text><text fill="#000000" font-family="monospace" font-size="13" font-style="italic" lengthAdjust="spacing" textLength="40" x="319" y="604.0645">topic</text><text fill="#000000" font-family="sans-serif" font-size="13" lengthAdjust="spacing" textLength="4" x="359" y="604.7056">}</text><text fill="#000000" font-family="monospace" font-size="13" lengthAdjust="spacing" textLength="48" x="227" y="621.9966">result</text><text fill="#000000" font-family="sans-serif" font-size="13" lengthAdjust="spacing" textLength="12" x="275" y="622.6377">: {</text><text fill="#000000" font-family="monospace" font-size="13" lengthAdjust="spacing" textLength="32" x="287" y="621.9966">code</text><text fill="#000000" font-family="sans-serif" font-size="13" lengthAdjust="spacing" textLength="4" x="319" y="622.6377">:</text><text fill="#000000" font-family="monospace" font-size="13" lengthAdjust="spacing" textLength="16" x="327" y="621.9966">OK</text><text fill="#000000" font-family="sans-serif" font-size="13" lengthAdjust="spacing" textLength="4" x="343" y="622.6377">}</text><line style="stroke:#000000;stroke-width:1.0;stroke-dasharray:2.0,2.0;" x1="20" x2="910" y1="636.9004" y2="636.9004"/><text fill="#000000" font-family="sans-serif" font-size="11" font-weight="bold" lengthAdjust="spacing" textLength="45" x="25" y="648.7705">[Failure]</text><polygon fill="#181818" points="227,684.4534,217,688.4534,227,692.4534,223,688.4534" style="stroke:#181818;stroke-width:1.0;"/><line style="stroke:#181818;stroke-width:1.0;stroke-dasharray:2.0,2.0;" x1="221" x2="380" y1="688.4534" y2="688.4534"/><text fill="#000000" font-family="sans-serif" font-size="13" font-weight="bold" lengthAdjust="spacing" textLength="7" x="233" y="683.1907">8</text><text fill="#000000" font-family="sans-serif" font-size="13" lengthAdjust="spacing" textLength="74" x="244" y="683.1907">UriResponse</text><path d="M386,657.5313 L386,703.5313 L895,703.5313 L895,667.5313 L885,657.5313 L386,657.5313 " fill="#FEFFDD" style="stroke:#181818;stroke-width:0.5;"/><path d="M885,657.5313 L885,667.5313 L895,667.5313 L885,657.5313 " fill="#FEFFDD" style="stroke:#181818;stroke-width:0.5;"/><text fill="#000000" font-family="sans-serif" font-size="14" font-weight="bold" lengthAdjust="spacing" textLength="95" x="392" y="677.6387">UriResponse:</text><text fill="#000000" font-family="monospace" font-size="13" lengthAdjust="spacing" textLength="48" x="392" y="695.1807">result</text><text fill="#000000" font-family="sans-serif" font-size="13" lengthAdjust="spacing" textLength="12" x="440" y="695.8218">: {</text><text fill="#000000" font-family="monospace" font-size="13" lengthAdjust="spacing" textLength="32" x="452" y="695.1807">code</text><text fill="#000000" font-family="sans-serif" font-size="13" lengthAdjust="spacing" textLength="4" x="484" y="695.8218">:</text><text fill="#000000" font-family="monospace" font-size="13" lengthAdjust="spacing" textLength="384" x="492" y="695.1807">INVALID_ARGUMENT&#160;|&#160;NOT_FOUND&#160;|&#160;PERMISSION_DENIED</text><text fill="#000000" font-family="sans-serif" font-size="13" lengthAdjust="spacing" textLength="4" x="876" y="695.8218">}</text><polygon fill="#181818" points="62,728.3755,52,732.3755,62,736.3755,58,732.3755" style="stroke:#181818;stroke-width:1.0;"/><line style="stroke:#181818;stroke-width:1.0;stroke-dasharray:2.0,2.0;" x1="56" x2="215" y1="732.3755" y2="732.3755"/><text fill="#000000" font-family="sans-serif" font-size="13" font-weight="bold" lengthAdjust="spacing" textLength="7" x="68" y="727.1128">9</text><text fill="#000000" font-family="sans-serif" font-size="13" lengthAdjust="spacing" textLength="74" x="79" y="727.1128">UriResponse</text><line style="stroke:#000000;stroke-width:1.0;stroke-dasharray:2.0,2.0;" x1="10" x2="920" y1="748.3755" y2="748.3755"/><text fill="#000000" font-family="sans-serif" font-size="11" font-weight="bold" lengthAdjust="spacing" textLength="63" x="15" y="760.2456">[Not Found]</text><polygon fill="#181818" points="62,795.9285,52,799.9285,62,803.9285,58,799.9285" style="stroke:#181818;stroke-width:1.0;"/><line style="stroke:#181818;stroke-width:1.0;stroke-dasharray:2.0,2.0;" x1="56" x2="215" y1="799.9285" y2="799.9285"/><text fill="#000000" font-family="sans-serif" font-size="13" font-weight="bold" lengthAdjust="spacing" textLength="14" x="68" y="794.6658">10</text><text fill="#000000" font-family="sans-serif" font-size="13" lengthAdjust="spacing" textLength="74" x="86" y="794.6658">UriResponse</text><path d="M221,769.0063 L221,815.0063 L418,815.0063 L418,779.0063 L408,769.0063 L221,769.0063 " fill="#FEFFDD" style="stroke:#181818;stroke-width:0.5;"/><path d="M408,769.0063 L408,779.0063 L418,779.0063 L408,769.0063 " fill="#FEFFDD" style="stroke:#181818;stroke-width:0.5;"/><text fill="#000000" font-family="sans-serif" font-size="14" font-weight="bold" lengthAdjust="spacing" textLength="95" x="227" y="789.1138">UriResponse:</text><text fill="#000000" font-family="monospace" font-size="13" lengthAdjust="spacing" textLength="48" x="227" y="806.6558">result</text><text fill="#000000" font-family="sans-serif" font-size="13" lengthAdjust="spacing" textLength="12" x="275" y="807.2969">: {</text><text fill="#000000" font-family="monospace" font-size="13" lengthAdjust="spacing" textLength="32" x="287" y="806.6558">code</text><text fill="#000000" font-family="sans-serif" font-size="13" lengthAdjust="spacing" textLength="4" x="319" y="807.2969">:</text><text fill="#000000" font-family="monospace" font-size="13" lengthAdjust="spacing" textLength="72" x="327" y="806.6558">NOT_FOUND</text><text fill="#000000" font-family="sans-serif" font-size="13" lengthAdjust="spacing" textLength="4" x="399" y="807.2969">}</text><polygon fill="#181818" points="62,846.8506,52,850.8506,62,854.8506,58,850.8506" style="stroke:#181818;stroke-width:1.0;"/><line style="stroke:#181818;stroke-width:1.0;stroke-dasharray:2.0,2.0;" x1="56" x2="215" y1="850.8506" y2="850.8506"/><text fill="#000000" font-family="sans-serif" font-size="13" font-weight="bold" lengthAdjust="spacing" textLength="14" x="68" y="845.5879">11</text><text fill="#000000" font-family="sans-serif" font-size="13" lengthAdjust="spacing" textLength="74" x="86" y="845.5879">UriResponse</text><!--SRC=[hPDDR-8m48RFzQyOXKDRL3PQQKzHXOH8M4MbeOAoL-Gw8x3MiRF-wCSk-z_N3g5RAZYqoY67Q5vxdlUTyVd6sjeaSLmBAgshn1UcgjZWBuUIuQ3aTArfHGXrLabNFQ0cv44zWqlnaJE4tjE6MoHdOoK4CikLDE0o0psD9Jb3QRbzWMcwW9xILAwHe2p1Nq3QqlXDYOI3Ws6G9p1LwgUhbvfV-6yUU8oz959P1CtN6qkk3V-DoTTlmtx_loBfzw_ZK1YIA7AQHr42KHJ7LjMSnN4KDVt3BTwIi31HplzF5QD2l930EV00dYE1vb9JUqFuuROczFrpqFZgaEEl5seqJjXMobI9EzhPJIY_ScwtMuB28EJoaGfUmaYlNUNZ0wNX3dN5ZV6nGugI-ym_us6dE32nPmCF1s_fykB7Q9gdgz7y-_8sA-vX2tVP_3PVBF9PiKgp8izIV-oOWJbMWM4tMGZHSRqd7ePDE3NrCAc5OmoD8UFMNxCad_VNyP1Q3mtKcB8DmaMD6gmLbrrDf6FYPY8JoeNJs5Me9peVMPbYTh-Qp9P5UdnztYTxBBsWy8j1TauArJxchX_0Eo-lu8TXxbbEDVy7]--></g></svg>